<?xml version="1.0" encoding="UTF-8"?>
<svg id="Layer_2" data-name="Layer 2" xmlns="http://www.w3.org/2000/svg" viewBox="0 0 413.74 327.99">
  <defs>
    <style>
      .cls-1 {
        stroke: #fff;
        stroke-miterlimit: 10;
        stroke-width: 4px;
      }

      .cls-2, .cls-3 {
        stroke-width: 0px;
      }

      .cls-3 {
        fill: none;
      }
    </style>
  </defs>
  <g id="Layer_1-2" data-name="Layer 1">
    <g>
      <path class="cls-2" d="M101.77,46.5c0-17.47,5.64-28.18,12.12-34.95C123.76,1.41,136.16,0,145.46,0c12.68,0,23.96,2.82,32.69,13.53,6.2,7.61,10.15,18.88,10.15,31.85v10.43c0,6.76-.28,10.99-2.54,18.04-2.54,8.74-4.51,11.27-7.05,15.78l-44.53,83.71h54.11v26.77h-86.53v-25.93l49.89-91.88c1.97-3.95,5.07-10.43,6.2-14.66,1.13-4.23,2.25-12.12,2.25-16.91v-4.23c0-6.48-1.69-11.27-4.23-14.37-1.69-1.97-5.07-4.51-10.99-4.51-6.76,0-10.43,3.38-12.4,6.76-2.54,4.51-2.54,9.86-2.54,16.07v7.61h-28.18v-11.56Z"/>
      <path class="cls-2" d="M259.04,2.82c11.84,0,28.75.56,41.15,11.84,14.37,13.25,15.22,34.1,15.22,42.56v87.09c0,13.53-1.41,27.9-12.68,40.3-12.4,13.53-28.75,15.5-39.74,15.5h-41.99V2.82h38.05ZM249.18,172.49h12.68c5.92,0,13.25-.84,18.88-6.76,5.92-6.48,6.48-16.63,6.48-23.11V55.24c0-5.64-.84-12.68-5.35-18.32-5.35-6.48-11.27-6.48-18.32-6.48h-14.37v142.05Z"/>
    </g>
    <rect class="cls-3" width="411.74" height="325.99"/>
    <path class="cls-1" d="M409.91,249.5c-.79-1.54-2.7-3.57-5.75-6.11-20.49-17.05-40.91-34-61.24-50.87-2.82-2.34-4.94-3.71-6.34-4.12-5.02-1.44-10.45,2.17-12.47,8.1-.63,1.86-.95,4.44-.94,7.76.04,11.8.06,22.79.06,32.98,0,.02,0,.03,0,.05-.02.15-.14.25-.26.23v3.41H47.56c-5.57,0-10.09,6.15-10.09,13.73s4.52,13.73,10.09,13.73h275.66c.03,13.65.02,27.75-.03,42.33,0,2.21.16,4.08.52,5.62,1.59,6.9,7.56,10.88,13.13,9.32,1.38-.38,3.67-1.91,6.88-4.59,21.85-18.23,42.73-35.6,62.66-52.11,5.39-4.47,7.02-12.67,3.55-19.46ZM380.42,257.34l-34.68,28.83s-.09.05-.15.05c-.14,0-.25-.15-.24-.32v-57.65c0-.06.01-.13.04-.18.08-.14.23-.18.35-.08l34.68,28.83s.05.05.06.08c.08.14.05.34-.06.43Z"/>
  </g>
</svg>