<?xml version="1.0" encoding="UTF-8"?>
<svg id="Layer_2" data-name="Layer 2" xmlns="http://www.w3.org/2000/svg" viewBox="0 0 416.74 328.49">
  <defs>
    <style>
      .cls-1 {
        stroke-width: 0px;
      }

      .cls-2 {
        stroke: #fff;
        stroke-miterlimit: 10;
        stroke-width: 5px;
      }
    </style>
  </defs>
  <g id="Layer_1-2" data-name="Layer 1">
    <g>
      <path class="cls-2" d="M2.5,167.02v-6.09c.95-14.1,5.64-26.95,14.06-38.55,11.08-15.26,25.24-26.63,41.13-35.95,2.02-1.18,4.18-1.7,6.47-1.58,12.37.69,15.7,17.4,5.11,23.55-24.14,14-52.65,39.7-39.04,72.2,5.28,12.59,16.16,23.02,27.29,30.66,9.66,6.63,20.32,12.37,31.97,17.23,18.86,7.86,38.3,13.62,58.31,17.27.14.02.26-.07.29-.2,0-.01,0-.03,0-.05,0-9.24-.02-19.2-.06-29.9-.01-3.01.33-5.35,1.02-7.04,2.2-5.38,8.12-8.65,13.59-7.34,1.53.37,3.84,1.62,6.92,3.73,22.16,15.29,44.42,30.67,66.76,46.12,3.32,2.3,5.41,4.14,6.26,5.54,3.78,6.15,2.01,13.59-3.87,17.64-21.72,14.97-44.49,30.72-68.31,47.25-3.5,2.43-5.99,3.82-7.49,4.16-6.07,1.41-12.58-2.2-14.31-8.45-.39-1.39-.57-3.09-.56-5.09.06-14.03.07-27.59.03-40.67,0-.19-.14-.35-.32-.38-29.83-4.93-60.03-14.21-86.67-28.61-29.05-15.71-56.2-39.76-58.55-75.46ZM172.61,237.14c-.13-.09-.3-.05-.38.08-.03.05-.05.11-.05.17v52.27c0,.16.12.29.27.29.06,0,.11-.02.16-.05l37.8-26.14c.12-.09.16-.27.07-.39-.02-.03-.04-.05-.07-.07l-37.8-26.14Z"/>
      <path class="cls-2" d="M414.24,161.25v4.78c-2.38,46.2-47.09,73.63-83.84,88.24-14.15,5.64-29.6,10.32-46.35,14.05-2.23.5-4.28.51-6.15.02-10.62-2.78-12.55-17.42-3.05-22.99,1.08-.63,2.91-1.24,5.51-1.81,18.97-4.17,37.29-10.39,54.97-18.67,22.47-10.51,53.24-30.47,54.7-59.33.97-19.01-12.47-35.12-26.55-46.26-4.66-3.69-9.05-6.72-13.16-9.09-3.14-1.81-5.32-3.5-6.55-5.06-8.28-10.47,3.63-25.27,14.97-18.8,27.08,15.42,53.62,40.73,55.49,74.92Z"/>
    </g>
    <g>
      <path class="cls-1" d="M105.2,40.58c0-8.06,1.39-20.84,13.62-31.13,7.23-6.11,16.67-9.45,28.35-9.45,10.01,0,21.68,2.5,29.46,8.89,6.95,5.56,14.17,16.12,14.17,31.68v28.07c0,8.89-1.95,22.51-16.95,28.63,16.12,6.67,16.95,23.07,16.95,35.02v18.62c0,15.56-.56,26.96-11.4,37.8-9.45,9.45-21.12,11.4-32.79,11.4-10.01,0-20.84-1.39-30.29-10.56-5.84-5.56-11.12-14.73-11.12-28.07v-19.73h27.79v12.78c0,4.17,1.11,10.01,3.61,13.34,1.95,2.5,5.84,5,11.67,5,6.95,0,14.73-3.34,14.73-16.68v-28.91c0-4.45-.28-9.73-3.89-13.9-3.61-4.17-7.5-3.89-12.23-3.89h-6.67v-24.73h6.39c4.17,0,8.34-.56,11.95-4.17,4.17-4.17,4.45-10.01,4.45-12.78v-24.74c0-5-1.95-9.17-4.45-11.67-1.95-2.22-5.84-4.17-11.12-4.17-4.45,0-7.78,1.95-10.28,5-3.61,4.45-4.17,9.73-4.17,14.17v11.12h-27.79v-16.95Z"/>
      <path class="cls-1" d="M260.28,2.78c11.67,0,28.35.56,40.58,11.67,14.17,13.06,15.01,33.63,15.01,41.97v85.88c0,13.34-1.39,27.52-12.51,39.74-12.23,13.34-28.35,15.29-39.19,15.29h-41.41V2.78h37.52ZM250.56,170.09h12.51c5.84,0,13.06-.83,18.62-6.67,5.84-6.39,6.39-16.4,6.39-22.79V54.47c0-5.56-.83-12.51-5.28-18.07-5.28-6.39-11.12-6.39-18.06-6.39h-14.17v140.07Z"/>
    </g>
  </g>
</svg>