<svg xmlns="http://www.w3.org/2000/svg" width="25" height="24" viewBox="0 0 25 24" fill="none">
  <path d="M21.08 3.75H4.57996C4.18213 3.75 3.8006 3.90804 3.5193 4.18934C3.23799 4.47064 3.07996 4.85218 3.07996 5.25V18.75C3.07996 19.1478 3.23799 19.5294 3.5193 19.8107C3.8006 20.092 4.18213 20.25 4.57996 20.25H21.08C21.4778 20.25 21.8593 20.092 22.1406 19.8107C22.4219 19.5294 22.58 19.1478 22.58 18.75V5.25C22.58 4.85218 22.4219 4.47064 22.1406 4.18934C21.8593 3.90804 21.4778 3.75 21.08 3.75ZM21.08 18.75H4.57996V5.25H21.08V18.75ZM17.33 8.25C17.33 9.44347 16.8559 10.5881 16.0119 11.432C15.168 12.2759 14.0234 12.75 12.83 12.75C11.6365 12.75 10.4919 12.2759 9.64798 11.432C8.80406 10.5881 8.32996 9.44347 8.32996 8.25C8.32996 8.05109 8.40897 7.86032 8.54963 7.71967C8.69028 7.57902 8.88104 7.5 9.07996 7.5C9.27887 7.5 9.46963 7.57902 9.61029 7.71967C9.75094 7.86032 9.82996 8.05109 9.82996 8.25C9.82996 9.04565 10.146 9.80871 10.7086 10.3713C11.2712 10.9339 12.0343 11.25 12.83 11.25C13.6256 11.25 14.3887 10.9339 14.9513 10.3713C15.5139 9.80871 15.83 9.04565 15.83 8.25C15.83 8.05109 15.909 7.86032 16.0496 7.71967C16.1903 7.57902 16.381 7.5 16.58 7.5C16.7789 7.5 16.9696 7.57902 17.1103 7.71967C17.2509 7.86032 17.33 8.05109 17.33 8.25Z" fill="white"/>
</svg>