<svg width="29" height="23" viewBox="0 0 29 23" fill="none" xmlns="http://www.w3.org/2000/svg">
<path d="M8.36667 4.7262L10.605 6.29303C10.7751 6.39457 10.9219 6.53064 11.0361 6.69245C11.1503 6.85426 11.2293 7.03821 11.2681 7.23245C11.3068 7.42668 11.3043 7.62687 11.2609 7.82011C11.2174 8.01334 11.134 8.19531 11.0158 8.35428L9.41076 10.6465C9.22546 10.9105 8.95562 11.1033 8.64584 11.1932C8.33606 11.2831 8.00489 11.2645 7.70708 11.1406C7.40927 11.0168 7.16265 10.795 7.00799 10.5119C6.85333 10.2288 6.79989 9.90149 6.85651 9.58395C6.18157 9.77254 5.52416 10.019 4.89159 10.3206C4.29376 10.6153 3.91126 10.8986 3.69592 11.1295C3.42959 11.4143 3.56842 11.6282 3.80076 11.8336L3.96509 11.9682C4.43259 12.3365 5.19759 12.7318 6.26859 13.0874C8.39642 13.7971 11.4253 14.259 14.8366 14.259C18.2479 14.259 21.2768 13.7957 23.4046 13.0874C24.4756 12.7304 25.2406 12.3365 25.7081 11.9682L25.8838 11.8251C26.1062 11.6339 26.2493 11.4355 26.0084 11.1621C25.8243 10.9525 25.4913 10.6904 24.9601 10.4113C23.8962 9.85029 22.2868 9.34878 20.2709 9.01587C19.9001 8.95444 19.5688 8.74821 19.3501 8.44255C19.1313 8.13689 19.0429 7.75683 19.1043 7.38599C19.1657 7.01515 19.372 6.68391 19.6776 6.46512C19.9833 6.24634 20.3633 6.15794 20.7342 6.21937C22.9173 6.58203 24.851 7.15012 26.279 7.90378C27.5894 8.59229 29.0033 9.72987 29.0033 11.4256C29.0033 12.6326 28.268 13.5577 27.4619 14.1924C26.6388 14.8412 25.5353 15.3625 24.2999 15.7748C21.8137 16.6035 18.4675 17.0923 14.8366 17.0923C11.2057 17.0923 7.85951 16.6035 5.37326 15.7748C4.13651 15.364 3.03434 14.8398 2.21126 14.1924C1.40376 13.5577 0.669922 12.634 0.669922 11.4256C0.669922 10.5246 1.08784 9.77095 1.62476 9.19437C2.15459 8.6277 2.86151 8.16162 3.63926 7.7777C4.43967 7.38387 5.38459 7.04103 6.43576 6.7577C6.22531 6.49019 6.11821 6.15586 6.13405 5.81586C6.14989 5.47587 6.28761 5.15294 6.52201 4.90615C6.75641 4.65937 7.07183 4.50522 7.41056 4.47192C7.74929 4.43861 8.08869 4.52979 8.36667 4.7262ZM14.8366 0.0922852C15.2123 0.0922852 15.5726 0.241541 15.8383 0.507217C16.104 0.772894 16.2533 1.13323 16.2533 1.50895V12.8423H13.4199V1.50895C13.4199 1.13323 13.5692 0.772894 13.8349 0.507217C14.1005 0.241541 14.4609 0.0922852 14.8366 0.0922852ZM13.4199 21.3423V18.509H16.2533V21.3423C16.2533 21.718 16.104 22.0783 15.8383 22.344C15.5726 22.6097 15.2123 22.759 14.8366 22.759C14.4609 22.759 14.1005 22.6097 13.8349 22.344C13.5692 22.0783 13.4199 21.718 13.4199 21.3423Z" fill="#6D6D6D"/>
</svg>
