<svg width="20" height="20" viewBox="0 0 20 20" fill="none" xmlns="http://www.w3.org/2000/svg">
<path d="M19.3606 18.4696L14.6665 13.7765C16.027 12.1431 16.7054 10.048 16.5606 7.92715C16.4158 5.80629 15.459 3.82289 13.8891 2.38956C12.3192 0.956234 10.2571 0.183327 8.13184 0.231627C6.00658 0.279927 3.98177 1.14571 2.4786 2.64888C0.975427 4.15205 0.109639 6.17687 0.0613388 8.30213C0.0130389 10.4274 0.785946 12.4894 2.21927 14.0593C3.6526 15.6293 5.636 16.5861 7.75687 16.7309C9.87773 16.8757 11.9728 16.1973 13.6062 14.8368L18.2993 19.5308C18.369 19.6005 18.4517 19.6558 18.5428 19.6935C18.6338 19.7312 18.7314 19.7506 18.8299 19.7506C18.9285 19.7506 19.0261 19.7312 19.1171 19.6935C19.2081 19.6558 19.2909 19.6005 19.3606 19.5308C19.4302 19.4612 19.4855 19.3784 19.5232 19.2874C19.5609 19.1963 19.5803 19.0988 19.5803 19.0002C19.5803 18.9017 19.5609 18.8041 19.5232 18.713C19.4855 18.622 19.4302 18.5393 19.3606 18.4696ZM1.57993 8.50021C1.57993 7.16519 1.97581 5.86015 2.71751 4.75011C3.45921 3.64008 4.51341 2.77492 5.74681 2.26403C6.98021 1.75314 8.33741 1.61946 9.64679 1.87991C10.9562 2.14036 12.1589 2.78324 13.1029 3.72724C14.0469 4.67125 14.6898 5.87398 14.9502 7.18335C15.2107 8.49273 15.077 9.84993 14.5661 11.0833C14.0552 12.3167 13.1901 13.3709 12.08 14.1126C10.97 14.8543 9.66495 15.2502 8.32993 15.2502C6.54032 15.2482 4.82459 14.5364 3.55915 13.271C2.29371 12.0056 1.58191 10.2898 1.57993 8.50021Z" fill="white"/>
</svg>
