<svg xmlns="http://www.w3.org/2000/svg" width="25" height="25" viewBox="0 0 25 25" fill="none">
<path d="M5.74121 10.4791C5.74121 11.5951 7.53121 12.5001 9.74121 12.5001V10.4791C9.74121 9.48513 9.74121 8.98713 9.34421 8.68413C8.94621 8.38113 8.55221 8.49413 7.76421 8.72113C6.55621 9.07013 5.74121 9.72513 5.74121 10.4791Z" stroke="black" stroke-linejoin="round"/>
<path d="M16.7412 9C16.7412 10.933 13.6072 12.5 9.74121 12.5C5.87521 12.5 2.74121 10.933 2.74121 9C2.74121 7.067 5.87521 5.5 9.74121 5.5C13.6072 5.5 16.7412 7.067 16.7412 9Z" stroke="black"/>
<path d="M2.74121 9.5V16.167C2.74121 18.007 5.87521 19.5 9.74121 19.5H20.7412C21.6842 19.5 22.1552 19.5 22.4482 19.207C22.7412 18.914 22.7412 18.443 22.7412 17.5V14.5C22.7412 13.557 22.7412 13.086 22.4482 12.793C22.1552 12.5 21.6842 12.5 20.7412 12.5H9.74121" stroke="black"/>
<path d="M18.7412 19.5V17.5M14.7412 19.5V17.5M10.7412 19.5V17.5M6.74121 19V17" stroke="black" stroke-linecap="round" stroke-linejoin="round"/>
</svg>