<?xml version="1.0" encoding="utf-8"?>
<!-- Generator: Adobe Illustrator 25.2.3, SVG Export Plug-In . SVG Version: 6.00 Build 0)  -->
<svg version="1.1" id="Layer_1" focusable="false" xmlns="http://www.w3.org/2000/svg" xmlns:xlink="http://www.w3.org/1999/xlink"
	 x="0px" y="0px" width="448px" height="512px" viewBox="0 0 448 512" enable-background="new 0 0 448 512" xml:space="preserve">
<path d="M249.171,275.515c4.686-4.687,12.284-4.687,16.971,0L416,425.373V364c0-6.627,5.373-12,12-12h8c6.627,0,12,5.373,12,12v104
	c0,6.627-5.373,12-12,12H332c-6.627,0-12-5.373-12-12v-8c0-6.627,5.373-12,12-12h61.373L243.515,298.142
	c-4.686-4.687-4.686-12.285,0-16.971L249.171,275.515L249.171,275.515z M0,44l0,104c0,6.627,5.373,12,12,12h8
	c6.627,0,12-5.373,12-12V86.627l149.858,149.858c4.687,4.686,12.285,4.686,16.971,0l5.656-5.656c4.686-4.687,4.686-12.285,0-16.971
	L54.627,64H116c6.627,0,12-5.373,12-12v-8c0-6.627-5.373-12-12-12H12C5.373,32,0,37.373,0,44z"/>
</svg>
