<?xml version="1.0" encoding="utf-8"?>
<!-- Generator: Adobe Illustrator 24.3.0, SVG Export Plug-In . SVG Version: 6.00 Build 0)  -->
<svg version="1.1" xmlns="http://www.w3.org/2000/svg" xmlns:xlink="http://www.w3.org/1999/xlink" x="0px" y="0px" width="1117px"
	 height="1388.8px" viewBox="0 0 1117 1388.8" style="enable-background:new 0 0 1117 1388.8;" xml:space="preserve">
<style type="text/css">
	.st0{fill:#316823;}
	.st1{fill:#002A51;}
	.st2{fill:#011F42;}
	.st3{fill:#FFFFFF;}
	.st4{fill:#346D21;}
	.st5{fill:#05264B;}
	.st6{fill:#011E41;}
</style>
<g id="Front">
	<g id="Base">
		<path class="st0" d="M516.7,1326.3c-0.4-0.3-0.7-2.2-0.7-4.1v-3.5l18.3,0.7c16.6,0.6,73.3-0.3,118.5-2l18.2-0.7v3.5v3.6l-11.7,0.6
			C618.3,1326.7,518.3,1328,516.7,1326.3L516.7,1326.3z"/>
		<path class="st0" d="M479.7,1325.3c-0.4-0.3-0.7-2.1-0.7-3.9v-3.3l6.3-0.4c5.7-0.3,5.6-0.3-2-0.5l-8.3-0.2v-3.7v-3.6l27.2,0.6
			c14.9,0.4,31.6,0.7,37,0.7h9.8v3.5v3.5l-27.7,0.2c-15.3,0.1-23,0.4-17,0.5l10.7,0.4v3.4v3.5h-17.3
			C488.1,1326,480,1325.7,479.7,1325.3z"/>
		<path class="st0" d="M450.8,1324.3l-7.8-0.4v-3.4v-3.5h9.8c5.5,0,13.3,0.3,17.5,0.6l7.7,0.7v3.3v3.4l-9.7-0.2
			C462.9,1324.7,455,1324.4,450.8,1324.3z"/>
		<path class="st0" d="M411,1322.4c-10.2-0.6-21.4-1.2-24.9-1.3l-6.3-0.1l0.4-4.5l0.3-4.5l-8,0.2l-8,0.2l7.3,0.3l7.2,0.4v3.4v3.5
			h-7.8c-4.3,0-13.6-0.4-20.8-1c-7.1-0.5-17.3-1.2-22.6-1.5l-9.8-0.7v-3.5v-3.6l15.8,0.5c8.6,0.2,13.8,0.3,11.5,0.1
			c-4.2-0.4-4.3-0.5-4.3-4v-3.6l14.3,0.7c7.8,0.3,18.6,0.9,24,1.3l9.7,0.6v4.4v4.3l6.3-0.2c5.6-0.1,5.7-0.2,1.5-0.5
			c-4.7-0.4-4.8-0.5-4.8-3.9v-3.4h8h8v3.9c0,3.7-0.2,4-3.2,4.4c-1.8,0.2,0.8,0.4,5.7,0.4c5-0.1,6.9-0.2,4.3-0.4
			c-4.8-0.4-4.8-0.4-4.8-4v-3.6l13.8,0.7c7.5,0.3,19.4,0.9,26.5,1.3l12.7,0.6v3.3v3.4h-11.5H440v4v4l-5.2-0.2
			C431.9,1323.8,421.2,1323.1,411,1322.4L411,1322.4z M435.3,1315.3c-2.4-0.2-6.2-0.2-8.5,0c-2.4,0.2-0.5,0.4,4.2,0.4
			S437.6,1315.5,435.3,1315.3z M360.8,1311.3c-1.5-0.2-4.2-0.2-6,0s-0.6,0.4,2.7,0.4C360.8,1311.7,362.3,1311.5,360.8,1311.3z"/>
		<path class="st0" d="M672,1320v-4h-10h-10v-3.5c0-2.1,0.5-3.5,1.3-3.5c2.3,0,38.3-1.9,47-2.5l8.7-0.7v4.1v4.1l8.3-0.1
			c4.5-0.1,7-0.4,5.5-0.6c-2.5-0.4-2.8-0.9-2.8-4.2v-3.8l21.3-1.2c11.6-0.6,23.6-1.5,26.5-1.8l5.2-0.6v4.2v4.1h7.5h7.5v3.5
			c0,3.1-0.3,3.5-2.7,3.5c-1.6,0-7.7,0.4-13.8,1c-6,0.5-19.1,1.4-29,2c-9.9,0.5-28.6,1.7-41.5,2.5C668.9,1324.5,672,1324.8,672,1320
			z M688.3,1315.3c-2.3-0.2-6.4-0.2-9,0s-0.7,0.3,4.2,0.3C688.5,1315.6,690.6,1315.5,688.3,1315.3z M703.7,1314.3
			c-2-0.2-5.2-0.2-7,0c-1.7,0.2,0,0.4,3.8,0.4C704.4,1314.7,705.8,1314.5,703.7,1314.3z M736.8,1312.3c-1.5-0.2-4.2-0.2-6,0
			s-0.6,0.4,2.7,0.4S738.3,1312.5,736.8,1312.3z M754.8,1311.3c-1.5-0.2-4.2-0.2-6,0s-0.6,0.4,2.7,0.4S756.3,1311.5,754.8,1311.3z
			 M768.8,1310.3c-1.5-0.2-4.2-0.2-6,0s-0.6,0.4,2.7,0.4S770.3,1310.5,768.8,1310.3z"/>
		<path class="st0" d="M567,1314.5v-3.5h15.8c8.6,0,20.1-0.3,25.5-0.7l9.7-0.6v4.1v4.2h-25.5H567V1314.5z"/>
		<path class="st0" d="M621,1313.5v-3.5h10h10v3.5v3.5h-10h-10V1313.5z"/>
		<path class="st0" d="M283,1314.4c-7.4-0.7-13.6-1.3-13.7-1.3c-0.2-0.1-0.3-1.7-0.3-3.7v-3.6l9.8,0.5c5.3,0.2,8.2,0.2,6.5,0
			c-3-0.4-3.3-0.7-3.3-3.9c0-3.3,0.1-3.4,4.3-3.4c2.3,0,11.3,0.5,20,1.2l15.7,1.2v3.9v3.8l-8.2-0.4c-4.6-0.3-6.6-0.2-4.5,0
			c3.5,0.4,3.7,0.6,3.7,3.9v3.4l-8.2-0.1C300.2,1315.8,290.4,1315.2,283,1314.4z M298.8,1307.3c-1.6-0.2-4-0.2-5.5,0
			c-1.6,0.2-0.3,0.4,2.7,0.4S300.3,1307.5,298.8,1307.3z"/>
		<path class="st0" d="M793,1312.6c0-3.3,0.2-3.5,3.8-3.9c2-0.2-1.8-0.1-8.5,0.1l-12.3,0.5v-3.6v-3.5l6.8-0.6
			c12-1.2,34.6-2.6,40.5-2.6h5.7v3.4c0,3.4-0.1,3.5-4.2,3.9c-2.4,0.2,1.4,0.1,8.5-0.1l12.7-0.5v3.5v3.6l-7.2,0.6
			c-13.6,1.2-35.3,2.6-40.5,2.6H793V1312.6z M812.3,1307.3c-1.3-0.2-3.5-0.2-5,0c-1.6,0.2-0.5,0.4,2.2,0.4
			C812.3,1307.7,813.5,1307.5,812.3,1307.3z"/>
		<path class="st0" d="M258,1312.3c-5.4-0.6-27.3-4.4-28-4.8c-0.3-0.2,0-3.8,0.8-7.9c1.5-7.6,1.5-7.6,4.7-7.6c1.7,0,5.4,0.7,8.1,1.5
			c2.7,0.9,9.7,2,15.6,2.5c17.2,1.4,17.8,1.6,17.8,5.6c0,3.4-0.1,3.4-4.5,3.4H268v4C268,1313.4,268,1313.4,258,1312.3z
			 M264.8,1304.3c-1-0.2-2.8-0.2-4,0c-1.3,0.2-0.5,0.4,1.7,0.4C264.7,1304.8,265.7,1304.6,264.8,1304.3z"/>
		<path class="st0" d="M712,1309.5c0-3.3,0.2-3.5,3.5-3.5s3.5,0.2,3.5,3.5s-0.2,3.5-3.5,3.5S712,1312.8,712,1309.5z"/>
		<path class="st0" d="M848,1309v-4h-7h-7v-3.5c0-3.4,0.1-3.5,3.8-3.5c5.1,0,30-2.7,38.9-4.2c4-0.6,7.5-1,7.7-0.7
			c0.3,0.3,0.7,2.1,0.8,4c0.2,1.8,0.6,3.6,1,3.9c0.3,0.3,0.9,2.1,1.3,4.1l0.7,3.6l-4.9,0.6c-2.6,0.3-10.4,1.3-17.3,2.1
			C847.5,1313.7,848,1313.8,848,1309z M857.8,1304.3c-1-0.2-2.8-0.2-4,0c-1.3,0.2-0.5,0.4,1.7,0.4
			C857.7,1304.8,858.7,1304.6,857.8,1304.3z M877.8,1302.3c-1-0.2-2.6-0.2-3.5,0c-1,0.3-0.2,0.5,1.7,0.5S878.7,1302.6,877.8,1302.3z
			"/>
		<path class="st0" d="M324,1305.5v-3.5h5.5h5.5v3.5v3.5h-5.5H324V1305.5z"/>
		<path class="st0" d="M68,1234.5v-3.5h5.5H79v3.5v3.5h-5.5H68V1234.5z"/>
		<path class="st0" d="M989,1234.5c0-3.3,0.2-3.5,3.5-3.5s3.5,0.2,3.5,3.5s-0.2,3.5-3.5,3.5S989,1237.8,989,1234.5z"/>
		<path class="st0" d="M1032,1234.5c0-3.3,0.2-3.5,3.5-3.5s3.5,0.2,3.5,3.5s-0.2,3.5-3.5,3.5S1032,1237.8,1032,1234.5z"/>
		<path class="st0" d="M26,1233.5v-3.5h6h6v3.5v3.5h-6h-6V1233.5z"/>
		<path class="st0" d="M1047,1233.5c0-3.3,0.2-3.5,3.5-3.5s3.5,0.2,3.5,3.5s-0.2,3.5-3.5,3.5S1047,1236.8,1047,1233.5z"/>
		<path class="st0" d="M1103,1230.5c0-3.3,0.2-3.5,3.5-3.5s3.5,0.2,3.5,3.5s-0.2,3.5-3.5,3.5S1103,1233.8,1103,1230.5z"/>
		<path class="st0" d="M1.4,1231.4c0.3-0.9,0.6-2.4,0.6-3.5c0-1.2,0.7-1.9,2-1.9c1.6,0,2,0.7,2,3.5c0,3.1-0.3,3.5-2.6,3.5
			C1.4,1233,0.9,1232.6,1.4,1231.4z"/>
		<path class="st0" d="M90,1227.5v-3.5h6h6v3.5v3.5h-6h-6V1227.5z"/>
		<path class="st0" d="M72,1226.5c0-3.4,0.1-3.5,4-3.5s4,0.1,4,3.5s-0.1,3.5-4,3.5S72,1229.9,72,1226.5z"/>
		<path class="st0" d="M136,1226.5c0-3.4,0.1-3.5,4-3.5s4,0.1,4,3.5s-0.1,3.5-4,3.5S136,1229.9,136,1226.5z"/>
		<path class="st0" d="M993,1226.5v-3.5h21.5h21.5v3.5v3.5h-21.5H993V1226.5z"/>
		<path class="st0" d="M45,1225.5c0-3.3,0.2-3.5,3.5-3.5s3.5,0.2,3.5,3.5s-0.2,3.5-3.5,3.5S45,1228.8,45,1225.5z"/>
		<path class="st0" d="M981,1225.5c0-3.3,0.2-3.5,3.5-3.5s3.5,0.2,3.5,3.5s-0.2,3.5-3.5,3.5S981,1228.8,981,1225.5z"/>
		<path class="st0" d="M1039,1225.5v-3.5h7h7v3.5v3.5h-7h-7V1225.5z"/>
		<path class="st0" d="M19,1224.5c0-3.3,0.2-3.5,3.5-3.5s3.5,0.2,3.5,3.5s-0.2,3.5-3.5,3.5S19,1227.8,19,1224.5z"/>
		<path class="st0" d="M969,1224.5c0-3.3,0.2-3.5,3.5-3.5s3.5,0.2,3.5,3.5s-0.2,3.5-3.5,3.5S969,1227.8,969,1224.5z"/>
		<path class="st0" d="M1072,1224.5v-3.5h8.5h8.5v3.5v3.5h-8.5h-8.5V1224.5z"/>
		<path class="st0" d="M154,1223.5c0-3.1,0.3-3.5,2.5-3.5s2.5,0.4,2.5,3.5s-0.3,3.5-2.5,3.5S154,1226.6,154,1223.5z"/>
		<path class="st0" d="M959,1222.5c0-3.3,0.2-3.5,3.5-3.5s3.5,0.2,3.5,3.5s-0.2,3.5-3.5,3.5S959,1225.8,959,1222.5z"/>
		<path class="st0" d="M1103,1222.6c0-3,0.4-3.4,3.1-4c6.7-1.3,7.9-0.9,7.9,2.8c0,3-0.4,3.4-3.1,4
			C1104.2,1226.7,1103,1226.3,1103,1222.6z"/>
		<path class="st0" d="M478.5,1097.4c-59.3-1-123.9-3.8-164.5-7c-19.8-1.5-52.8-4.9-58.7-6l-3.2-0.6l0.4-5.7c1.4-15.6,2.5-49,3-88.1
			c0.8-57.2,2.7-90.2,6.4-113.6c0.5-3.7-0.1-11.9-2.6-31c-4.4-34.4-5.5-58.4-5.8-128.9c-0.3-60.7-1.1-92.5-2.5-92.5
			c-0.5,0-1.5,3-2.4,6.8c-2,8.6-7.7,26-12.8,38.7c-2.2,5.5-4.9,12.3-6,15c-1.1,2.8-4,10.6-6.4,17.5l-4.4,12.5l-0.5,24
			c-0.4,16.9-1.1,26.4-2.3,32c-1.5,7.1-1.7,13.9-1.4,58.2l0.3,50.2l-4.7,0.7c-16.6,2.5-92.3-4.4-150.4-13.6c-18.9-3-49-8.7-49.8-9.5
			c-0.8-0.7,7.2-116.3,9.8-143c1.8-17.7,2.6-22.7,4-23.5c0.7-0.4,1-1.3,0.6-1.9c-0.7-1,1-15,3.9-33.6c0.8-4.9,3.1-19.6,5-32.5
			c24.4-160.9,39.9-232.1,71.4-328c5-15.1,9.1-28.8,9.1-30.5c0-4.8,1.8-10,4.5-12.9c1.4-1.5,2.5-2.9,2.5-3.1
			c0-1.2,16.1-33.3,20.1-40c18.9-31.9,44.4-54.8,81.6-73.4c15.8-7.9,14.9-7.5,42.5-18.7C318.4,93.8,385,58.5,391.7,48.3
			c1.5-2.3,6.1-5.3,8.2-5.3c0.6,0,0.8,0.8,0.4,1.8c-0.3,1,0.1,0.8,1.2-0.7c2.1-2.8,2.9-1.8,4,4.9c2.9,19.5,18,55.4,32.3,76.9
			c7.4,11.2,26.8,30.6,34.3,34.3c11.5,5.6,20.6,8.5,38.1,12.3c6.7,1.4,7.9,2,9.7,4.8c1.1,1.8,2.1,2.7,2.1,2c0-0.6-0.4-1.5-1-1.8
			c-1.5-1-1.2-2.5,0.6-2.5c2.1,0,3.9,2,4.7,5.2c0.4,1.5,1.4,3.3,2.2,4.2c0.8,0.8,1.5,1.8,1.5,2.3c0,0.4,2.3,6.2,5,12.7
			c3.9,9.2,4.8,12.1,3.8,12.7c-1,0.7-1,0.9,0.2,0.9c2.2,0,5.5,9.1,3.8,10.2c-1,0.5-0.8,0.8,0.5,0.8c0.9,0,1.7,0.7,1.7,1.5
			c0,1.5-2.5,2.1-3.3,0.8c-0.2-0.5-0.2-0.3-0.1,0.4c0.2,0.6-0.2,1.4-0.9,1.7s0,0.3,1.6,0c1.9-0.5,2.7-0.2,2.7,0.8
			c0,0.9-2.8,2.6-7,4.2c-3.8,1.5-7.2,3.2-7.6,3.7c-0.3,0.5-1.9,0.9-3.7,0.9c-2.4,0-2.8-0.3-1.9-1.2c1.9-1.9,1.4-2.8-1.5-2.7
			c-2.2,0-2.4,0.2-1,0.8c1.6,0.6,1.4,1.1-1.7,3.9c-4.5,4.1-4.6,6.9-0.3,8.5c0.9,0.3,1.7,1.1,1.7,1.6s-0.8,1.2-1.7,1.4
			c-1,0.3-0.1,0.5,1.9,0.6c2.6,0.1,4.5-0.7,6.7-2.5c1.7-1.4,3.1-3,3.1-3.4c0-0.5-1.3,0.5-2.9,2.1c-3.1,3-6.1,3.8-6.1,1.6
			c0-1.2,0.7-1.7,6.6-4.7c1.6-0.8,3.6-2.1,4.4-2.9c1.6-1.6,1.8-1.6-3.2,0.4c-1.3,0.5-1.5,0.2-1.1-1.4c0.8-3.1,13.5-7.5,15.7-5.4
			c0.3,0.4-0.6,1.2-2.1,1.9l-2.8,1.1l2.7-0.1c1.6,0,2.8-0.4,2.8-0.8c0-0.5,0.6-0.8,1.3-0.8c1.5,0,4.7,5.5,4.7,8c0,1,0.4,2.1,0.9,2.4
			c0.5,0.3,1.2,2.7,1.6,5.2c0.3,2.6,0.9,5.3,1.2,6.1c0.5,1.3,0.2,1.3-1.5,0.4c-1.2-0.7-2.2-0.8-2.2-0.2c0,0.5,1.1,1.2,2.4,1.5
			c1.7,0.4,2.8,1.8,3.7,4.3l1.2,3.7l1.9-6.5c1-3.5,3.5-11.5,5.5-17.6l3.6-11.3h3.5c5,0,15.2,4.8,15.2,7.2c0,1.5-0.3,1.7-1.9,0.8
			c-4-2.1-3.2-0.9,2,3c6.2,4.7,9.2,5,11.5,1.5c1.7-2.5,1.6-2.7-1.7-6.1c-3.7-3.9-8.6-7.1-6-4.1c2.5,3-3.2,2-11.4-2
			c-6.6-3.3-7.5-4.1-7.5-6.5c0-3.2,2.9-11,3.9-10.4c0.3,0.2,0.7-0.9,0.8-2.5c0.2-3,1.5-6,9.8-23.4c5.5-11.7,6.6-13.1,10.5-13.9
			c4.4-0.9,25.3-6.6,33.5-9.1c8.9-2.7,18.4-7.5,24.1-12c5-3.9,17.5-16.5,19.4-19.4c0.8-1.2,2.5-3.4,3.7-4.7
			c2.8-3,11.8-18.2,12.8-21.5c0.4-1.3,1.3-3.1,2-3.9c1.8-2.3,9.5-20.8,9.5-23c0-1.1,0.4-2,0.9-2s1.4-2.3,2-5.2
			c0.7-2.8,1.6-5.7,2.1-6.3c0.9-1.1,1.9-4.9,3.7-13.8c0.3-1.5,0.8-2.7,1.2-2.7c0.3,0,0.5-2.1,0.3-4.7c-0.3-3.9-0.2-4.6,0.9-3.6
			c0.7,0.7,2.4,1.3,3.7,1.3c1.4,0,4.4,1.9,7.5,4.8c5.4,5,19.3,14.3,30.7,20.4c3.6,1.9,12.6,6.8,20,10.9
			c22.9,12.4,52.5,26.3,75.5,35.4c63.4,25.2,89.7,42.2,114.3,73.9c4.3,5.6,9.8,13.2,12.2,17.1c5.9,9.5,21.1,40.7,20.6,42.2
			c-0.3,0.7,0.1,1,0.9,0.7c2.2-0.9,4.4,3.7,5.4,11.2c1.1,7.6,1.4,8.9,12.9,45.9c11.4,36.8,17.3,58.4,26.2,96
			c13.8,58.5,21.2,98.8,40.5,218.5c1.9,12.4,4.7,29.4,6.1,37.9s2.8,18.4,3.1,22c0.3,3.6,0.9,7.1,1.4,7.6c2.5,3.2,7.5,63.8,10.9,130
			c0.5,11,1.2,23.8,1.6,28.5l0.6,8.6l-4.4,2.1c-10.7,5.4-67.7,12.5-122,15.4c-23.3,1.2-74.1,0.9-75.5-0.5
			c-0.4-0.4-1.1-22.4-1.5-48.9s-1.2-50.9-1.7-54.2c-1-5.8-1.6-17.5-2.5-46.5c-0.5-14.6-1.1-16.6-11.6-39.5
			c-6.5-14.3-13.1-31.6-16.5-43.6c-2-6.8-4.9-15.5-6.4-19.4c-5.3-12.7-6.5-18.9-7.1-37l-0.6-17l-0.2,15c-0.2,16.2,0.7,21.6,5.8,36.5
			c2.3,6.7,3.1,11.5,3.9,23.2c2.2,29.5,0.6,153.2-2.4,192.2c-0.8,10.3-2.6,27.7-4.1,38.5c-6.6,50.1-6.2,44-5.3,82.3
			c1.2,50.1,3.1,86.1,6.5,121.9l0.6,6.7l-3.8,0.6c-26.3,4.1-113.2,9.5-188.9,11.6C634.9,1097,509.5,1097.9,478.5,1097.4
			L478.5,1097.4z M260.7,570.3c-0.2-1.6-0.4-0.3-0.4,2.7s0.2,4.3,0.4,2.8C260.9,574.2,260.9,571.8,260.7,570.3z M860.7,555.3
			c-0.2-1.6-0.4-0.5-0.4,2.2c0,2.8,0.2,4,0.4,2.8C860.9,559,860.9,556.8,860.7,555.3z M861.7,541.3c-0.2-1.6-0.4-0.5-0.4,2.2
			c0,2.8,0.2,4,0.4,2.8C861.9,545,861.9,542.8,861.7,541.3z M862.7,527.3c-0.2-1.6-0.4-0.3-0.4,2.7s0.2,4.3,0.4,2.8
			C862.9,531.2,862.9,528.8,862.7,527.3z M889.7,405.3c-0.3-1-0.5-0.2-0.5,1.7c0,1.9,0.2,2.7,0.5,1.8
			C889.9,407.8,889.9,406.2,889.7,405.3z M612.8,359c-1.6-2.5-0.3-3.8,2.3-2.2c1.6,1,2,1,2.5-0.3c0.7-1.7,3.4-2.1,3.4-0.4
			c0,0.6-0.5,2-1.1,3.2c-1,2.1-1,2.1,0.5,0.3c1.2-1.4,1.6-4.1,1.5-9.5c-0.1-4.2-0.3-6.8-0.6-5.8c-0.2,0.9-0.9,1.5-1.4,1.2
			c-0.5-0.4-0.9-6.9-0.9-14.5s0.4-14.1,0.9-14.5c0.5-0.3,1.2,0.3,1.4,1.2c0.3,1,0.5-4.9,0.5-13.2c0-8.2-0.2-14.2-0.5-13.2
			c-0.8,3.2-3.3,1.9-3.3-1.7c0-3.8,1.6-5.7,2.3-2.9c0.3,1,0.5-1.3,0.5-5.2c0-3.8-0.2-6.2-0.5-5.2c-0.8,3.2-3.3,1.9-3.3-1.7
			c0-3.8,1.6-5.7,2.3-2.9c0.3,1,0.5-0.9,0.5-4.2c0-3.3-0.2-5.2-0.5-4.2c-0.8,3.2-3.3,1.9-3.3-1.7c0-3.8,1.6-5.7,2.3-2.9
			c0.3,1,0.5-2,0.5-6.7s-0.2-7.7-0.5-6.7c-0.2,0.9-1.1,1.7-1.9,1.7c-1.1,0-1.4-2-1.4-10s0.3-10,1.4-10c0.8,0,1.7,0.8,1.9,1.8
			c0.3,0.9,0.5-2.7,0.6-8c0-5.3,0.5-10.7,1-12c0.4-1.3,0.5-3.2,0-4.3c-0.6-1.7-0.8-1.7-0.8-0.2c-0.1,2.3-0.8,2.2-4.3-0.8
			c-3.2-2.7-4.9-3-7.9-1.5c-2.3,1.3-2.5,4.3-0.4,6.4c0.8,0.8,1.6,2.5,1.6,3.8c0.2,2.2,0.2,2.2,0.6,0.1c0.3-1.4,0.9-2,1.9-1.6
			c2,0.7,2,11.3,0,11.3c-0.8,0-1.7-0.8-1.9-1.7c-0.3-1-0.5,0.9-0.5,4.2s0.2,5.2,0.5,4.2c1.1-4.2,2.3,0.1,2.3,8.3s-1.2,12.5-2.3,8.3
			c-0.3-1-0.5,1.1-0.5,4.7c0,3.6,0.2,5.7,0.5,4.8c0.2-1,1-1.8,1.7-1.8c1,0,1.5,3.3,2,12.5c0.7,11.9,0.1,17.3-1.4,12.9
			c-0.4-1-0.5,16.6-0.2,39.1c0.4,36.8,0.8,43.5,2.8,43.5C613.8,361,613.5,360.1,612.8,359L612.8,359z M899.7,353.3
			c-0.2-1.6-0.4-0.5-0.4,2.2c0,2.8,0.2,4,0.4,2.8C899.9,357,899.9,354.8,899.7,353.3z M502.2,354.8c-1.7-1.7-1.5-3.8,0.3-3.8
			c0.8,0,1.5,0.5,1.5,1c0,0.6,0.7,1,1.5,1s1.5-0.4,1.5-1c0-1.8,3-1.1,3.1,0.8c0.1,0.9,0.5-0.1,1-2.3c0.8-4.1,1-33.4,0.2-30.2
			c-0.2,0.9-0.9,1.5-1.4,1.2c-0.5-0.4-0.9-5.8-0.9-12.1c0-9.2,0.3-11.4,1.4-11.4c0.8,0,1.7,0.8,1.9,1.8c0.3,0.9,0.5-0.1,0.5-2.3
			c0-2.2-0.2-3.2-0.5-2.2c-0.2,0.9-1.1,1.7-1.9,1.7c-1.2,0-1.4-3.6-1.4-22.2c0-12.3,0.3-25.4,0.8-29.3l0.7-7l0.6,6
			c0.4,4.8,0.6,3.9,0.6-4.5c0-5.8-0.1-9.7-0.4-8.7c-0.8,2.9-3.3,2-3.3-1.2c0-3.4,1.6-5,2.3-2.4c0.3,1,0.5-0.9,0.5-4.2
			s-0.2-5.2-0.5-4.2c-0.2,0.9-1.1,1.7-1.9,1.7c-1.6,0-1.9-6.1-0.4-9.5c0.8-1.8,0.9-1.7,0.9,0.8c0.1,1.6,0.5,2.6,1.1,2.2
			c0.5-0.3,0.7-1.2,0.4-2c-0.3-0.7,0.4-2.3,1.5-3.4c1.2-1.2,2.1-2.7,2.1-3.5c0-2-2.8-4.6-5-4.6c-1.7,0-7.5,4.1-9.2,6.5
			c-0.4,0.6-0.8,0.2-0.8-0.9c0-1.1-0.3-1.7-0.6-1.3c-0.4,0.3-0.3,1.9,0.1,3.4c0.7,2.8,0.7,2.8,1.6,0.5c1.7-4.4,2.7-1.1,3.4,11.2
			c0.7,12,0.1,17.3-1.6,13c-0.4-1.1-0.7,1.2-0.7,5.6c0,4.1,0.2,6.7,0.5,5.8c0.2-1,1.1-1.8,1.9-1.8c1,0,1.4,1.4,1.4,5.5
			s-0.4,5.5-1.4,5.5c-0.8,0-1.7-0.8-1.9-1.7c-0.3-1-0.5,0.2-0.5,2.7s0.2,3.7,0.5,2.8c0.8-3,3.3-2.1,3.3,1.1c0,3.4-1.6,5-2.3,2.4
			c-0.3-1-0.5,7.9-0.5,19.7c0,11.8,0.2,20.7,0.5,19.7c0.7-2.6,2.3-1,2.3,2.4c0,3.2-2.5,4.1-3.3,1.2c-0.3-1-0.5,6.8-0.5,17.2
			c0,10.5,0.2,18.2,0.5,17.2c0.8-3,2.3-0.8,2.3,3.4c0,4.1-2.4,5.7-3.3,2.2c-0.3-1-0.5,0.5-0.6,3.4c-0.1,5.7,0.6,8.3,2.2,8.3
			C503,356,503,355.6,502.2,354.8L502.2,354.8z M903.9,336.5c3.4-3.7,6.1-7.6,6.1-8.9c0-0.6-1.3,1-2.8,3.5c-1.6,2.4-3.9,5.3-5,6.3
			c-1.6,1.4-2.2,2.9-2,5.5l0.1,3.6l0.4-3.5C901,341,902.3,338.2,903.9,336.5z M912.7,310.8c-0.2-1.3-0.4-0.5-0.4,1.7
			c-0.1,2.2,0.1,3.2,0.4,2.3C912.9,313.8,912.9,312,912.7,310.8z M538.5,291c1.7-0.7,1.7-0.9,0.3-0.9c-2.8-0.1-2.1-2.1,0.8-2.1
			c1.7,0,2.3,0.4,1.8,1.3c-0.5,0.7,0,0.6,1.1-0.3c1.7-1.4,1.7-1.5-0.8-1.8c-2.4-0.3-2.5-0.5-1.3-1.8c0.8-0.8,3.3-1.4,5.5-1.4
			c4.2,0,6.4,1.5,3.4,2.3c-1,0.3,4.1,0.5,11.2,0.5c7.2,0,12.2-0.2,11.2-0.5c-0.9-0.2-1.5-0.9-1.2-1.4c1-1.4,6.5-1,8.1,0.6
			c1.4,1.3,1.2,1.5-1.3,1.5h-2.7l2.2,2.2c2.5,2.5,9.3,3.1,11.3,1.1c0.9-0.9,0.7-1.1-1-0.6c-2.7,0.7-2.8-1.8-0.1-3.5
			c2.4-1.5,2.6-4.9,0.3-7.4c-1.3-1.4-3-1.8-8.7-1.6c-6.3,0.1-6.6,0.2-2.6,0.7l4.5,0.6l-4.9,0.8c-11.2,1.6-31.3,0.3-23.9-1.6
			c1-0.3-0.4-0.5-3.1-0.6c-3.1-0.1-5.7-0.7-7-1.8c-2-1.7-2-1.7-0.6,0.1c1.4,1.8,1.3,1.9-2.8,1.4c-3.7-0.5-4.6-0.3-6.7,2
			c-3.1,3.3-3.1,3.7,0,6.8c3.1,3.1,3.2,4.8,0.4,4.1c-1.2-0.3-1.8-0.2-1.3,0.3c0.8,0.7,3.6,1.6,5.4,1.8
			C536.3,291.8,537.4,291.5,538.5,291L538.5,291z M592.7,280.3c-0.3-1-0.5-0.2-0.5,1.7c0,1.9,0.2,2.7,0.5,1.8
			C592.9,282.8,592.9,281.2,592.7,280.3z M560.2,273.8c1.6-1.3,4.2-8.8,3.3-9.6c-0.2-0.3-0.9,1.6-1.6,4.2c-1,4.2-1.8,5.1-4.1,4.7
			c-0.5,0-0.8,0.4-0.8,0.9C557,275.4,558.3,275.3,560.2,273.8L560.2,273.8z M128.8,251.3c-1-0.2-2.6-0.2-3.5,0
			c-1,0.3-0.2,0.5,1.7,0.5S129.7,251.6,128.8,251.3z M994.8,251.3c-1-0.2-2.8-0.2-4,0c-1.3,0.2-0.5,0.4,1.7,0.4
			C994.7,251.8,995.7,251.6,994.8,251.3z M603,247.5c1.3-1.4,2.2-2.6,1.9-2.8c-0.2-0.1-1.6,1-3.1,2.5s-2.3,2.8-1.9,2.8
			C600.3,250,601.7,248.9,603,247.5z M159.5,245c1.3-0.5,1.4-0.9,0.5-0.9c-0.8,0-2.4,0.4-3.5,0.9c-1.3,0.5-1.4,0.9-0.5,0.9
			C156.8,245.9,158.4,245.5,159.5,245z M174,239c3.3-1.7,6-3.3,6-3.5c0-0.5-11.9,5.2-12.9,6.1C165.8,242.8,168.7,241.7,174,239z
			 M580.9,216.5c0-0.5-0.6,0.1-1.4,1.5c-0.8,1.4-1.4,3-1.4,3.5c0,0.6,0.6-0.1,1.4-1.5C580.3,218.6,580.9,217.1,580.9,216.5z
			 M516.5,208.9c0.9-1.7,1.5-3.4,1.3-3.9s-1.1,0.9-2,3C513.8,212.7,514.3,213.3,516.5,208.9z M716.7,50.3c-0.3-1-0.5-0.2-0.5,1.7
			s0.2,2.7,0.5,1.8C716.9,52.8,716.9,51.2,716.7,50.3z"/>
		<path class="st0" d="M577.5,289c-0.3-0.5,0.3-1,1.4-1c1.2,0,2.1,0.5,2.1,1c0,0.6-0.6,1-1.4,1C578.8,290,577.8,289.6,577.5,289z"/>
		<path class="st0" d="M156.5,931c-9.3-0.4-22.3-1.1-28.7-1.5l-11.8-0.7v-3.5v-3.6l18.3,0.7c10,0.4,27.2,1.1,38.1,1.7
			c19.9,0.9,36.2,0.4,37.2-1.3c0.3-0.4,1.4-0.8,2.5-0.8c1.6,0,1.9,0.7,1.9,4s-0.3,4-1.9,4c-1.1,0-2.3,0.5-2.6,1
			C208.8,932.1,183.7,932.1,156.5,931L156.5,931z"/>
		<path class="st0" d="M913,928.5c-4.3-1.1-4.5-1.3-4.8-5.3c-0.4-4.8,0.8-5.3,6.1-2.6c2.7,1.4,5.5,1.6,18.4,1.1l15.3-0.5v3.7v3.8
			l-10.7,0.6C923.6,930.2,918.5,930,913,928.5z"/>
		<path class="st0" d="M59.5,927.3c-23.2-1-44.8-3.2-50.7-4.9c-1.3-0.4-1.8-1.6-1.8-4c0-3.3,0.1-3.4,3.8-3.4c2,0,7.4,0.7,11.9,1.5
			c9.2,1.6,31.8,3.1,64.1,4.1l21.2,0.7v3.3v3.4l-21.2-0.2C75.1,927.7,62.8,927.5,59.5,927.3L59.5,927.3z"/>
		<path class="st0" d="M950,924.6c0-3.1,0.3-3.4,3.8-4c2-0.3,9.2-0.6,16-0.6H982v3.4c0,3-0.4,3.4-3.1,4c-1.7,0.3-8.9,0.6-16,0.6H950
			V924.6z"/>
		<path class="st0" d="M983,923.5c0-3.4,0.1-3.5,4-3.5s4,0.1,4,3.5s-0.1,3.5-4,3.5S983,926.9,983,923.5z"/>
		<path class="st0" d="M994,923.5c0-3.3,0.2-3.5,3.5-3.5s3.5,0.2,3.5,3.5s-0.2,3.5-3.5,3.5S994,926.8,994,923.5z"/>
		<path class="st0" d="M1003,923.5V920h12.5h12.5v3.5v3.5h-12.5H1003V923.5z"/>
		<path class="st0" d="M1032,923.5V920h12h12v3.5v3.5h-12h-12V923.5z"/>
		<path class="st0" d="M1057,923.2v-3.9l11.8-0.7c10-0.5,16.8-1.5,39-5.3c2.7-0.5,3.2-0.3,3.2,1.3c0,1.1,0.3,2.9,0.6,4.1
			c0.5,1.9,0,2.2-4.8,3.2c-6.9,1.3-28.7,3.8-40.5,4.6l-9.3,0.7L1057,923.2L1057,923.2z"/>
		<path class="st0" d="M591.8,171.5c-0.3-0.3-17.4-0.6-37.9-0.6l-37.4-0.1l-2.5-2.7c-1.4-1.5-2-2-1.4-1.2c2.5,3.5,2.5,4.1,0.5,4.1
			c-2.8,0-9.5-9-31.1-41.5c-25.6-38.5-37-58.9-37-66.4v-4.4l7.5,0.7C459.6,60,460,60,460,58c0-1.6,0.6-2,3.5-2
			c2.8,0,3.5,0.4,3.5,1.9c0,1.8,1.4,1.9,25.3,2.5c13.8,0.4,33.6,0.8,44,0.9l18.7,0.2v-2.2c0-2,0.5-2.3,3.5-2.3
			c3.1,0,3.5,0.3,3.5,2.5V62h31h31v-2.5c0-2.5,0.1-2.5,8.5-2.5c7.8,0,8.5,0.2,8.5,2c0,1.1,0.7,2,1.5,2s1.5-0.9,1.5-2
			c0-1.6,0.7-2,3.5-2c2.9,0,3.5,0.4,3.5,2.2c0,2.1,0.2,2.1,11,1.4l11-0.6v4c0,4.4-5.7,17.5-11.6,26.8c-1.9,2.9-3.4,5.5-3.4,5.8
			c0,0.2-0.9,1.7-1.9,3.2s-9,13.5-17.6,26.7s-19.1,28.8-23.2,34.6l-7.4,10.7l-7.8,0.1C595.8,172,592.1,171.8,591.8,171.5
			L591.8,171.5z M629.1,134.3c0.8-0.6,2.2-2.5,3.2-4.2"/>
		<path class="st0" d="M484,46.5c0-3.4,0.1-3.5,4-3.5s4,0.1,4,3.5s-0.1,3.5-4,3.5S484,49.9,484,46.5z"/>
		<path class="st0" d="M547,46.5V43h9h9v3.5V50h-9h-9V46.5z"/>
	</g>
	<g id="Key">
		<path class="st1" d="M232,1293.8c0-0.6,1.1-7.6,2.4-15.7c6-35.5,10-73.6,13.2-126.1c1.4-23.9,3-43.9,3.4-44.3
			c0.4-0.5,5.4-0.2,11.1,0.7c64.7,9.5,181,14.4,317.9,13.3c118.4-1,212-5.3,271.5-12.7c4.4-0.6,9.6-1,11.6-1h3.6l1.1,10.8
			c1.8,17.2,5,54.1,7.7,90.2c2.8,36.8,4.5,52.1,7.6,70.9c1.1,6.9,1.9,13.5,1.6,14.8c-0.2,1.2,0,2.4,0.4,2.5c0.5,0.2,1.1,1.8,1.5,3.6
			c0.6,2.8,0.4,3.2-1.4,3.2c-1.2,0-2.4,0.5-2.8,1.1c-0.4,0.8,0.3,0.9,2.3,0.5c2.9-0.7,3-0.5,4.8,4.6c0.9,2.9,2,9,2.2,13.5
			c0.5,7.6,0.4,8.2-1.7,9.3c-4.7,2.5-27,5-72,8c-8.5,0.5-25.4,1.7-37.5,2.5c-124.8,8.5-211.1,11-290,8.4l0,0
			c-38.9-1.2-92.3-4-145.5-7.4c-12.4-0.9-29.5-2-38-2.5c-36.2-2.4-73.5-7.1-78.8-9.9c-1.3-0.7-2.4-2.6-2.8-4.7
			c-0.7-3.9,0.9-13.7,3.3-19.7 M231.6,1294.8 M522.5,1323c0.3-0.5-0.3-1-1.5-1s-1.8,0.5-1.5,1c0.3,0.6,1,1,1.5,1
			S522.2,1323.6,522.5,1323z M529,1323c0-0.5-0.9-1-2-1s-2,0.5-2,1c0,0.6,0.9,1,2,1S529,1323.6,529,1323z M533,1323
			c0-0.5-0.7-1-1.5-1s-1.5,0.5-1.5,1c0,0.6,0.7,1,1.5,1S533,1323.6,533,1323z M577,1323c0-0.5-0.7-1-1.5-1s-1.5,0.5-1.5,1
			c0,0.6,0.7,1,1.5,1S577,1323.6,577,1323z M584,1323c0-0.5-0.9-1-2-1s-2,0.5-2,1c0,0.6,0.9,1,2,1S584,1323.6,584,1323z M588,1323
			c0-0.5-0.7-1-1.5-1s-1.5,0.5-1.5,1c0,0.6,0.7,1,1.5,1S588,1323.6,588,1323z M599.5,1323c0.3-0.5-0.3-1-1.5-1s-1.8,0.5-1.5,1
			c0.3,0.6,1,1,1.5,1S599.2,1323.6,599.5,1323z M491,1322c0-0.5-0.9-1-2-1s-2,0.5-2,1c0,0.6,0.9,1,2,1S491,1322.6,491,1322z
			 M627,1322c0-0.5-0.9-1-2-1s-2,0.5-2,1c0,0.6,0.9,1,2,1S627,1322.6,627,1322z M631.5,1322c0.3-0.5-0.3-1-1.5-1s-1.8,0.5-1.5,1
			c0.3,0.6,1,1,1.5,1S631.2,1322.6,631.5,1322z M465,1321c0-0.5-0.9-1-2-1s-2,0.5-2,1c0,0.6,0.9,1,2,1S465,1321.6,465,1321z
			 M420,1319c0-0.5-0.9-1-2-1s-2,0.5-2,1c0,0.6,0.9,1,2,1S420,1319.6,420,1319z M386,1317c0-0.5-0.7-1-1.5-1s-1.5,0.5-1.5,1
			c0,0.6,0.7,1,1.5,1S386,1317.6,386,1317z M336,1314c0-0.5-0.7-1-1.5-1s-1.5,0.5-1.5,1c0,0.6,0.7,1,1.5,1S336,1314.6,336,1314z
			 M508,1314c0-0.5-0.9-1-2-1s-2,0.5-2,1c0,0.6,0.9,1,2,1S508,1314.6,508,1314z M669,1312c0-0.5-0.9-1-2-1s-2,0.5-2,1
			c0,0.6,0.9,1,2,1S669,1312.6,669,1312z M854.5,1309c0.3-0.5-0.3-1-1.4-1c-1.2,0-2.1,0.5-2.1,1c0,0.6,0.6,1,1.4,1
			C853.2,1310,854.2,1309.6,854.5,1309z M373,1308c0-0.5-0.7-1-1.5-1s-1.5,0.5-1.5,1c0,0.6,0.7,1,1.5,1S373,1308.6,373,1308z
			 M356,1307c0-0.5-0.9-1-2-1s-2,0.5-2,1c0,0.6,0.9,1,2,1S356,1307.6,356,1307z M872,1307.1c0-0.4-1.1-0.6-2.5-0.3
			c-1.4,0.2-2.5,0.6-2.5,0.8c0,0.2,1.1,0.4,2.5,0.4S872,1307.6,872,1307.1z M802,1304c0-0.5-0.7-1-1.5-1s-1.5,0.5-1.5,1
			c0,0.6,0.7,1,1.5,1S802,1304.6,802,1304z M879.8,1298.4c1.2-0.4,2.2-1,2.2-1.3c0-1-5.9-0.1-6.6,1
			C874.8,1299.1,876.5,1299.2,879.8,1298.4L879.8,1298.4z"/>
	</g>
	<g id="Collar">
		<path class="st1" d="M594.2,178l0.4-6h-6.3c-5.8,0-6.3-0.2-6.3-2.1c0-2.1,0.2-2.1,11.8-1.5l11.7,0.7l4.3-6.1
			c10.6-15.1,37.9-56.5,47.5-72.2c4.5-7.2,13.7-25.6,13.7-27.3c0-0.4-1-0.5-2.2-0.2c-8.7,2.1-203.8,1.3-218.1-0.9l-3.7-0.6l2,5.4
			c6,15.2,31.3,55.2,60.2,95.2c5.9,8.3,10.6,15.1,10.4,15.4c-0.5,0.4-21.9-4.3-31.1-6.9c-7.4-2.1-10.7-3.4-19.4-7.7
			c-7.5-3.7-26.9-23.1-34.3-34.3c-14.4-21.7-28-53.9-32.3-76.5c-1.8-9.5-1.4-10.1,8.9-14.1c7.6-3,14.6-9,20.3-17.5
			c1.6-2.4,3.2-4.2,3.7-4c0.4,0.2,1.3-0.3,1.9-1.2c2-2.6,31.7-9.3,51.2-11.5c20-2.4,50.7-3.3,84-2.7c53,0.9,75.9,3.7,103.3,12.7
			c5.7,1.9,6.9,2.8,11,8.2c8.6,11.2,10.1,12.5,19.7,17.1c8.9,4.2,13.6,8.4,10.6,9.4c-0.6,0.2-1.1,1.8-1.1,3.5
			c-0.1,14-19.3,60.8-32.7,79.4c-6.9,9.6-16.4,19.7-24.5,26c-9.9,7.6-22.2,12.2-51.1,19.4c-6.4,1.6-9.3,2.8-10.6,4.5
			c-1,1.3-2.2,2.4-2.6,2.4C594.1,184,594,181.3,594.2,178L594.2,178z M519,174.7c-4.5-6.7-4.5-6.7-2.1-6.7c1.2,0,2.1,0.5,2.1,1
			c0,0.6,0.9,1.9,2,3s2,3.3,2,5s-0.1,3-0.2,3C522.6,180,520.9,177.6,519,174.7z M564.5,222c-0.3-0.5,0.2-1,1.2-1.1
			c2-0.1-0.9-1.1-6.2-2.2l-3-0.6l3,1.4c2.7,1.2,2.8,1.4,1.1,2.1c-2.5,1-22.7-5.6-23.3-7.6c-2.6-8.3-14.5-33.9-18.5-39.7
			c-1.5-2.3-2.8-4.6-2.8-5.1c0-1.4,33-2.1,55.5-1.1c11,0.4,22.6,0.8,25.8,0.8c3.1,0.1,5.7,0.5,5.7,1.1c0,0.5-1.4,2.3-3,4
			c-1.7,1.7-2.8,3.5-2.5,4c0.3,0.4-2.4,6.8-5.9,14.2c-3.4,7.3-7.1,15.2-8.1,17.6c-1.1,2.3-2.3,4.2-2.9,4.2c-0.5,0-0.6,0.3-0.3,0.6
			c1.3,1.4-1.6,4.6-6,6.5C569.4,223.2,565.5,223.6,564.5,222L564.5,222z M546.6,214.4c-3.9-1.3-7.5-2.4-8-2.3
			c-1.5,0.1,11.6,4.7,13.4,4.7C552.8,216.8,550.4,215.8,546.6,214.4z M554.1,261.8c-1.2-3.1-0.6-3.4,2.3-1.4
			c1.4,0.9,3.1,1.6,3.8,1.6s-0.7-1-3-2.3c-4.1-2.2-4.5-2.8-7.8-12.2c-1.8-5.5-3.4-10.3-3.4-10.7s0.8-0.9,1.8-1.1
			c0.9-0.2,0.2-0.2-1.5,0c-2.3,0.3-3.3,0-3.3-0.9c0-1.3,13.1-5.6,20.3-6.5c5.1-0.7,12.7,2.2,12.7,4.8c0,1-0.5,1.6-1.2,1.4
			c-0.9-0.3-2.9,4.4-6.2,14.5l-5,15h-4.3C555.7,264,554.8,263.6,554.1,261.8L554.1,261.8z M557.7,233.4c3-0.9,5.3-1.8,5-2
			c-0.2-0.2-3,0.4-6.3,1.5C549.2,235.2,550.1,235.6,557.7,233.4z M542.5,228.5c2.6-0.9,3.2-1.4,1.8-1.4c-1.4-0.1-2.4-1.1-3.2-3.3
			c-0.6-1.7-0.9-3.3-0.6-3.6c0.3-0.3,3,0,6,0.7c4.6,1,5.5,1.6,5.5,3.4c-0.1,4.2-2.3,5.7-8.1,5.6l-5.4-0.1L542.5,228.5L542.5,228.5z
			 M550.5,226.1c0.6-1.1-3.3-2.6-4.2-1.7c-0.4,0.3,0.2,0.6,1.3,0.6c1.6,0,1.7,0.2,0.4,1s-1.3,1,0.2,1
			C549.1,227,550.1,226.6,550.5,226.1L550.5,226.1z"/>
	</g>
	<g id="Secondary">
		<path class="st2" d="M78.5,1263.9c-33.5-1-62.7-2.7-69-3.9c-7.7-1.6-8-2.1-8-16.8c0-14.3-0.8-13.1,8.5-11.8
			c2.5,0.4,7.4,0.9,11,1.1c3.6,0.3,7.4,0.8,8.5,1c1.4,0.4,1.3,0.2-0.5-0.8c-1.4-0.8-6.3-1.8-11-2.2c-4.7-0.4-9.4-0.9-10.5-1
			c-1.1-0.2-2.8-0.4-3.7-0.4c-1.4-0.1-1.8-1-1.8-3.6c0-1.9,0.1-3.5,0.3-3.5c0.1,0,3.9,0.6,8.5,1.4c5.9,0.9,8.2,1,7.9,0.2
			c-0.2-0.6-1.7-1.2-3.3-1.2c-1.6-0.1-3.7-0.5-4.6-0.9c-1-0.4-2.5-0.5-3.3-0.2c-0.8,0.4-1.7,0.2-2-0.4c-0.4-0.5-1-0.7-1.5-0.4
			c-1.3,0.8-2.4-4.1-1.5-6.2c0.5-1,1.1-49.3,1.6-107.3c0.4-58,1.3-119.4,1.9-136.5c0.6-17,1.1-39.9,1.1-50.7
			C7,901.6,7.1,900,8.8,900c0.9,0,6.4,0.9,12.2,2.1c17.6,3.4,48,7.7,77.5,10.9c51.6,5.6,60.5,6.2,92,6.5c11.6,0.2,21.9,0.3,22.9,0.4
			c2.9,0.1,0.7,1.9-2.9,2.4l-3,0.4l3.3,0.2c1.7,0,3.2,0.6,3.2,1.1c0,0.6-0.4,1-1,1c-0.5,0-1,0.5-1,1.1c0,0.5,0.5,0.7,1,0.4
			c0.6-0.3,1,0.5,1,1.9s-0.4,2.8-1,3.1c-0.5,0.3-1,1.8-1,3.1c0,1.4-0.9,6-1.9,10.2c-1.1,4.3-2.5,14.7-3.1,23.2
			c-1.9,26.7-3.5,35.5-13.8,76.5c-12,47.4-23.6,103.2-31.1,149c-1,6.6-2.2,17.6-2.6,24.5l-0.8,12.5l-4.5,0.1c-2.6,0.1-4.8,0.7-5,1.2
			c-0.2,0.7-1.6,0.9-3.3,0.5c-2.8-0.5-4.1,0.9-1.9,2.2c0.6,0.3,1,0.2,1-0.2c0-0.5,1.9-1,4.3-1.1c2.3-0.1,5.6-0.4,7.2-0.5l3-0.2
			l0.3,11.2c0.3,14.5-0.6,16.6-8,18.3c-5.8,1.2-31.7,3-41.3,2.8C107.2,1264.7,92.8,1264.3,78.5,1263.9L78.5,1263.9z M109.1,1234.5
			c0.1-1.7-1.8-1.7-2.5,0c-0.4,1.1-0.1,1.5,1,1.3C108.4,1235.6,109.1,1235.1,109.1,1234.5z M71,1233.5c-2.5-1.3-25.5-2-27.3-0.8
			c-1.5,1,6.2,1.8,19.2,1.9C71.5,1234.7,72.9,1234.5,71,1233.5z M82,1234c0-0.5-0.7-1-1.5-1s-1.5,0.5-1.5,1c0,0.6,0.7,1,1.5,1
			S82,1234.6,82,1234z M140.8,1233.9c-1.8-1.2-7.8-1.1-7.8,0c0,0.5,2,0.9,4.6,0.9C140.4,1234.7,141.6,1234.4,140.8,1233.9z
			 M92,1226.8c0-1.8-15.2-2.1-16.8-0.2c-0.4,0.4,0.2,0.5,1.4,0.2c1.2-0.3,3.9-0.2,6,0.2C87.2,1227.8,92,1227.8,92,1226.8z M134,1227
			c2.3-0.7,2.4-0.8,0.6-1.5c-1.3-0.6-2.1-0.4-2.4,0.4c-0.3,1-0.6,1-1.2,0.2c-0.3-0.7-1.4-0.9-2.4-0.5c-1.4,0.5-1.5,0.9-0.4,1.5
			C129.7,1228.1,130.6,1228.1,134,1227L134,1227z M73,1226c0-1.3-4.1-3-5.4-2.3c-0.4,0.3-6.4,0.6-13.1,0.7
			c-6.8,0.1-12.6,0.4-12.9,0.6c-0.3,0.3,6.1,0.7,14.1,0.8c8.1,0.1,14.9,0.5,15.2,0.7C71.7,1227.4,73,1227,73,1226L73,1226z
			 M149.3,1225.4c5.3-1,8.5-2,8-2.5c-1.2-1.2-15.4,1.1-17.1,2.8C138.5,1227.3,138.7,1227.3,149.3,1225.4z M39.9,1225.6
			c-0.2-0.2-1.8-0.8-3.6-1.4c-2.4-0.8-3.1-0.8-2.7,0.1c0.2,0.7,1.8,1.3,3.6,1.4C38.9,1225.8,40.1,1225.8,39.9,1225.6z M30,1223.8
			c0-1-6.7-1.1-7.3,0c-0.3,0.4,1.3,0.7,3.4,0.8C28.2,1224.6,30,1224.3,30,1223.8z M178,927.8c0-0.4-1.6-0.8-3.5-0.8
			s-3.5,0.4-3.5,0.9s1.6,0.9,3.5,0.8C176.4,928.6,178,928.2,178,927.8z M181,928c0-0.5,0.9-1,2-1s2,0.4,2,0.9c0,0.4,2.4,0.8,5.4,0.8
			c4.4-0.1,5.1-0.3,4.1-1.4c-1.4-1.3-11-1.8-13.9-0.7c-1.8,0.7-2.2,2.4-0.6,2.4C180.6,929,181,928.6,181,928z M203,927.7
			c0,0.7,1.2,0.9,3.3,0.6c4-0.6,5.6-2,3.3-2.9c-1-0.4-2.1-0.2-2.5,0.5c-0.5,0.8-1.5,0.9-3.1,0.3c-2.7-1-7-0.4-7,1
			c0,0.5,0.9,0.6,2,0.3c1.3-0.4,2-0.2,2,0.7c0,1,0.3,0.9,1-0.2C202.5,927.1,203,927,203,927.7L203,927.7z M154.3,926.5
			c0.4-0.6,1-0.5,1.7,0.5s1.2,1.2,1.8,0.4c0.4-0.6,1.4-1.4,2.2-1.7c2.1-0.8-3.6-0.8-10.9-0.1c-3.4,0.4-5.7,1-5.1,1.4
			C145.7,928.1,153.4,927.7,154.3,926.5L154.3,926.5z M165.4,927.3c-0.5-0.5-1.1-1.1-1.4-1.4c-0.3-0.4-1.1-0.1-1.8,0.7
			c-1.1,1.2-0.8,1.4,1.4,1.4C165.1,928,165.9,927.7,165.4,927.3z M128.5,926c0.4-0.6-0.9-1-3.2-0.9c-3.4,0.1-3.5,0.2-1.3,0.9
			C127.5,927.1,127.8,927.1,128.5,926z M136,925.8c0-0.4,0.7-0.8,1.5-0.8s1.5,0.5,1.5,1c0,0.6,0.7,1,1.6,1c1.4,0,1.4-0.2,0-1.5
			c-1.5-1.5-6.2-2-9-0.9c-2.6,1-1.8,2.3,1.4,2.2C134.7,926.7,136,926.3,136,925.8z M104.7,924.7c0.3-0.4-3.2-0.6-7.8-0.6
			c-5.6,0.1-7.2,0.4-4.9,0.8C96.4,925.7,103.8,925.5,104.7,924.7z M110.8,924.5c1.1,1.7,7.5,1.9,7,0.3c-0.3-0.8-2.5-1.4-6.1-1.6
			c-4.6-0.2-5.7,0-5.7,1.3s0.3,1.3,2,0.3C109.4,923.9,110.3,923.8,110.8,924.5z M87.3,923.3c-0.4-1.1-1.9-1.3-6.7-0.9
			c-3.3,0.3-9,0.6-12.6,0.7c-9.6,0.3-2.2,1.4,10.2,1.6C86.4,924.8,87.8,924.6,87.3,923.3L87.3,923.3z M50,922.8c0-0.9,0.2-1,0.8-0.2
			c0.4,0.7,2.6,1.2,5,1.2c3.7,0.1,4-0.1,2.8-1.4c-1.1-1-2.9-1.3-6.3-1c-2.6,0.2-6.1,0.5-7.8,0.6l-3,0.2l3,0.8
			C49,924.2,50,924.1,50,922.8L50,922.8z M41,921.3c0-1.2-1.3-1.3-7.5-0.8c-4.1,0.3-7.5,0.2-7.5-0.2c0-0.5-1.6-0.7-3.5-0.5
			s-3.5,0-3.5-0.6c0-0.5-1.1-0.7-2.5-0.4c-1.4,0.2-2.5,0-2.5-0.6s-1-0.8-2.1-0.5c-1.6,0.5-1.8,0.8-0.8,1.3
			c2.3,1.3,16.5,3.3,19.8,2.8c1.7-0.3,3.1-0.1,3.1,0.3c0,0.4,1.6,0.7,3.5,0.7C39.9,922.8,41,922.3,41,921.3z"/>
		<path class="st2" d="M994.5,1263.4c-11.8-0.7-26.1-2.6-29-4c-5.5-2.5-7-6.5-6.9-17.9c0.1-20.1,0.2-20.7,2.2-19.7
			c3.1,1.7,7.2,2.3,7.2,1.2c0-0.6-0.4-0.9-0.9-0.5c-0.5,0.3-1.3,0-1.6-0.6c-0.4-0.5-1.3-0.8-2.1-0.5s-1.4,0.1-1.4-0.4
			c0-0.6-0.5-0.9-1.2-0.7c-1.3,0.2-2.7-5.9-7.2-30.3c-7.8-42.9-10.3-56.6-19-100.5c-11.6-58.2-11.7-58.8-17.2-79.7
			c-7.1-26.4-7.6-30.6-8-56.9c-0.2-13-0.7-25.1-1.1-26.9c-0.6-3-0.5-3.2,1.5-2.1c1.1,0.6,2.4,1.1,2.9,1.1c0.4-0.1-0.5-0.8-2-1.6
			c-2.1-1.1-2.7-2.1-2.4-3.5c0.3-1,0.1-1.9-0.4-1.9s-0.9-0.5-0.9-1.1c0-0.7,3-0.8,9.3-0.4c12.6,0.9,66.1,1.1,82.7,0.3
			c46.4-2.3,84.3-6.4,104.2-11.5c3.7-0.9,7.1-1.3,7.5-0.9c1.3,1.2,0.5,10.9-0.9,11.8c-0.7,0.4-2.5,0.5-4,0.2
			c-1.7-0.3-2.8-0.1-2.8,0.5c0,0.7-1,0.9-2.5,0.5s-2.5-0.2-2.5,0.5c0,0.6-0.9,1.1-2,1.1s-2,0.4-2,0.9s3.3,0.2,7.3-0.6
			c10.5-2.1,10.2-2.1,10,0.7c-0.5,5.7-0.4,8.9,0.7,41c0.6,18.4,1.6,84.4,2.1,146.5c0.6,62.2,1.3,120,1.5,128.5
			c0.3,8.5,0.2,16.5-0.1,17.8c-1.3,5.2-11.8,6.9-50.3,8.2C1023.2,1263.4,1001.3,1263.8,994.5,1263.4L994.5,1263.4z M991,1233.9
			c0-1.1-7-2-9.3-1.2c-2,0.6-1.8,0.8,1.3,1.3C987.4,1234.8,991,1234.7,991,1233.9L991,1233.9z M1002,1233.5c0-0.8-0.7-1.5-1.5-1.5
			s-1.5,0.7-1.5,1.5s0.7,1.5,1.5,1.5S1002,1234.3,1002,1233.5z M1024,1234.1c0-0.5-0.7-1.1-1.5-1.5c-0.9-0.3-1.5,0-1.5,0.9
			c0,0.8,0.7,1.5,1.5,1.5S1024,1234.6,1024,1234.1z M1044.8,1234c1.3,0,2-0.4,1.7-1c-1-1.7-7.2-1.2-7.9,0.6c-0.5,1.3-0.2,1.5,1.6,1
			C1041.5,1234.3,1043.5,1234,1044.8,1234L1044.8,1234z M978.4,1233c-0.5-0.5-3.6-1.5-6.8-2.1s-6.9-1.4-8.2-1.9
			c-1.4-0.6-2.6-0.6-2.9,0c-0.8,1.3,3.1,2.5,11.5,3.6c2.4,0.3,4.7,0.7,4.9,1c0.2,0.2,0.9,0.4,1.5,0.4
			C979.1,1234,979.1,1233.7,978.4,1233z M1055.6,1232.8c-1.1-0.6-2.7-0.6-4.4,0c-2.5,0.9-2.3,1,1.7,1
			C1056.2,1233.8,1056.9,1233.5,1055.6,1232.8L1055.6,1232.8z M1087,1232.6c3-0.1,6.1-0.5,6.8-0.9c0.6-0.5,1.7-0.5,2.2-0.2
			c0.6,0.3,1,0.1,1-0.4c0-1.2-6.2-1.5-7.3-0.4c-0.4,0.3-5.5,0.7-11.4,0.9c-12.7,0.3-18,0.7-18.8,1.6c-0.4,0.4,4.4,0.4,10.7,0.2
			C1076.4,1233.1,1084,1232.8,1087,1232.6L1087,1232.6z M1111.5,1229.5l4-1.3l-4.2-0.1c-2.4-0.1-4.3,0.2-4.3,0.7
			c0,0.4-1.8,0.6-4,0.4c-2.5-0.3-4,0-4,0.7C1099,1231.4,1106.5,1231.2,1111.5,1229.5L1111.5,1229.5z M991.8,1225.8
			c-0.3-0.8-2.6-1.4-6.2-1.5c-3.1-0.1-6.9-0.6-8.4-1.1c-2-0.7-3.1-0.6-4,0.4c-1.1,1.2-0.9,1.4,1,1.5c7.1,0.2,14.1,0.9,14.6,1.4
			C989.9,1227.5,992.2,1227,991.8,1225.8L991.8,1225.8z M1017.5,1226.2c-0.8-0.8-11.2-1-12.5-0.2c-0.6,0.4,2.1,0.7,6,0.7
			C1014.8,1226.7,1017.8,1226.5,1017.5,1226.2z M1027.6,1225.8c-0.9-0.5-2.9-0.5-4.8,0c-3.1,0.9-3.1,0.9,1.5,0.9
			C1027.6,1226.7,1028.7,1226.4,1027.6,1225.8L1027.6,1225.8z M1043.1,1225.7c3.8,0.9,1.8-0.4-2.2-1.5c-4.1-1.1-7.5,0.1-5,1.7
			c0.9,0.6,2.2,0.6,3.1,0.1S1041.8,1225.4,1043.1,1225.7L1043.1,1225.7z M1071.7,1224.8c11.7-0.2,12.8-1,2-1.6
			c-16.5-0.8-23.5-0.5-25.2,1.2c-1.5,1.4-1,1.5,5.7,1C1058.2,1225.1,1066.1,1224.8,1071.7,1224.8z M1089,1223.3
			c0-0.7-0.4-1.3-0.9-1.3s-1.3,0.6-1.9,1.3c-0.8,1-0.6,1.3,0.9,1.3C1088.1,1224.6,1089,1224,1089,1223.3z M1106.5,1222.5
			c2.7-0.4,5.6-1,6.5-1.5c1.3-0.7,1.2-1-0.4-1.6c-1.2-0.5-2.1-0.3-2.4,0.4c-0.2,0.7-0.8,1-1.3,0.6c-1.3-0.7-11.9,1.5-11.9,2.6
			c0,0.4,1,0.7,2.3,0.5C1100.5,1223.3,1103.7,1222.9,1106.5,1222.5L1106.5,1222.5z M923,925.8c0-0.9,0.3-0.8,1,0.2
			c0.5,0.8,1.2,1.1,1.6,0.7c1.1-1.1-0.2-1.9-3.7-2.3c-3.9-0.5-6,0.6-3.3,1.7C921.5,927.3,923,927.1,923,925.8L923,925.8z M929,925.7
			c0,1.4,12.3,0.5,12.9-1c0.2-0.5,0.7-0.3,1.2,0.4c0.4,0.7,1.1,1,1.5,0.6c1-0.9-0.5-2.3-3.2-3.1c-1.4-0.4-2.8-0.1-3.9,1
			c-1.2,1.3-2.7,1.5-6.1,1c-3.7-0.5-4.4-0.3-4.4,1.2s0.2,1.5,1,0.2C928.5,925.2,929,925,929,925.7L929,925.7z M959,923.6
			c0-0.7,0.3-0.7,0.8-0.1c1.3,1.8,3.4,1.6,3-0.2c-0.5-2.5-7.1-2.6-9.2-0.1c-1.4,1.6-1.3,1.7,1.9,1.6
			C957.4,924.7,959,924.2,959,923.6z M1006.4,924.1c8.8-0.1,15.6-0.4,15.3-0.7c-0.9-0.9-44-0.4-45,0.5c-0.4,0.4,2.5,0.6,6.5,0.5
			S997.7,924.2,1006.4,924.1z M1034.2,922.9c-1.9-0.6-3.9-0.6-4.9-0.1c-1.1,0.7-0.1,0.9,3.3,1
			C1037.3,923.8,1037.4,923.7,1034.2,922.9z M1054.5,922.8c2.1-0.9,3.1-0.9,4.7,0.1c1.1,0.7,2.3,1,2.6,0.6c0.4-0.3,0-1-0.8-1.5
			c-2.4-1.5-8-1.5-9,0c-0.3,0.4-1.2,1-2,1.3c-1.2,0.4-1.2,0.6,0.2,0.6C1051.1,924,1053.1,923.5,1054.5,922.8L1054.5,922.8z
			 M1068.9,922.4c0.2-0.2-0.7-0.4-2.2-0.4c-1.4,0-2.8,0.4-3.2,0.9C1063,923.8,1068,923.4,1068.9,922.4L1068.9,922.4z M1087,920.4
			c1.2-1.2,1-1.4-1.8-1.4c-1.8,0-3.2,0.5-3.2,1.1c0,0.8-1.7,1-5.4,0.5c-4.3-0.5-5.5-0.3-6,0.9c-0.5,1.3,0.5,1.5,7.2,0.9
			C1082.3,922.1,1086.1,921.3,1087,920.4L1087,920.4z M928.8,920.3c-1-0.2-2.8-0.2-4,0c-1.3,0.2-0.5,0.4,1.7,0.4
			C928.7,920.8,929.7,920.6,928.8,920.3z M1093,919.5c0-0.8-0.7-1.5-1.5-1.5s-1.5,0.7-1.5,1.5s0.7,1.5,1.5,1.5
			S1093,920.3,1093,919.5z"/>
		<path class="st1" d="M973.5,1236.4c-15.9-2.1-14.5-1.1-14.5-11.1v-8.6l4.3,0.8c10.4,1.7,16.7,2.6,23.2,3.1c3.9,0.3,7.4,1,8,1.5
			c0.5,0.5,1.7,0.9,2.7,0.9c1.3,0,1.8,0.8,1.8,3c0,4.2,2.8,4,3.2-0.2l0.3-3.3l10.9-0.1c5.9-0.1,14.1-0.7,18-1.4
			c5.1-0.8,8.3-0.9,10.8-0.2c2.7,0.7,3.8,0.7,4.1-0.1c0.3-0.9,6.8-1.2,23-1.2h22.7v3.7c0,2.1,0.5,3.8,1,3.8c0.6,0,1-1.8,1-3.9
			c0-3.9,0-3.9,5.3-5.1c2.8-0.6,7.6-1.4,10.5-1.7c4.6-0.5,5.2-0.4,5.3,1.3c0,1,0.2,4.7,0.5,8c0.4,4.1,0.2,6.4-0.6,6.9
			c-2.8,1.7-32.7,4-64.2,4.9l-20.8,0.6v-3.5c0-3.3,0.2-3.5,3.3-3.5c2.3-0.1,2.8-0.3,1.7-0.9c-0.8-0.5-3-0.6-4.7-0.4
			c-3.1,0.5-3.3,0.8-3.3,4.4v3.9l-21.7-0.1C993.2,1237.8,979.1,1237.2,973.5,1236.4L973.5,1236.4z"/>
		<path class="st1" d="M73.5,1238.3c-18.3-0.4-55.9-2.4-63.5-3.4c-7.7-0.9-9.7-1.9-8.5-4c0.5-0.7,0.7-4.3,0.6-8.2l-0.2-7l2.8,0.7
			c11.7,2.9,20.9,3.8,43.3,4.2c18.8,0.4,43.9,1.6,46.8,2.3c0.1,0.1,0.2,1.9,0.2,4c0,3.6-0.3,4-2.7,4.4c-2.6,0.4-2.6,0.4,0.5,0.6
			c3,0.1,3.2,0.3,3.2,3.6v3.5l-6.2-0.2C86.3,1238.7,79,1238.5,73.5,1238.3z"/>
		<path class="st1" d="M98.2,1234.5c0.4-2.8,0.1-4.6-0.6-4.9s-0.6-0.8,0.4-1.5s1.1-1.1,0.3-1.1c-0.7,0-1.3-0.9-1.3-2
			c0-1.8,0.7-2,8-2h8v4c0,2.2,0.5,4,1,4c0.6,0,1-1.5,1-3.4c0-4.1,0-4.1,16.9-5.6c6.3-0.6,13.3-1.5,15.5-2c2.3-0.5,5.8-1,7.9-1h3.7
			v6.4c0,3.5,0.3,7.1,0.6,7.9c0.8,2.3-5.2,3.7-18.3,4.4l-11.3,0.6v-3.7v-3.6h-6h-6v4v4h-10.1H97.7L98.2,1234.5L98.2,1234.5z"/>
		<path class="st1" d="M168,930.1c0-1.1,0.6-2.2,1.3-2.4c1-0.4,1-0.6,0-0.6c-0.8-0.1-1.3-1.6-1.3-4.1v-4h6.5c5.8,0,6.5,0.2,6.5,2
			s0.7,2,8.5,2s8.5-0.2,8.5-2s0.7-2,8.5-2h8.5l-0.6,2.8c-0.4,1.5-1.2,3.3-1.8,4.1c-0.8,1.1-0.8,1.3,0.2,0.7c0.8-0.5,1.2-0.1,1.2,1.3
			c0,1.1-0.5,2.3-1,2.6c-1.8,1.1-17.2,1.5-24.7,0.7c-4-0.5-7.3-0.5-7.3,0c0,0.4-2.9,0.8-6.5,0.8C168.8,932,168,931.8,168,930.1
			L168,930.1z"/>
		<path class="st1" d="M132.5,930.1c-8.2-0.5-10-0.9-10.3-2.3c-0.2-0.9,0.5-1.8,1.5-2.1c1.7-0.4,1.7-0.5,0.1-0.6
			c-1,0-1.8-0.7-1.8-1.5c0-0.9,2-1.6,6.5-2.1c5.5-0.6,6.5-1,6.5-2.6s0.7-1.9,5-1.9c4.9,0,5,0,5,3.1c0,2.8,0.3,3.1,2.3,2.5
			c1.2-0.3,3-0.6,4-0.6s1.7-0.8,1.7-2c0-1.6,0.7-2,3.5-2s3.5,0.4,3.5,2s0.7,2,3.5,2c3.5,0,3.5,0,3.5,4.5v4.5h-4c-2.2,0-4-0.4-4-1
			c0-0.5-0.9-1-2-1s-2,0.5-2,1C155,931,150.3,931,132.5,930.1L132.5,930.1z M151,927c0-0.5-1.2-1-2.7-0.9c-2.5,0-2.6,0.1-0.8,0.9
			C150.2,928.2,151,928.2,151,927z"/>
		<path class="st1" d="M924,929.4c0-0.5-2-0.8-4.5-0.6c-2.8,0.3-4.5,0-4.5-0.7c0-0.6-0.9-1.1-2-1.1c-2.1,0-2.9-2-0.7-2
			c0.6-0.1,0-0.7-1.4-1.5c-2.3-1.3-4.8-7-3.5-8.2c0.2-0.2,2.7-0.1,5.5,0.3c4,0.5,5.1,1,5.1,2.5c0,1,0.5,2.1,1,2.4
			c0.6,0.3,1-0.3,1-1.4c0-2,0.6-2.1,9-2.1c5.3,0,9,0.4,9,1s1,1,2.1,1c1.2,0,4,0.5,6.1,1.2c3.6,1,4.1,1,5-0.6
			c0.9-1.7,2.1-1.8,13.9-1.1c9.2,0.5,12.9,0.4,12.9-0.4c0-0.6,1.8-1.1,4.4-1.1c3.4,0,4.6,0.4,4.9,1.8c0.4,1.6,0.5,1.6,0.6,0
			c0.1-1.5,1.1-1.8,5.6-1.8c4.2,0,5.5,0.3,5.5,1.5c0,0.8,0.9,1.5,2,1.5c1.3,0,2-0.7,2-2c0-1.8,0.7-2,6.9-2c5.8,0,7,0.3,7.4,1.8
			c0.4,1.3,0.5,1.1,0.6-0.5c0.1-2.2,0.5-2.3,7.5-2.3c6.9,0,7.5,0.2,7.9,2.3c0.4,2,0.4,2,0.6-0.3c0.1-2.6,0.2-2.6,13.9-3.9
			c13.7-1.3,45.6-5.9,56.4-8.2c3.2-0.7,6-1,6.3-0.7s0.7,1.8,0.8,3.4c0.2,2.4-0.3,3-3.3,4.1c-2.7,0.9-3,1.2-1.2,1.2
			c1.5,0.1,2.2,0.7,2.2,2c0,1.5-1,2-5,2.6c-2.7,0.4-5,1.1-5,1.7c0,0.5,0.8,0.7,1.8,0.4c4.8-1.3,8.2-1.7,8.2-0.8c0,1.2-2.4,2.2-5,2.2
			c-1,0-2,0.4-2.2,1c-0.4,1.4-23.4,4.1-28.5,3.4c-2.5-0.4-4.3-0.2-4.3,0.3c0,0.6-11.9,1.1-31.2,1.2c-35,0.2-94.2,1.7-106,2.7
			C927.3,930,924,929.9,924,929.4L924,929.4z M923,926c0-0.5-0.7-1-1.5-1s-1.5,0.5-1.5,1c0,0.6,0.7,1,1.5,1S923,926.6,923,926z"/>
		<path class="st1" d="M84,927.9c-4.7-0.4-9.3-0.5-10.3-0.2c-3.1,0.9-10.7-0.7-10.7-2.2c0-0.7,0.8-1.6,1.8-1.8
			c1.6-0.4,1.6-0.5,0-0.6c-1,0-1.8-0.7-1.8-1.5c0-0.9,2.3-1.5,8.3-1.9c11.9-1,18.7-0.8,18.7,0.3c0,0.6,2.8,0.9,6.8,0.8
			c3.7,0,5.2-0.3,3.5-0.5c-3-0.4-3.3-0.7-3.3-3.9c0-3.3,0.1-3.4,4-3.4s4,0.1,4,3.5v3.4l7.8,0.3l7.7,0.3l0.3,4.3l0.3,4.2l-14.3-0.1
			C98.9,928.8,88.7,928.4,84,927.9L84,927.9z M70.5,924c0.3-0.5-0.3-1-1.5-1s-1.8,0.5-1.5,1c0.3,0.6,1,1,1.5,1S70.2,924.6,70.5,924z
			 M77,924c0-0.5-0.9-1-2-1s-2,0.5-2,1c0,0.6,0.9,1,2,1S77,924.6,77,924z M82,924c0-0.5-0.9-1-2-1s-2,0.5-2,1c0,0.6,0.9,1,2,1
			S82,924.6,82,924z"/>
		<path class="st1" d="M35.6,925.8c-7-0.6-11.4-1.4-12.3-2.4c-0.8-0.8-2.5-1.4-3.8-1.4s-4.7-0.5-7.5-1.1c-4.9-1-5-1.2-5-4.6
			c0-4-1.6-4,15.5-0.8c4.4,0.8,11,1.4,14.8,1.5c3.7,0,6.7,0.3,6.7,0.8c0,0.4,3.9,0.5,8.6,0.3l8.5-0.3l-0.3,4.3l-0.3,4.4l-7,0.1
			C49.7,926.7,41.6,926.3,35.6,925.8z M55,923c0-0.5-0.9-1-2-1s-2,0.5-2,1c0,0.6,0.9,1,2,1S55,923.6,55,923z M26.6,921.1
			c-0.3-0.4-2.7-1.1-5.3-1.4c-2.6-0.3-6.4-0.9-8.3-1.3c-1.9-0.4-3.2-0.3-2.7,0.1c0.7,0.8,11.3,3.2,15,3.4
			C26.3,922,26.9,921.6,26.6,921.1z"/>
	</g>
	<g id="Laces">
		<path class="st3" d="M614.2,363.1c-0.7-0.4-1.2-1.2-1.1-1.7c0.1-0.5,0-1.6-0.4-2.4c-0.3-0.8-0.8-19-1.1-40.5
			c-0.3-21.4-1-43.3-1.6-48.5c-0.7-5.2-1.2-21-1.2-35c0-22-0.2-25.7-1.6-27.3c-1.4-1.5-1.4-2.1-0.3-3.9c1.1-1.8,1.1-2-0.3-1.5
			c-1.1,0.5-1.6,0.1-1.6-1.3c0-1.7,0.7-2,3.9-2c2.2,0,4.6,0.7,5.5,1.5c0.8,0.8,1.9,1.5,2.5,1.5c1.3,0,1.3-2.2,1.1,26.5
			c-0.1,13.9,0.6,33,1.5,45.5c0.9,11.8,1.7,35,1.8,51.6c0.2,28.2,0.1,30.3-1.8,34.2C617.5,364,616.5,364.6,614.2,363.1L614.2,363.1z
			 M616.5,205.4c-2.3-1.8-8.3-5-7.3-3.9c0.4,0.4,2.2,1.8,4,3.1C616.8,207.1,619.7,207.9,616.5,205.4L616.5,205.4z"/>
		<path class="st3" d="M502.6,355.9c-1.4-2.8-1.4-7-0.5-36.8c1.2-36.7,0.5-73.4-1.7-99c-0.7-9-1.1-16.7-0.8-17.2
			c0.3-0.5,1.4-0.9,2.5-0.9c1,0,1.9-0.7,1.9-1.5c0-2.1,8.6-2.1,10.6,0c2.2,2.1,1.5,8.9-0.9,9.3c-1.6,0.3-1.7,0.1-0.8-1.6
			c0.6-1.2,1.1-2.5,1.1-3.1c0-1.6-3-4.1-4.9-4.1s-9,5-9.1,6.3c0,0.5,1.8-0.6,4-2.3c4.3-3.4,6.6-3.6,8.4-0.7c0.9,1.5,0.7,2.2-1.1,3.7
			c-2.2,1.8-2.3,2-1.3,13.2c2.7,30.4,2,132.6-0.9,133.6c-0.6,0.2-1.1,1.2-1.1,2.3C508,360.2,504.4,359.4,502.6,355.9L502.6,355.9z"
			/>
		<path class="st3" d="M530.2,287.5c-1.8-4-1.5-9.5,0.4-9.5c1.3,0,1.4,0.3,0.4,1.4c-2,2.5-0.8,6,2.7,7.7s3.4,2.9-0.2,2.9
			C532.1,290,530.9,289,530.2,287.5L530.2,287.5z"/>
		<path class="st3" d="M584.2,287.6c0.7-0.8,1.6-1.2,2-1s1-0.1,1.4-0.7c0.4-0.8,0.3-0.9-0.4-0.5c-1.4,0.9-1.4,0.9-0.3-3.1
			c0.8-2.9,0.7-3.3-2.2-4.7c-2.6-1.2-2.8-1.6-1.5-2.1c4-1.6,5.3-0.2,5.3,5.5c0,7.2-0.3,8-3.1,8C583.3,289,583.1,288.8,584.2,287.6
			L584.2,287.6z"/>
		<path class="st3" d="M532.5,285.8c-1.8-1.1-2-4.5-0.2-6.2c1.6-1.7,28.2-2.9,42.4-2c11.3,0.8,12.4,1.4,10.7,6.2l-0.9,2.6l-25.2,0.1
			C545.4,286.6,533.4,286.2,532.5,285.8z"/>
		<path class="st3" d="M557.5,272.7c-1.8-4.8-4.2-13.7-3.8-13.7c0.3,0,1.8,0.8,3.3,1.7c2.7,1.5,3,1.5,5.6-0.2s2.7-1.7,2,0.1
			c-0.4,1.1-1.5,4.2-2.4,7.1C560.6,272.8,558.4,275.2,557.5,272.7L557.5,272.7z"/>
		<path class="st3" d="M518,248.6c0-1,1.1-1.4,3.5-1.3c1.9,0.1,4.2-0.6,5.3-1.6c2.3-2.1,3.2-2.2,3.2-0.3c0,2.3-4.1,4.6-8.2,4.6
			C519.2,250,518,249.6,518,248.6z"/>
		<path class="st3" d="M589.6,247.4c-0.9-0.8-1.6-2.1-1.6-2.9c0-0.7-0.6-1.5-1.2-1.8c-0.7-0.2-1-0.7-0.7-1.1
			c0.3-0.3,2.3,0.7,4.4,2.4c2.1,1.6,4.4,3,5.2,3s1.1,0.5,0.8,1C595.6,249.5,591.3,249.2,589.6,247.4L589.6,247.4z"/>
		<path class="st3" d="M520.1,244.8c-1.9-5.1,10.7-13.9,24.2-16.9c3.2-0.7,6-1.6,6.3-2c0.4-0.8-5.7-2.9-8.4-2.9c-1.2,0-5.5-8.6-5-10
			c0.2-0.4,6.5,1.3,14.1,3.8l13.8,4.5l6.7-2.7c3.7-1.6,7.3-3,7.9-3.3c0.9-0.3,0.6,1-0.7,3.8c-1.1,2.4-2,5.1-1.9,5.9
			c0,0.9,2.9,2.9,7.2,4.8c10.5,4.8,13.7,8,13.7,13.6c0,3.4-3.3,3.5-6.3,0.2c-1.3-1.4-7.8-4.9-14.6-7.9l-12.2-5.5l-8.7,2.5
			c-12.4,3.5-27.1,9.2-29,11.3c-0.9,1-2.7,2.1-4,2.4C521.5,247,520.8,246.7,520.1,244.8L520.1,244.8z"/>
		<path class="st3" d="M517,242.4c0-2.4,2.7-6.4,4.3-6.4c1.4,0,1.6,0.4,0.8,1.8C520.9,240.1,517,243.6,517,242.4L517,242.4z"/>
		<path class="st3" d="M596.4,236.5c-2.4-2.7-2.7-3.5-1.5-3.5c2.8,0,5.3,2.4,4.9,4.8C599.5,239.9,599.3,239.8,596.4,236.5z"/>
		<path class="st3" d="M605.3,211.2c-2.4-2-3.1-5.6-1.3-6.7c0.6-0.3,1,0.1,1,0.9c0,0.8,0.7,2.2,1.6,3c0.8,0.9,1.4,2.3,1.2,3.2
			C607.5,213,607.2,212.9,605.3,211.2z"/>
	</g>
	<g id="Accent">
		<path class="st3" d="M935,920.8c-0.3-0.3-5.9-0.8-12.5-1.1s-12.8-0.8-13.8-1.2c-1.6-0.7-1.7-2.5-1.5-24.4l0.3-23.6l2.5,0.3
			c10.2,1.1,50.7,1.3,69.7,0.3c53.4-2.8,111.8-10.1,121.6-15.1c6.9-3.6,7.3-3.2,8.1,7.2c0.3,5.1,0.9,17,1.3,26.4l0.6,17.2l-4.9,1.1
			c-17,4.1-54.3,8.7-85.4,10.7c-5.8,0.3-12.1,0.8-14,0.9C1000.6,920.2,935.5,921.3,935,920.8L935,920.8z"/>
		<path class="st3" d="M172.5,922.4c-2.2-0.2-12.3-0.9-22.5-1.5s-24.3-1.7-31.5-2.5c-7.1-0.7-19.7-2.1-28-2.9
			c-17.9-1.8-52.7-6.7-68-9.6c-17.1-3.2-15.5-2.1-15-9.2c0.3-3.4,1-14.7,1.6-25.2c0.6-10.4,1.3-19.2,1.5-19.4s0.9,0.1,1.6,0.7
			c4.9,3.9,90.1,16.9,143.3,21.7c18.7,1.7,52.4,2.4,56.8,1.2l2.7-0.7v22.9c0,14.6-0.4,23.2-1,23.6
			C212.9,922.2,179.2,922.9,172.5,922.4z"/>
		<path class="st3" d="M462.5,1124.4c-22.9-0.5-79.8-2.5-85.5-2.9c-3-0.2-10.4-0.7-16.5-1c-40.1-2.1-108.8-8.8-109.9-10.7
			c-0.1-0.2,0.2-6.8,0.8-14.7l0.9-14.3l5.1,0.6c41.2,5.1,78.2,7.9,148.6,11.1c33.8,1.5,127.7,2.6,173,2.1c77.4-1,120.6-2.2,179-5.2
			c29.4-1.4,71.9-4.8,100.3-8c3.1-0.4,5.7-0.3,5.7,0.2s0.7,7.2,1.5,14.9c0.8,7.6,1.3,14,1.2,14.1c-0.3,0.2-30.4,3.4-47.2,4.9
			c-31.6,2.9-80.7,5.6-134,7.6C658.4,1124.1,491.2,1125.1,462.5,1124.4z"/>
	</g>
	<g id="LacesEyes">
		<path d="M181,928c0-0.5,0.9-1,2-1s2,0.5,2,1c0,0.6-0.9,1-2,1S181,928.6,181,928z"/>
		<path d="M197.5,928c2.7-1.2,3.5-1.2,3.5,0c0,0.6-1.2,1-2.7,0.9C195.8,928.9,195.7,928.8,197.5,928z"/>
		<path d="M158,927c0-0.5,0.7-1,1.5-1s1.5,0.5,1.5,1c0,0.6-0.7,1-1.5,1S158,927.6,158,927z"/>
		<path d="M136,926c0-0.5,0.7-1,1.5-1s1.5,0.5,1.5,1c0,0.6-0.7,1-1.5,1S136,926.6,136,926z"/>
		<path d="M913,925c0-0.5,0.9-1,2-1s2,0.5,2,1c0,0.6-0.9,1-2,1S913,925.6,913,925z"/>
		<path d="M1055,923c0-0.5,0.9-1,2-1s2,0.5,2,1c0,0.6-0.9,1-2,1S1055,923.6,1055,923z"/>
		<path d="M7,918c0-0.5,0.7-1,1.5-1s1.5,0.5,1.5,1c0,0.6-0.7,1-1.5,1S7,918.6,7,918z"/>
		<path d="M613,370.1c0-6.5,0.4-9.2,1.5-10.1c2.7-2.2,3.5,0,3.5,9.6c0,9.4,0,9.4-2.5,9.4S613,378.9,613,370.1z"/>
		<path d="M503.6,373.4c-0.3-0.9-0.6-5.4-0.6-10.1c0-8.2,0.1-8.4,2.3-8.1c2.1,0.3,2.2,0.8,2.5,10.1c0.3,9,0.1,9.7-1.7,9.7
			C505.1,375,503.9,374.3,503.6,373.4L503.6,373.4z"/>
		<path d="M529.8,289c-2.5-1.5-4.1-7.2-2.9-10.3c1.1-2.8,5.7-5.7,8.9-5.7c1.1,0,3,0.9,4.3,2.1l2.4,2l-4.3-0.4
			c-3.5-0.4-4.7-0.1-6.2,1.6c-4.3,4.6-1,9.7,6.3,9.7c2.3,0,3.6,0.4,3.2,1C540.7,290.3,532,290.2,529.8,289L529.8,289z"/>
		<path d="M577.5,289c-0.4-0.6,1-1,3.4-1c2.3,0,4.1-0.5,4.1-1.1c0-0.5,0.4-0.8,0.9-0.5c1.3,0.9,3.3-2.1,2.8-4.1
			c-0.4-1.4-0.5-1.4-0.6,0.4c0,1.2-0.5,2.5-1.1,2.8c-1.2,0.8-1.2,0.7-0.1-3.1c0.8-2.7,0.6-3.3-1.3-4.3c-1.1-0.6-3.9-1.2-6.1-1.4
			l-4-0.3l3.8-1.7c6.5-3,12.7,0.7,12.7,7.5c0,5.5-2.7,7.8-8.9,7.8C580.3,290,577.8,289.6,577.5,289L577.5,289z"/>
		<path d="M531.7,285.3c-0.4-0.3-0.7-1.8-0.6-3.2c0.1-2.6,0.1-2.5,1,0.3C533,285.5,532.8,286.5,531.7,285.3L531.7,285.3z"/>
		<path d="M515.9,248.2c-4.9-4-0.9-13.2,5.7-13.2h2.5l-1.9,2.8c-1.1,1.5-1.9,3-1.8,3.4c0,0.3-0.3,1-0.8,1.5
			c-0.6,0.5-0.6,0.2-0.1-0.7c0.8-1.3,0.7-1.3-0.8-0.1c-1.8,1.4-2.4,3.6-0.7,2.6c0.6-0.3,0.7,0.1,0.4,0.9c-0.4,1.1,0,1.7,1.2,1.8
			c3.7,0.3,5.5-0.2,8.4-2.4c4.1-3,4.9-1.6,1.2,2.2C525.6,250.6,519.6,251.1,515.9,248.2L515.9,248.2z"/>
		<path d="M591.4,248.9c-2.1-1.1-6-6.7-5.2-7.5c0.3-0.2,2.2,0.9,4.3,2.6c4,3.2,7.3,3.8,9.3,1.8s1.4-4.1-2.7-8.6
			c-4.1-4.5-3.4-5.4,2.4-2.7c3.1,1.6,5.5,5,5.5,8.1c0,0.9-1.3,2.9-2.9,4.5C599,250.1,595.3,250.8,591.4,248.9L591.4,248.9z"/>
		<path d="M510,212c0-0.5,0.9-1.9,2-3c1.1-1.1,2-2.6,2-3.4c0-2-2.8-4.6-5-4.6c-1.7,0-7.5,4.1-9.2,6.5c-0.4,0.5-0.8-0.2-0.8-1.6
			c0-4.5,6.2-8.5,11.6-7.4c4.2,0.7,6.9,4.4,6,8C515.6,210.5,510,215.2,510,212L510,212z"/>
		<path d="M605.7,211.9c-0.9-0.6-2.4-2.3-3.2-3.9c-1.8-3.4-0.7-7.3,2.4-8.9c5.4-2.9,14.1,0.5,14.1,5.5v2.4l-4.6-3
			c-3.4-2.1-5.1-2.7-6.7-2.1c-2.7,1-3.3,4.3-1.2,6.5C608.7,210.6,608.1,213.2,605.7,211.9z"/>
	</g>
</g>
<g id="Back">
	<g id="Base_back">
		<path class="st4" d="M511.5,1127.3c-86-0.9-178-6.2-232-13.4c-8.2-1.1-17.2-2.2-19.8-2.6c-2.7-0.3-5.1-1.2-5.4-1.9
			c-0.3-0.7,0.7-15.2,2.1-32.1c3.2-37.3,4.1-53.4,5.7-94c1.3-33,1.3-33.4-3.1-69.3c-2.3-17.9-5.6-54.3-6.5-71
			c-0.4-6.3-0.8-40.5-1-76s-0.8-76.4-1.4-91c-0.6-14.6-1.3-29.8-1.4-33.7c-0.1-4-0.5-7.3-0.9-7.3s-1.2,1.9-1.9,4.3
			C243,650,237,666.1,229,684.5c-4.8,11-10.2,23.5-12,27.7l-3.2,7.8l0.6,25.7c0.4,14.4,0.2,34-0.4,44.3c-0.6,10.2-1.7,34.8-2.4,54.7
			c-0.7,20-1.5,36.5-1.8,36.8c-1.1,1.1-15.7,4.7-24.6,6.1c-31.1,4.7-91.4,3.2-131-3.2c-15.2-2.4-28.1-5.2-36.9-8L9,873.8v-6.7
			c0-3.6,0.5-13.1,1-21.1s1.4-23,2-33.5c1.7-29.7,6.8-98.1,8-107c0.7-4.4,1.6-9.6,2.1-11.5c0.8-3,3.9-21.9,6.9-41
			c2.1-13.6,17.9-105.7,22.9-133.5c12.8-71.4,28.3-140,41.8-185.5c1.4-4.7,3.1-10.5,3.8-13c0.6-2.5,2.9-10.1,5-17
			c6.3-21.2,9.5-33.3,9.5-37.1c0-4.6,2.6-12.1,5-14.7c1-1.1,5.3-8.7,9.6-16.8c10-19.5,15.1-27.7,24.8-40.4
			c14.1-18.4,28.5-31.3,48.5-43.5c12-7.3,39.8-21.2,53.1-26.6c33.2-13.3,59.9-25.5,81.5-37.4c42.3-23.1,52.3-29.2,58.1-35.2
			c2.2-2.4,4.9-4.3,6-4.3s4.2-1.1,7-2.4l4.9-2.4l97.5-1.5c58.1-0.8,108.2-1.1,124-0.7c14.6,0.5,38,0.9,52.1,0.9
			c24,0.1,25.8,0.2,28.2,2.1c1.4,1.1,3.7,2,5.1,2c1.6,0,4.5,1.8,8.3,5.3c10.9,9.8,22.1,16.7,59.3,36.1c17.7,9.3,42,20.6,59,27.6
			c24.6,10.1,30.4,12.6,46.5,20.7c49.2,24.7,72.1,47.2,97,95.7c4.7,9.2,10.1,18.9,11.9,21.7c2.7,3.9,3.6,6.3,4.2,11.6
			c0.4,3.8,3.3,15.4,6.6,25.8c16.9,54.7,18.7,60.9,27.3,95c10.4,41.3,19.8,86,28.4,135c1.1,6.1,3.1,17.5,4.5,25.5
			c4.9,28.2,9.6,55.9,14.6,87c4.6,28,6.7,41.4,11.5,72c0.7,4.7,1.6,12.3,1.9,17s1.7,23.4,3.1,41.5c1.3,18.2,2.9,40.7,3.5,50.1
			c0.5,9.4,2.1,35.2,3.5,57.4c1.4,22.1,2.5,40.4,2.3,40.6c-1.1,1-20.2,5.8-31.7,7.8c-29.7,5.4-57.4,7.6-94.1,7.6
			c-35.8,0-55.9-2.2-72.5-7.8l-8-2.7l-0.7-6.5c-0.6-5.3-1.5-46.1-3.1-144.5c-0.1-4.4-0.1-14.5,0-22.5c0.2-17.9,0-21.9-1.4-24.6
			c-0.7-1.1-1.9-4.9-2.7-8.5c-0.8-3.5-3.6-11.3-6.1-17.4c-9.8-23.4-15.4-38.2-18.6-49.2c-1.3-4.6-2.7-8.3-3.1-8.3
			c-0.7,0-1.3,4.3-2.8,20c-2.1,22.4-3,51.6-3,103c0,55.3-0.7,69.4-5,108c-3.1,28.3-3.3,33.2-1.6,55.5c0.9,11.5,2.1,38,2.6,59
			c1.6,67.3,2.5,84.9,5.6,122.5l0.6,7.5l-11.8,1.8c-34.4,5.1-87,9.5-146.9,12.2c-34.3,1.5-138.3,3.7-161,3.3
			C538.4,1127.6,523.1,1127.4,511.5,1127.3L511.5,1127.3z"/>
	</g>
	<g id="Key_back">
		<path class="st5" d="M497,1387.9c-70.2-3.6-126.8-10-165-18.5c-37.2-8.3-71.1-20.9-91-33.9c-13.9-9-14.5-12.1-7.1-38.5
			c2-7.2,5.9-29,8-45.5c1.7-12.7,4.5-48.3,8.7-107.7c0.3-5.4,1-9.8,1.4-9.8s3.2,0.5,6.1,1c34.9,6.7,102.5,13,170.4,16
			c162.3,7,337.8,0.7,434.8-15.6c3.5-0.6,3.7-0.5,3.7,2c0,1.4,0.7,15.1,1.5,30.4c2.3,41.3,6.3,77.3,12.3,108.7
			c1.4,7.7,2.6,15.7,2.7,17.8c0,2,0.3,3.7,0.7,3.7c1.3,0,4.9,13.6,5.1,19.3c0.2,4.3-0.3,6.2-1.9,8.4c-6.7,9.1-34.1,23.7-62.1,33.2
			c-45.7,15.4-110.4,25.2-191.3,29.1C609.4,1389.1,520.2,1389.1,497,1387.9L497,1387.9z"/>
	</g>
	<g id="Secondary_back">
		<path class="st6" d="M62.5,1272.5c-1.1-0.2-6.9-0.9-13-1.5c-6-0.7-18.6-2.7-28-4.5c-21.4-4.2-20.5-3.3-20.5-20.2
			c0-11.5,0.1-12.5,1.7-11.8c4.6,1.7,39.5,8.2,51.3,9.5c28.8,3.1,57.1,2.7,75.6-1c11-2.2,14.1-3.3,23.1-7.8c2.9-1.4,5.6-2.2,6-1.8
			c0.4,0.4,1,4.9,1.1,10c0.5,12-0.9,15.7-7,18.4c-20.4,9.1-27.3,10.3-60.8,10.7C76.9,1272.7,63.6,1272.7,62.5,1272.5L62.5,1272.5z"
			/>
		<path class="st6" d="M1017.5,1272.4c-1.6-0.2-7.7-0.9-13.5-1.5c-16.7-1.8-45.7-11.8-47.9-16.5c-0.6-1.4-1.1-7.4-1.1-13.4v-10.9
			l3.8,1.6c2,0.8,4.4,2,5.2,2.7c2.4,2,16.7,6.5,27.5,8.7c14.8,3,46,3.7,67.1,1.5c18.8-2,51.6-8.4,53.8-10.6c0.5-0.5,1.6-1,2.3-1
			c1,0,1.3,3,1.3,13c0,11.6-0.2,13.2-2,15c-1.1,1.1-3,2.2-4.2,2.5c-1.3,0.2-7,1.6-12.8,3c-16.2,3.8-32.4,5.6-55.5,6
			C1030,1272.7,1019.2,1272.7,1017.5,1272.4L1017.5,1272.4z"/>
		<path class="st6" d="M73.7,1242.4c-0.2-0.3-13.3-1.5-19.5-1.9c-2.4-0.2-4.6-0.6-4.9-0.9c-0.4-0.3-1.9-0.6-3.5-0.6
			c-2.6,0-27.1-4.5-39-7.1c-4.2-1-4.8-1.4-4.8-3.6c0-1.9,0.4-2.4,1.7-1.9c2,0.8,33.2,7,42.3,8.5c18.3,2.9,54.1,3.9,71.5,2
			c12.1-1.3,29-5.5,33.7-8.5s7.8-3.1,7.8-0.4c0,1.5-0.7,2-2.4,2c-2.5,0-4.8,2-2.4,2.1c4.3,0.1-21.5,6.8-34.7,8.9
			C114.5,1241.8,74.4,1243,73.7,1242.4L73.7,1242.4z"/>
		<path class="st6" d="M1002,1241c-14.9-1.8-39-8.4-39-10.7c0-0.6-1.6-1.5-3.5-1.9c-2.8-0.5-3.5-1.1-3.5-3c0-2.8-0.2-2.8,4.5-0.8
			c2,0.8,4,1.3,4.3,1c1-1.1-3.2-4.7-5-4.3c-1,0.3-1.8,0-1.8-0.6c0-0.7-0.5-0.5-1,0.3c-0.7,1-0.9-2.5-0.8-11
			c0.1-8.3-0.3-15.2-1.4-20.5c-0.9-4.4-3.3-16.8-5.3-27.5c-8.5-45.5-19.8-98.4-26.6-124.6c-3.9-15.2-8.6-44.5-9.8-61.1
			c-0.6-7.6-1.3-15.3-1.7-17c-0.8-4.2,0.2-4.2,9.8-0.4c8.2,3.2,20.9,6.3,34.3,8.3c14.1,2.1,75.9,1.8,94.5-0.5
			c18.8-2.3,35.2-5.2,46.8-8.2c13.6-3.6,13.8-3.6,14.6,2.8c0.7,6.9,1.5,64.1,2.1,164.2c0.3,45.1,0.8,85.2,1.1,89.1l0.6,7l-6.3,1.7
			c-32.4,8.3-50.8,10.7-81.9,10.7c-24,0-43.8-2.8-57.6-8c-3.9-1.5-5.5,1-1.6,2.7c4.9,2.2,15.5,5.1,25.2,6.9c10.6,2,46,2.6,64.5,1.1
			c10.5-0.9,34.9-5.3,47.5-8.7c9.5-2.5,10-2.5,10,0.3c0,2-0.8,2.4-6.2,3.6c-3.5,0.7-8.8,1.8-11.8,2.6c-20.7,5.2-42.6,7.5-68.5,7.4
			C1017.5,1241.8,1005.6,1241.4,1002,1241L1002,1241z"/>
		<path class="st6" d="M70,1233.9c-1.9-0.4-8.7-1.2-15-1.8c-11.5-1.2-50.9-8.6-52.2-9.9c-0.4-0.4-0.3-7.9,0.2-16.7
			c0.5-8.8,1-50,1-91.5c0.1-41.5,0.8-99.6,1.6-129S7,930.8,7,930s-0.2-3.3-0.6-5.4c-0.6-3.5-0.5-3.8,1.1-3.2
			c1.5,0.5,1.6,0.4,0.5-0.9c-1.9-2.3-0.4-3,3.3-1.7c1.9,0.7,4.3,1.2,5.5,1.2c2.2,0,6.2,1.8,7.2,3.2c0.3,0.4,5.3,1.2,11,1.8
			c5.8,0.6,12.3,1.5,14.5,2c2.2,0.6,11.9,1.9,21.5,3c26.8,3.1,89.9,3,107.8-0.1c4.3-0.8,7.2-1.8,7.2-2.5s2.6-2,5.7-2.9
			c3.2-0.9,7.4-2.5,9.5-3.6c2-1,4.7-1.9,5.9-1.9c2.1,0,2.1,0.3,1.5,7.8c-0.4,4.2-1.1,8.8-1.6,10.2s-1.1,12.6-1.4,25
			c-0.6,25.9-1.8,34.6-8,59.5c-2.5,9.9-5.9,25.2-7.6,34c-10.8,56.1-15.3,79.2-17,88c-3.6,18.3-8.8,47.8-11,62
			c-2.8,17.4-2.5,16.5-5.3,16.5c-1.4,0-3,0.7-3.7,1.5c-1.7,2.1-11,5.3-22,7.6c-6.6,1.5-14.8,2.2-27,2.5c-9.6,0.2-20.4,0.6-24,0.7
			C76.4,1234.5,71.9,1234.3,70,1233.9L70,1233.9z"/>
		<path class="st5" d="M1004,1248.3c-15.4-1.5-38.9-7.6-43.9-11.5c-1.3-1-3-1.8-3.9-1.8c-1.1,0-1.3-0.8-0.8-3.7
			c0.3-2.1,0.6-6.2,0.6-9.2v-5.4l4.2,0.7c2.4,0.4,5.2,1.5,6.3,2.6c1.9,1.8,13.9,5.7,24,7.9c9.5,2.1,22,3.1,37,3.1
			c27.2,0,48.7-2.9,77.6-10.5c9.8-2.6,9.6-2.8,10.1,7.3c0.3,4.8,0.2,9-0.1,9.5c-1.7,1.8-35.6,8.4-52.3,10.2
			C1049.6,1248.8,1014.4,1249.4,1004,1248.3L1004,1248.3z"/>
		<path class="st5" d="M74,1248.9c-19.3-1.2-31.1-2.7-49-6.1c-25.5-4.8-24.3-4.4-23.6-8c0.3-1.7,0.6-6,0.6-9.5v-6.5l2.8,0.5
			c50.1,10.7,53.7,11.1,86.7,11.1c23.8,0,28.1-0.3,36.5-2.1c11.2-2.5,20.3-5.8,22-7.8c0.8-0.9,3-1.5,5.7-1.5c3.7,0,4.4,0.3,3.9,1.6
			c-0.3,0.9-0.6,4.8-0.6,8.8v7.3l-4.2,2.1c-14.8,7.1-26,9.1-60.3,10.6C90.1,1249.6,80.9,1249.4,74,1248.9L74,1248.9z"/>
	</g>
	<g id="Collar_back">
		<path class="st6" d="M407.5,44.7c1.1-0.8,4.2-2.2,7-3.3c5.5-2.1,11-7.1,17.4-15.8c5.2-6.9,10.2-9.6,29-15
			c23.3-6.8,40.2-8.6,87.7-9.3c61.3-0.9,87.9,1.9,121.4,13c10.2,3.3,10.9,3.9,19.7,14.9c5,6.3,7.1,7.7,18.8,13l5,2.2l-5,0.4
			c-2.9,0.2-5.1-0.1-5.3-0.7c-0.5-1.4-3.2-1.4-3.2-0.1c0,0.6-5.3,1-14,1c-10.5,0-14-0.3-14-1.2s-0.4-0.8-1,0.2
			c-0.7,1-1.2,1.2-1.7,0.4c-1-1.4-8.3-1.7-8.3-0.4c0,0.6-0.7,1-1.5,1s-1.5-0.4-1.5-1c0-0.5-0.7-1-1.5-1s-1.5,0.4-1.5,0.8
			c0,1.3-39.4,0.2-40.2-1.2c-0.5-0.7-1.1-0.8-1.5-0.1c-0.9,1.2-34.3,1.4-34.3,0.3c0-0.5-0.7-0.8-1.5-0.8s-1.5,0.4-1.5,1
			s-11.1,1-29,1.2c-16,0.2-29,0-29-0.4c0-1.1-2.8-1-3.2,0.1S451,45.8,451,44.8c0-0.5-1.6-0.8-3.5-0.8s-3.5,0.5-3.5,1
			c0,0.6-7.1,1-19.2,1C408.4,46,405.9,45.8,407.5,44.7z"/>
	</g>
	<g id="Accent_back">
		<path class="st3" d="M482.5,1155.9c-87.8-2.2-162-7.6-212.5-15.4c-5.8-0.9-12.2-1.9-14.3-2.2c-2.1-0.3-3.9-0.9-4.2-1.2
			c-0.5-0.8,2.2-29.1,2.8-29.7c0.3-0.3,4.7,0.2,9.8,1c62.5,10,165.8,15.7,284.9,15.9c76.7,0,109.7-0.7,176-3.8
			c48.4-2.3,102.7-7.5,137.1-13c2.6-0.4,2.7-0.4,3.3,7.8c0.4,4.5,0.9,11.4,1.3,15.3c0.5,6.4,0.4,7.2-1.3,7.8
			c-7,2.1-58.5,8.2-93.4,11C691.4,1155.8,580,1158.3,482.5,1155.9L482.5,1155.9z"/>
		<path class="st3" d="M965,971.4c-22.5-2.5-37-5.5-47.5-9.7c-5.9-2.5-6-2.6-7.7-8.4c-1-3.2-1.9-7.6-2-9.8c-0.2-2.2-0.7-4.3-1.1-4.6
			c-1.1-0.8-2.6-13.1-2.7-21.3c0-5.2,0.2-5.7,1.8-5.1c19.7,8.4,41,11.5,79.2,11.5c43,0,87.8-5,113.6-12.6c4.9-1.4,9.7-2.8,10.6-3.1
			c1.5-0.5,1.7,1.5,1.7,25v25.4l-12.7,3.1c-29.8,7.3-49.6,9.4-93.7,9.7C984.7,971.7,966.9,971.6,965,971.4L965,971.4z"/>
		<path class="st3" d="M94.5,935c-15-0.6-42.7-3.4-44.4-4.4c-0.3-0.2-2.8-0.7-5.6-1c-2.7-0.3-9.9-1.7-16-3.2c-6-1.4-12.9-3-15.3-3.6
			c-7.4-1.7-7.5-2.2-6-28.7c0.8-12.7,1.7-23.3,2-23.6c0.3-0.4,4.6,0.7,9.5,2.3c8.1,2.8,25.5,6.6,41.3,9.1c24.5,3.9,69.5,6.3,94.6,5
			s45.5-4.7,53.3-8.8c2.1-1.2,2.1-1.1,2.1,11.6c0,7-0.3,17.2-0.7,22.5l-0.6,9.7l-5.6,2.5c-3.1,1.3-6.9,2.8-8.6,3.2
			c-1.6,0.4-4.1,1.2-5.5,1.9s-8.6,2-16,3c-7.4,0.9-14.8,1.9-16.5,2.2C152,935.6,113.7,935.8,94.5,935z"/>
	</g>
</g>
</svg>
