<?xml version="1.0" encoding="utf-8"?>
<!-- Generator: Adobe Illustrator 24.3.0, SVG Export Plug-In . SVG Version: 6.00 Build 0)  -->
<svg version="1.1" xmlns="http://www.w3.org/2000/svg" xmlns:xlink="http://www.w3.org/1999/xlink" x="0px" y="0px" width="1500px"
	 height="1500px" viewBox="0 0 1500 1500" style="enable-background:new 0 0 1500 1500;" xml:space="preserve">
<style type="text/css">
	.st0{fill:#316823;}
	.st1{fill:#002A51;}
	.st2{fill:#011F42;}
	.st3{fill:#FFFFFF;}
	.st4{fill:#346D21;}
	.st5{fill:#05264B;}
	.st6{fill:#011E41;}
</style>
<g id="Front">
	<g id="Base">
		<path class="st0" d="M519.7,1325.2c-0.4-0.3-0.7-2.2-0.7-4.1v-3.5l18.3,0.7c16.6,0.6,73.3-0.3,118.5-2l18.2-0.7v3.5v3.6l-11.7,0.6
			C621.3,1325.6,521.3,1326.9,519.7,1325.2L519.7,1325.2z"/>
		<path class="st0" d="M482.7,1324.2c-0.4-0.3-0.7-2.1-0.7-3.9v-3.3l6.3-0.4c5.7-0.3,5.6-0.3-2-0.5l-8.3-0.2v-3.7v-3.6l27.2,0.6
			c14.9,0.4,31.6,0.7,37,0.7h9.8v3.5v3.5l-27.7,0.2c-15.3,0.1-23,0.4-17,0.5l10.7,0.4v3.4v3.5h-17.3
			C491.1,1324.9,483,1324.6,482.7,1324.2z"/>
		<path class="st0" d="M453.8,1323.2l-7.8-0.4v-3.4v-3.5h9.8c5.5,0,13.3,0.3,17.5,0.6l7.7,0.7v3.3v3.4l-9.7-0.2
			C465.9,1323.6,458,1323.3,453.8,1323.2z"/>
		<path class="st0" d="M414,1321.3c-10.2-0.6-21.4-1.2-24.9-1.3l-6.3-0.1l0.4-4.5l0.3-4.5l-8,0.2l-8,0.2l7.3,0.3l7.2,0.4v3.4v3.5
			h-7.8c-4.3,0-13.6-0.4-20.8-1c-7.1-0.5-17.3-1.2-22.6-1.5l-9.8-0.7v-3.5v-3.6l15.8,0.5c8.6,0.2,13.8,0.3,11.5,0.1
			c-4.2-0.4-4.3-0.5-4.3-4v-3.6l14.3,0.7c7.8,0.3,18.6,0.9,24,1.3l9.7,0.6v4.4v4.3l6.3-0.2c5.6-0.1,5.7-0.2,1.5-0.5
			c-4.7-0.4-4.8-0.5-4.8-3.9v-3.4h8h8v3.9c0,3.7-0.2,4-3.2,4.4c-1.8,0.2,0.8,0.4,5.7,0.4c5-0.1,6.9-0.2,4.3-0.4
			c-4.8-0.4-4.8-0.4-4.8-4v-3.6l13.8,0.7c7.5,0.3,19.4,0.9,26.5,1.3l12.7,0.6v3.3v3.4h-11.5H443v4v4l-5.2-0.2
			C434.9,1322.7,424.2,1322,414,1321.3L414,1321.3z M438.3,1314.2c-2.4-0.2-6.2-0.2-8.5,0c-2.4,0.2-0.5,0.4,4.2,0.4
			S440.6,1314.4,438.3,1314.2z M363.8,1310.2c-1.5-0.2-4.2-0.2-6,0s-0.6,0.4,2.7,0.4C363.8,1310.6,365.3,1310.4,363.8,1310.2z"/>
		<path class="st0" d="M675,1318.9v-4h-10h-10v-3.5c0-2.1,0.5-3.5,1.3-3.5c2.3,0,38.3-1.9,47-2.5l8.7-0.7v4.1v4.1l8.3-0.1
			c4.5-0.1,7-0.4,5.5-0.6c-2.5-0.4-2.8-0.9-2.8-4.2v-3.8l21.3-1.2c11.6-0.6,23.6-1.5,26.5-1.8l5.2-0.6v4.2v4.1h7.5h7.5v3.5
			c0,3.1-0.3,3.5-2.7,3.5c-1.6,0-7.7,0.4-13.8,1c-6,0.5-19.1,1.4-29,2c-9.9,0.5-28.6,1.7-41.5,2.5
			C671.9,1323.4,675,1323.7,675,1318.9z M691.3,1314.2c-2.3-0.2-6.4-0.2-9,0s-0.7,0.3,4.2,0.3
			C691.5,1314.5,693.6,1314.4,691.3,1314.2z M706.7,1313.2c-2-0.2-5.2-0.2-7,0c-1.7,0.2,0,0.4,3.8,0.4
			C707.4,1313.6,708.8,1313.4,706.7,1313.2z M739.8,1311.2c-1.5-0.2-4.2-0.2-6,0s-0.6,0.4,2.7,0.4S741.3,1311.4,739.8,1311.2z
			 M757.8,1310.2c-1.5-0.2-4.2-0.2-6,0s-0.6,0.4,2.7,0.4S759.3,1310.4,757.8,1310.2z M771.8,1309.2c-1.5-0.2-4.2-0.2-6,0
			s-0.6,0.4,2.7,0.4S773.3,1309.4,771.8,1309.2z"/>
		<path class="st0" d="M570,1313.4v-3.5h15.8c8.6,0,20.1-0.3,25.5-0.7l9.7-0.6v4.1v4.2h-25.5H570V1313.4z"/>
		<path class="st0" d="M624,1312.4v-3.5h10h10v3.5v3.5h-10h-10V1312.4z"/>
		<path class="st0" d="M286,1313.3c-7.4-0.7-13.6-1.3-13.7-1.3c-0.2-0.1-0.3-1.7-0.3-3.7v-3.6l9.8,0.5c5.3,0.2,8.2,0.2,6.5,0
			c-3-0.4-3.3-0.7-3.3-3.9c0-3.3,0.1-3.4,4.3-3.4c2.3,0,11.3,0.5,20,1.2l15.7,1.2v3.9v3.8l-8.2-0.4c-4.6-0.3-6.6-0.2-4.5,0
			c3.5,0.4,3.7,0.6,3.7,3.9v3.4l-8.2-0.1C303.2,1314.7,293.4,1314.1,286,1313.3z M301.8,1306.2c-1.6-0.2-4-0.2-5.5,0
			c-1.6,0.2-0.3,0.4,2.7,0.4S303.3,1306.4,301.8,1306.2z"/>
		<path class="st0" d="M796,1311.5c0-3.3,0.2-3.5,3.8-3.9c2-0.2-1.8-0.1-8.5,0.1l-12.3,0.5v-3.6v-3.5l6.8-0.6
			c12-1.2,34.6-2.6,40.5-2.6h5.7v3.4c0,3.4-0.1,3.5-4.2,3.9c-2.4,0.2,1.4,0.1,8.5-0.1l12.7-0.5v3.5v3.6l-7.2,0.6
			c-13.6,1.2-35.3,2.6-40.5,2.6H796V1311.5z M815.3,1306.2c-1.3-0.2-3.5-0.2-5,0c-1.6,0.2-0.5,0.4,2.2,0.4
			C815.3,1306.6,816.5,1306.4,815.3,1306.2z"/>
		<path class="st0" d="M261,1311.2c-5.4-0.6-27.3-4.4-28-4.8c-0.3-0.2,0-3.8,0.8-7.9c1.5-7.6,1.5-7.6,4.7-7.6c1.7,0,5.4,0.7,8.1,1.5
			c2.7,0.9,9.7,2,15.6,2.5c17.2,1.4,17.8,1.6,17.8,5.6c0,3.4-0.1,3.4-4.5,3.4H271v4C271,1312.3,271,1312.3,261,1311.2z
			 M267.8,1303.2c-1-0.2-2.8-0.2-4,0c-1.3,0.2-0.5,0.4,1.7,0.4C267.7,1303.7,268.7,1303.5,267.8,1303.2z"/>
		<path class="st0" d="M715,1308.4c0-3.3,0.2-3.5,3.5-3.5s3.5,0.2,3.5,3.5s-0.2,3.5-3.5,3.5S715,1311.7,715,1308.4z"/>
		<path class="st0" d="M851,1307.9v-4h-7h-7v-3.5c0-3.4,0.1-3.5,3.8-3.5c5.1,0,30-2.7,38.9-4.2c4-0.6,7.5-1,7.7-0.7
			c0.3,0.3,0.7,2.1,0.8,4c0.2,1.8,0.6,3.6,1,3.9c0.3,0.3,0.9,2.1,1.3,4.1l0.7,3.6l-4.9,0.6c-2.6,0.3-10.4,1.3-17.3,2.1
			C850.5,1312.6,851,1312.7,851,1307.9z M860.8,1303.2c-1-0.2-2.8-0.2-4,0c-1.3,0.2-0.5,0.4,1.7,0.4
			C860.7,1303.7,861.7,1303.5,860.8,1303.2z M880.8,1301.2c-1-0.2-2.6-0.2-3.5,0c-1,0.3-0.2,0.5,1.7,0.5S881.7,1301.5,880.8,1301.2z
			"/>
		<path class="st0" d="M327,1304.4v-3.5h5.5h5.5v3.5v3.5h-5.5H327V1304.4z"/>
		<path class="st0" d="M71,1233.4v-3.5h5.5H82v3.5v3.5h-5.5H71V1233.4z"/>
		<path class="st0" d="M992,1233.4c0-3.3,0.2-3.5,3.5-3.5s3.5,0.2,3.5,3.5s-0.2,3.5-3.5,3.5S992,1236.7,992,1233.4z"/>
		<path class="st0" d="M1035,1233.4c0-3.3,0.2-3.5,3.5-3.5s3.5,0.2,3.5,3.5s-0.2,3.5-3.5,3.5S1035,1236.7,1035,1233.4z"/>
		<path class="st0" d="M29,1232.4v-3.5h6h6v3.5v3.5h-6h-6V1232.4z"/>
		<path class="st0" d="M1050,1232.4c0-3.3,0.2-3.5,3.5-3.5s3.5,0.2,3.5,3.5s-0.2,3.5-3.5,3.5S1050,1235.7,1050,1232.4z"/>
		<path class="st0" d="M1106,1229.4c0-3.3,0.2-3.5,3.5-3.5s3.5,0.2,3.5,3.5s-0.2,3.5-3.5,3.5S1106,1232.7,1106,1229.4z"/>
		<path class="st0" d="M4.4,1230.3c0.3-0.9,0.6-2.4,0.6-3.5c0-1.2,0.7-1.9,2-1.9c1.6,0,2,0.7,2,3.5c0,3.1-0.3,3.5-2.6,3.5
			C4.4,1231.9,3.9,1231.5,4.4,1230.3z"/>
		<path class="st0" d="M93,1226.4v-3.5h6h6v3.5v3.5h-6h-6V1226.4z"/>
		<path class="st0" d="M75,1225.4c0-3.4,0.1-3.5,4-3.5s4,0.1,4,3.5s-0.1,3.5-4,3.5S75,1228.8,75,1225.4z"/>
		<path class="st0" d="M139,1225.4c0-3.4,0.1-3.5,4-3.5s4,0.1,4,3.5s-0.1,3.5-4,3.5S139,1228.8,139,1225.4z"/>
		<path class="st0" d="M996,1225.4v-3.5h21.5h21.5v3.5v3.5h-21.5H996V1225.4z"/>
		<path class="st0" d="M48,1224.4c0-3.3,0.2-3.5,3.5-3.5s3.5,0.2,3.5,3.5s-0.2,3.5-3.5,3.5S48,1227.7,48,1224.4z"/>
		<path class="st0" d="M984,1224.4c0-3.3,0.2-3.5,3.5-3.5s3.5,0.2,3.5,3.5s-0.2,3.5-3.5,3.5S984,1227.7,984,1224.4z"/>
		<path class="st0" d="M1042,1224.4v-3.5h7h7v3.5v3.5h-7h-7V1224.4z"/>
		<path class="st0" d="M22,1223.4c0-3.3,0.2-3.5,3.5-3.5s3.5,0.2,3.5,3.5s-0.2,3.5-3.5,3.5S22,1226.7,22,1223.4z"/>
		<path class="st0" d="M972,1223.4c0-3.3,0.2-3.5,3.5-3.5s3.5,0.2,3.5,3.5s-0.2,3.5-3.5,3.5S972,1226.7,972,1223.4z"/>
		<path class="st0" d="M1075,1223.4v-3.5h8.5h8.5v3.5v3.5h-8.5h-8.5V1223.4z"/>
		<path class="st0" d="M157,1222.4c0-3.1,0.3-3.5,2.5-3.5s2.5,0.4,2.5,3.5s-0.3,3.5-2.5,3.5S157,1225.5,157,1222.4z"/>
		<path class="st0" d="M962,1221.4c0-3.3,0.2-3.5,3.5-3.5s3.5,0.2,3.5,3.5s-0.2,3.5-3.5,3.5S962,1224.7,962,1221.4z"/>
		<path class="st0" d="M1106,1221.5c0-3,0.4-3.4,3.1-4c6.7-1.3,7.9-0.9,7.9,2.8c0,3-0.4,3.4-3.1,4
			C1107.2,1225.6,1106,1225.2,1106,1221.5z"/>
		<path class="st0" d="M481.5,1096.3c-59.3-1-123.9-3.8-164.5-7c-19.8-1.5-52.8-4.9-58.7-6l-3.2-0.6l0.4-5.7c1.4-15.6,2.5-49,3-88.1
			c0.8-57.2,2.7-90.2,6.4-113.6c0.5-3.7-0.1-11.9-2.6-31c-4.4-34.4-5.5-58.4-5.8-128.9c-0.3-60.7-1.1-92.5-2.5-92.5
			c-0.5,0-1.5,3-2.4,6.8c-2,8.6-7.7,26-12.8,38.7c-2.2,5.5-4.9,12.3-6,15c-1.1,2.8-4,10.6-6.4,17.5l-4.4,12.5l-0.5,24
			c-0.4,16.9-1.1,26.4-2.3,32c-1.5,7.1-1.7,13.9-1.4,58.2l0.3,50.2l-4.7,0.7c-16.6,2.5-92.3-4.4-150.4-13.6c-18.9-3-49-8.7-49.8-9.5
			c-0.8-0.7,7.2-116.3,9.8-143c1.8-17.7,2.6-22.7,4-23.5c0.7-0.4,1-1.3,0.6-1.9c-0.7-1,1-15,3.9-33.6c0.8-4.9,3.1-19.6,5-32.5
			c24.4-160.9,39.9-232.1,71.4-328c5-15.1,9.1-28.8,9.1-30.5c0-4.8,1.8-10,4.5-12.9c1.4-1.5,2.5-2.9,2.5-3.1
			c0-1.2,16.1-33.3,20.1-40c18.9-31.9,44.4-54.8,81.6-73.4c15.8-7.9,14.9-7.5,42.5-18.7C321.4,92.7,388,57.4,394.7,47.2
			c1.5-2.3,6.1-5.3,8.2-5.3c0.6,0,0.8,0.8,0.4,1.8c-0.3,1,0.1,0.8,1.2-0.7c2.1-2.8,2.9-1.8,4,4.9c2.9,19.5,18,55.4,32.3,76.9
			c7.4,11.2,26.8,30.6,34.3,34.3c11.5,5.6,20.6,8.5,38.1,12.3c6.7,1.4,7.9,2,9.7,4.8c1.1,1.8,2.1,2.7,2.1,2c0-0.6-0.4-1.5-1-1.8
			c-1.5-1-1.2-2.5,0.6-2.5c2.1,0,3.9,2,4.7,5.2c0.4,1.5,1.4,3.3,2.2,4.2c0.8,0.8,1.5,1.8,1.5,2.3c0,0.4,2.3,6.2,5,12.7
			c3.9,9.2,4.8,12.1,3.8,12.7c-1,0.7-1,0.9,0.2,0.9c2.2,0,5.5,9.1,3.8,10.2c-1,0.5-0.8,0.8,0.5,0.8c0.9,0,1.7,0.7,1.7,1.5
			c0,1.5-2.5,2.1-3.3,0.8c-0.2-0.5-0.2-0.3-0.1,0.4c0.2,0.6-0.2,1.4-0.9,1.7s0,0.3,1.6,0c1.9-0.5,2.7-0.2,2.7,0.8
			c0,0.9-2.8,2.6-7,4.2c-3.8,1.5-7.2,3.2-7.6,3.7c-0.3,0.5-1.9,0.9-3.7,0.9c-2.4,0-2.8-0.3-1.9-1.2c1.9-1.9,1.4-2.8-1.5-2.7
			c-2.2,0-2.4,0.2-1,0.8c1.6,0.6,1.4,1.1-1.7,3.9c-4.5,4.1-4.6,6.9-0.3,8.5c0.9,0.3,1.7,1.1,1.7,1.6s-0.8,1.2-1.7,1.4
			c-1,0.3-0.1,0.5,1.9,0.6c2.6,0.1,4.5-0.7,6.7-2.5c1.7-1.4,3.1-3,3.1-3.4c0-0.5-1.3,0.5-2.9,2.1c-3.1,3-6.1,3.8-6.1,1.6
			c0-1.2,0.7-1.7,6.6-4.7c1.6-0.8,3.6-2.1,4.4-2.9c1.6-1.6,1.8-1.6-3.2,0.4c-1.3,0.5-1.5,0.2-1.1-1.4c0.8-3.1,13.5-7.5,15.7-5.4
			c0.3,0.4-0.6,1.2-2.1,1.9l-2.8,1.1l2.7-0.1c1.6,0,2.8-0.4,2.8-0.8c0-0.5,0.6-0.8,1.3-0.8c1.5,0,4.7,5.5,4.7,8c0,1,0.4,2.1,0.9,2.4
			c0.5,0.3,1.2,2.7,1.6,5.2c0.3,2.6,0.9,5.3,1.2,6.1c0.5,1.3,0.2,1.3-1.5,0.4c-1.2-0.7-2.2-0.8-2.2-0.2c0,0.5,1.1,1.2,2.4,1.5
			c1.7,0.4,2.8,1.8,3.7,4.3l1.2,3.7l1.9-6.5c1-3.5,3.5-11.5,5.5-17.6l3.6-11.3h3.5c5,0,15.2,4.8,15.2,7.2c0,1.5-0.3,1.7-1.9,0.8
			c-4-2.1-3.2-0.9,2,3c6.2,4.7,9.2,5,11.5,1.5c1.7-2.5,1.6-2.7-1.7-6.1c-3.7-3.9-8.6-7.1-6-4.1c2.5,3-3.2,2-11.4-2
			c-6.6-3.3-7.5-4.1-7.5-6.5c0-3.2,2.9-11,3.9-10.4c0.3,0.2,0.7-0.9,0.8-2.5c0.2-3,1.5-6,9.8-23.4c5.5-11.7,6.6-13.1,10.5-13.9
			c4.4-0.9,25.3-6.6,33.5-9.1c8.9-2.7,18.4-7.5,24.1-12c5-3.9,17.5-16.5,19.4-19.4c0.8-1.2,2.5-3.4,3.7-4.7
			c2.8-3,11.8-18.2,12.8-21.5c0.4-1.3,1.3-3.1,2-3.9c1.8-2.3,9.5-20.8,9.5-23c0-1.1,0.4-2,0.9-2s1.4-2.3,2-5.2
			c0.7-2.8,1.6-5.7,2.1-6.3c0.9-1.1,1.9-4.9,3.7-13.8c0.3-1.5,0.8-2.7,1.2-2.7c0.3,0,0.5-2.1,0.3-4.7c-0.3-3.9-0.2-4.6,0.9-3.6
			c0.7,0.7,2.4,1.3,3.7,1.3c1.4,0,4.4,1.9,7.5,4.8c5.4,5,19.3,14.3,30.7,20.4c3.6,1.9,12.6,6.8,20,10.9
			c22.9,12.4,52.5,26.3,75.5,35.4c63.4,25.2,89.7,42.2,114.3,73.9c4.3,5.6,9.8,13.2,12.2,17.1c5.9,9.5,21.1,40.7,20.6,42.2
			c-0.3,0.7,0.1,1,0.9,0.7c2.2-0.9,4.4,3.7,5.4,11.2c1.1,7.6,1.4,8.9,12.9,45.9c11.4,36.8,17.3,58.4,26.2,96
			c13.8,58.5,21.2,98.8,40.5,218.5c1.9,12.4,4.7,29.4,6.1,37.9s2.8,18.4,3.1,22c0.3,3.6,0.9,7.1,1.4,7.6c2.5,3.2,7.5,63.8,10.9,130
			c0.5,11,1.2,23.8,1.6,28.5l0.6,8.6l-4.4,2.1c-10.7,5.4-67.7,12.5-122,15.4c-23.3,1.2-74.1,0.9-75.5-0.5
			c-0.4-0.4-1.1-22.4-1.5-48.9s-1.2-50.9-1.7-54.2c-1-5.8-1.6-17.5-2.5-46.5c-0.5-14.6-1.1-16.6-11.6-39.5
			c-6.5-14.3-13.1-31.6-16.5-43.6c-2-6.8-4.9-15.5-6.4-19.4c-5.3-12.7-6.5-18.9-7.1-37l-0.6-17l-0.2,15c-0.2,16.2,0.7,21.6,5.8,36.5
			c2.3,6.7,3.1,11.5,3.9,23.2c2.2,29.5,0.6,153.2-2.4,192.2c-0.8,10.3-2.6,27.7-4.1,38.5c-6.6,50.1-6.2,44-5.3,82.3
			c1.2,50.1,3.1,86.1,6.5,121.9l0.6,6.7l-3.8,0.6c-26.3,4.1-113.2,9.5-188.9,11.6C637.9,1095.9,512.5,1096.8,481.5,1096.3
			L481.5,1096.3z M263.7,569.2c-0.2-1.6-0.4-0.3-0.4,2.7s0.2,4.3,0.4,2.8C263.9,573.1,263.9,570.7,263.7,569.2z M863.7,554.2
			c-0.2-1.6-0.4-0.5-0.4,2.2c0,2.8,0.2,4,0.4,2.8C863.9,557.9,863.9,555.7,863.7,554.2z M864.7,540.2c-0.2-1.6-0.4-0.5-0.4,2.2
			c0,2.8,0.2,4,0.4,2.8C864.9,543.9,864.9,541.7,864.7,540.2z M865.7,526.2c-0.2-1.6-0.4-0.3-0.4,2.7s0.2,4.3,0.4,2.8
			C865.9,530.1,865.9,527.7,865.7,526.2z M892.7,404.2c-0.3-1-0.5-0.2-0.5,1.7c0,1.9,0.2,2.7,0.5,1.8
			C892.9,406.7,892.9,405.1,892.7,404.2z M615.8,357.9c-1.6-2.5-0.3-3.8,2.3-2.2c1.6,1,2,1,2.5-0.3c0.7-1.7,3.4-2.1,3.4-0.4
			c0,0.6-0.5,2-1.1,3.2c-1,2.1-1,2.1,0.5,0.3c1.2-1.4,1.6-4.1,1.5-9.5c-0.1-4.2-0.3-6.8-0.6-5.8c-0.2,0.9-0.9,1.5-1.4,1.2
			c-0.5-0.4-0.9-6.9-0.9-14.5s0.4-14.1,0.9-14.5c0.5-0.3,1.2,0.3,1.4,1.2c0.3,1,0.5-4.9,0.5-13.2c0-8.2-0.2-14.2-0.5-13.2
			c-0.8,3.2-3.3,1.9-3.3-1.7c0-3.8,1.6-5.7,2.3-2.9c0.3,1,0.5-1.3,0.5-5.2c0-3.8-0.2-6.2-0.5-5.2c-0.8,3.2-3.3,1.9-3.3-1.7
			c0-3.8,1.6-5.7,2.3-2.9c0.3,1,0.5-0.9,0.5-4.2c0-3.3-0.2-5.2-0.5-4.2c-0.8,3.2-3.3,1.9-3.3-1.7c0-3.8,1.6-5.7,2.3-2.9
			c0.3,1,0.5-2,0.5-6.7s-0.2-7.7-0.5-6.7c-0.2,0.9-1.1,1.7-1.9,1.7c-1.1,0-1.4-2-1.4-10s0.3-10,1.4-10c0.8,0,1.7,0.8,1.9,1.8
			c0.3,0.9,0.5-2.7,0.6-8c0-5.3,0.5-10.7,1-12c0.4-1.3,0.5-3.2,0-4.3c-0.6-1.7-0.8-1.7-0.8-0.2c-0.1,2.3-0.8,2.2-4.3-0.8
			c-3.2-2.7-4.9-3-7.9-1.5c-2.3,1.3-2.5,4.3-0.4,6.4c0.8,0.8,1.6,2.5,1.6,3.8c0.2,2.2,0.2,2.2,0.6,0.1c0.3-1.4,0.9-2,1.9-1.6
			c2,0.7,2,11.3,0,11.3c-0.8,0-1.7-0.8-1.9-1.7c-0.3-1-0.5,0.9-0.5,4.2s0.2,5.2,0.5,4.2c1.1-4.2,2.3,0.1,2.3,8.3s-1.2,12.5-2.3,8.3
			c-0.3-1-0.5,1.1-0.5,4.7c0,3.6,0.2,5.7,0.5,4.8c0.2-1,1-1.8,1.7-1.8c1,0,1.5,3.3,2,12.5c0.7,11.9,0.1,17.3-1.4,12.9
			c-0.4-1-0.5,16.6-0.2,39.1c0.4,36.8,0.8,43.5,2.8,43.5C616.8,359.9,616.5,359,615.8,357.9L615.8,357.9z M902.7,352.2
			c-0.2-1.6-0.4-0.5-0.4,2.2c0,2.8,0.2,4,0.4,2.8C902.9,355.9,902.9,353.7,902.7,352.2z M505.2,353.7c-1.7-1.7-1.5-3.8,0.3-3.8
			c0.8,0,1.5,0.5,1.5,1c0,0.6,0.7,1,1.5,1s1.5-0.4,1.5-1c0-1.8,3-1.1,3.1,0.8c0.1,0.9,0.5-0.1,1-2.3c0.8-4.1,1-33.4,0.2-30.2
			c-0.2,0.9-0.9,1.5-1.4,1.2c-0.5-0.4-0.9-5.8-0.9-12.1c0-9.2,0.3-11.4,1.4-11.4c0.8,0,1.7,0.8,1.9,1.8c0.3,0.9,0.5-0.1,0.5-2.3
			c0-2.2-0.2-3.2-0.5-2.2c-0.2,0.9-1.1,1.7-1.9,1.7c-1.2,0-1.4-3.6-1.4-22.2c0-12.3,0.3-25.4,0.8-29.3l0.7-7l0.6,6
			c0.4,4.8,0.6,3.9,0.6-4.5c0-5.8-0.1-9.7-0.4-8.7c-0.8,2.9-3.3,2-3.3-1.2c0-3.4,1.6-5,2.3-2.4c0.3,1,0.5-0.9,0.5-4.2
			s-0.2-5.2-0.5-4.2c-0.2,0.9-1.1,1.7-1.9,1.7c-1.6,0-1.9-6.1-0.4-9.5c0.8-1.8,0.9-1.7,0.9,0.8c0.1,1.6,0.5,2.6,1.1,2.2
			c0.5-0.3,0.7-1.2,0.4-2c-0.3-0.7,0.4-2.3,1.5-3.4c1.2-1.2,2.1-2.7,2.1-3.5c0-2-2.8-4.6-5-4.6c-1.7,0-7.5,4.1-9.2,6.5
			c-0.4,0.6-0.8,0.2-0.8-0.9c0-1.1-0.3-1.7-0.6-1.3c-0.4,0.3-0.3,1.9,0.1,3.4c0.7,2.8,0.7,2.8,1.6,0.5c1.7-4.4,2.7-1.1,3.4,11.2
			c0.7,12,0.1,17.3-1.6,13c-0.4-1.1-0.7,1.2-0.7,5.6c0,4.1,0.2,6.7,0.5,5.8c0.2-1,1.1-1.8,1.9-1.8c1,0,1.4,1.4,1.4,5.5
			s-0.4,5.5-1.4,5.5c-0.8,0-1.7-0.8-1.9-1.7c-0.3-1-0.5,0.2-0.5,2.7c0,2.5,0.2,3.7,0.5,2.8c0.8-3,3.3-2.1,3.3,1.1
			c0,3.4-1.6,5-2.3,2.4c-0.3-1-0.5,7.9-0.5,19.7c0,11.8,0.2,20.7,0.5,19.7c0.7-2.6,2.3-1,2.3,2.4c0,3.2-2.5,4.1-3.3,1.2
			c-0.3-1-0.5,6.8-0.5,17.2c0,10.5,0.2,18.2,0.5,17.2c0.8-3,2.3-0.8,2.3,3.4c0,4.1-2.4,5.7-3.3,2.2c-0.3-1-0.5,0.5-0.6,3.4
			c-0.1,5.7,0.6,8.3,2.2,8.3C506,354.9,506,354.5,505.2,353.7L505.2,353.7z M906.9,335.4c3.4-3.7,6.1-7.6,6.1-8.9
			c0-0.6-1.3,1-2.8,3.5c-1.6,2.4-3.9,5.3-5,6.3c-1.6,1.4-2.2,2.9-2,5.5l0.1,3.6l0.4-3.5C904,339.9,905.3,337.1,906.9,335.4z
			 M915.7,309.7c-0.2-1.3-0.4-0.5-0.4,1.7c-0.1,2.2,0.1,3.2,0.4,2.3C915.9,312.7,915.9,310.9,915.7,309.7z M541.5,289.9
			c1.7-0.7,1.7-0.9,0.3-0.9c-2.8-0.1-2.1-2.1,0.8-2.1c1.7,0,2.3,0.4,1.8,1.3c-0.5,0.7,0,0.6,1.1-0.3c1.7-1.4,1.7-1.5-0.8-1.8
			c-2.4-0.3-2.5-0.5-1.3-1.8c0.8-0.8,3.3-1.4,5.5-1.4c4.2,0,6.4,1.5,3.4,2.3c-1,0.3,4.1,0.5,11.2,0.5c7.2,0,12.2-0.2,11.2-0.5
			c-0.9-0.2-1.5-0.9-1.2-1.4c1-1.4,6.5-1,8.1,0.6c1.4,1.3,1.2,1.5-1.3,1.5h-2.7l2.2,2.2c2.5,2.5,9.3,3.1,11.3,1.1
			c0.9-0.9,0.7-1.1-1-0.6c-2.7,0.7-2.8-1.8-0.1-3.5c2.4-1.5,2.6-4.9,0.3-7.4c-1.3-1.4-3-1.8-8.7-1.6c-6.3,0.1-6.6,0.2-2.6,0.7
			l4.5,0.6l-4.9,0.8c-11.2,1.6-31.3,0.3-23.9-1.6c1-0.3-0.4-0.5-3.1-0.6c-3.1-0.1-5.7-0.7-7-1.8c-2-1.7-2-1.7-0.6,0.1
			c1.4,1.8,1.3,1.9-2.8,1.4c-3.7-0.5-4.6-0.3-6.7,2c-3.1,3.3-3.1,3.7,0,6.8c3.1,3.1,3.2,4.8,0.4,4.1c-1.2-0.3-1.8-0.2-1.3,0.3
			c0.8,0.7,3.6,1.6,5.4,1.8C539.3,290.7,540.4,290.4,541.5,289.9L541.5,289.9z M595.7,279.2c-0.3-1-0.5-0.2-0.5,1.7
			c0,1.9,0.2,2.7,0.5,1.8C595.9,281.7,595.9,280.1,595.7,279.2z M563.2,272.7c1.6-1.3,4.2-8.8,3.3-9.6c-0.2-0.3-0.9,1.6-1.6,4.2
			c-1,4.2-1.8,5.1-4.1,4.7c-0.5,0-0.8,0.4-0.8,0.9C560,274.3,561.3,274.2,563.2,272.7L563.2,272.7z M131.8,250.2
			c-1-0.2-2.6-0.2-3.5,0c-1,0.3-0.2,0.5,1.7,0.5S132.7,250.5,131.8,250.2z M997.8,250.2c-1-0.2-2.8-0.2-4,0
			c-1.3,0.2-0.5,0.4,1.7,0.4C997.7,250.7,998.7,250.5,997.8,250.2z M606,246.4c1.3-1.4,2.2-2.6,1.9-2.8c-0.2-0.1-1.6,1-3.1,2.5
			s-2.3,2.8-1.9,2.8C603.3,248.9,604.7,247.8,606,246.4z M162.5,243.9c1.3-0.5,1.4-0.9,0.5-0.9c-0.8,0-2.4,0.4-3.5,0.9
			c-1.3,0.5-1.4,0.9-0.5,0.9C159.8,244.8,161.4,244.4,162.5,243.9z M177,237.9c3.3-1.7,6-3.3,6-3.5c0-0.5-11.9,5.2-12.9,6.1
			C168.8,241.7,171.7,240.6,177,237.9z M583.9,215.4c0-0.5-0.6,0.1-1.4,1.5c-0.8,1.4-1.4,3-1.4,3.5c0,0.6,0.6-0.1,1.4-1.5
			C583.3,217.5,583.9,216,583.9,215.4z M519.5,207.8c0.9-1.7,1.5-3.4,1.3-3.9s-1.1,0.9-2,3C516.8,211.6,517.3,212.2,519.5,207.8z
			 M719.7,49.2c-0.3-1-0.5-0.2-0.5,1.7s0.2,2.7,0.5,1.8C719.9,51.7,719.9,50.1,719.7,49.2z"/>
		<path class="st0" d="M580.5,287.9c-0.3-0.5,0.3-1,1.4-1c1.2,0,2.1,0.5,2.1,1c0,0.6-0.6,1-1.4,1
			C581.8,288.9,580.8,288.5,580.5,287.9z"/>
		<path class="st0" d="M159.5,929.9c-9.3-0.4-22.3-1.1-28.7-1.5l-11.8-0.7v-3.5v-3.6l18.3,0.7c10,0.4,27.2,1.1,38.1,1.7
			c19.9,0.9,36.2,0.4,37.2-1.3c0.3-0.4,1.4-0.8,2.5-0.8c1.6,0,1.9,0.7,1.9,4s-0.3,4-1.9,4c-1.1,0-2.3,0.5-2.6,1
			C211.8,931,186.7,931,159.5,929.9L159.5,929.9z"/>
		<path class="st0" d="M916,927.4c-4.3-1.1-4.5-1.3-4.8-5.3c-0.4-4.8,0.8-5.3,6.1-2.6c2.7,1.4,5.5,1.6,18.4,1.1l15.3-0.5v3.7v3.8
			l-10.7,0.6C926.6,929.1,921.5,928.9,916,927.4z"/>
		<path class="st0" d="M62.5,926.2c-23.2-1-44.8-3.2-50.7-4.9c-1.3-0.4-1.8-1.6-1.8-4c0-3.3,0.1-3.4,3.8-3.4c2,0,7.4,0.7,11.9,1.5
			c9.2,1.6,31.8,3.1,64.1,4.1l21.2,0.7v3.3v3.4l-21.2-0.2C78.1,926.6,65.8,926.4,62.5,926.2L62.5,926.2z"/>
		<path class="st0" d="M953,923.5c0-3.1,0.3-3.4,3.8-4c2-0.3,9.2-0.6,16-0.6H985v3.4c0,3-0.4,3.4-3.1,4c-1.7,0.3-8.9,0.6-16,0.6H953
			V923.5z"/>
		<path class="st0" d="M986,922.4c0-3.4,0.1-3.5,4-3.5s4,0.1,4,3.5s-0.1,3.5-4,3.5S986,925.8,986,922.4z"/>
		<path class="st0" d="M997,922.4c0-3.3,0.2-3.5,3.5-3.5s3.5,0.2,3.5,3.5s-0.2,3.5-3.5,3.5S997,925.7,997,922.4z"/>
		<path class="st0" d="M1006,922.4v-3.5h12.5h12.5v3.5v3.5h-12.5H1006V922.4z"/>
		<path class="st0" d="M1035,922.4v-3.5h12h12v3.5v3.5h-12h-12V922.4z"/>
		<path class="st0" d="M1060,922.1v-3.9l11.8-0.7c10-0.5,16.8-1.5,39-5.3c2.7-0.5,3.2-0.3,3.2,1.3c0,1.1,0.3,2.9,0.6,4.1
			c0.5,1.9,0,2.2-4.8,3.2c-6.9,1.3-28.7,3.8-40.5,4.6l-9.3,0.7L1060,922.1L1060,922.1z"/>
		<path class="st0" d="M594.8,170.4c-0.3-0.3-17.4-0.6-37.9-0.6l-37.4-0.1L517,167c-1.4-1.5-2-2-1.4-1.2c2.5,3.5,2.5,4.1,0.5,4.1
			c-2.8,0-9.5-9-31.1-41.5c-25.6-38.5-37-58.9-37-66.4v-4.4l7.5,0.7c7.1,0.6,7.5,0.6,7.5-1.4c0-1.6,0.6-2,3.5-2
			c2.8,0,3.5,0.4,3.5,1.9c0,1.8,1.4,1.9,25.3,2.5c13.8,0.4,33.6,0.8,44,0.9l18.7,0.2v-2.2c0-2,0.5-2.3,3.5-2.3
			c3.1,0,3.5,0.3,3.5,2.5v2.5h31h31v-2.5c0-2.5,0.1-2.5,8.5-2.5c7.8,0,8.5,0.2,8.5,2c0,1.1,0.7,2,1.5,2s1.5-0.9,1.5-2
			c0-1.6,0.7-2,3.5-2c2.9,0,3.5,0.4,3.5,2.2c0,2.1,0.2,2.1,11,1.4l11-0.6v4c0,4.4-5.7,17.5-11.6,26.8c-1.9,2.9-3.4,5.5-3.4,5.8
			c0,0.2-0.9,1.7-1.9,3.2s-9,13.5-17.6,26.7s-19.1,28.8-23.2,34.6l-7.4,10.7l-7.8,0.1C598.8,170.9,595.1,170.7,594.8,170.4
			L594.8,170.4z M632.1,133.2c0.8-0.6,2.2-2.5,3.2-4.2"/>
		<path class="st0" d="M487,45.4c0-3.4,0.1-3.5,4-3.5s4,0.1,4,3.5s-0.1,3.5-4,3.5S487,48.8,487,45.4z"/>
		<path class="st0" d="M550,45.4v-3.5h9h9v3.5v3.5h-9h-9V45.4z"/>
	</g>
	<g id="Key">
		<path class="st1" d="M235,1292.7c0-0.6,1.1-7.6,2.4-15.7c6-35.5,10-73.6,13.2-126.1c1.4-23.9,3-43.9,3.4-44.3
			c0.4-0.5,5.4-0.2,11.1,0.7c64.7,9.5,181,14.4,317.9,13.3c118.4-1,212-5.3,271.5-12.7c4.4-0.6,9.6-1,11.6-1h3.6l1.1,10.8
			c1.8,17.2,5,54.1,7.7,90.2c2.8,36.8,4.5,52.1,7.6,70.9c1.1,6.9,1.9,13.5,1.6,14.8c-0.2,1.2,0,2.4,0.4,2.5c0.5,0.2,1.1,1.8,1.5,3.6
			c0.6,2.8,0.4,3.2-1.4,3.2c-1.2,0-2.4,0.5-2.8,1.1c-0.4,0.8,0.3,0.9,2.3,0.5c2.9-0.7,3-0.5,4.8,4.6c0.9,2.9,2,9,2.2,13.5
			c0.5,7.6,0.4,8.2-1.7,9.3c-4.7,2.5-27,5-72,8c-8.5,0.5-25.4,1.7-37.5,2.5c-124.8,8.5-211.1,11-290,8.4l0,0
			c-38.9-1.2-92.3-4-145.5-7.4c-12.4-0.9-29.5-2-38-2.5c-36.2-2.4-73.5-7.1-78.8-9.9c-1.3-0.7-2.4-2.6-2.8-4.7
			c-0.7-3.9,0.9-13.7,3.3-19.7 M234.6,1293.7 M525.5,1321.9c0.3-0.5-0.3-1-1.5-1s-1.8,0.5-1.5,1c0.3,0.6,1,1,1.5,1
			S525.2,1322.5,525.5,1321.9z M532,1321.9c0-0.5-0.9-1-2-1s-2,0.5-2,1c0,0.6,0.9,1,2,1S532,1322.5,532,1321.9z M536,1321.9
			c0-0.5-0.7-1-1.5-1s-1.5,0.5-1.5,1c0,0.6,0.7,1,1.5,1S536,1322.5,536,1321.9z M580,1321.9c0-0.5-0.7-1-1.5-1s-1.5,0.5-1.5,1
			c0,0.6,0.7,1,1.5,1S580,1322.5,580,1321.9z M587,1321.9c0-0.5-0.9-1-2-1s-2,0.5-2,1c0,0.6,0.9,1,2,1S587,1322.5,587,1321.9z
			 M591,1321.9c0-0.5-0.7-1-1.5-1s-1.5,0.5-1.5,1c0,0.6,0.7,1,1.5,1S591,1322.5,591,1321.9z M602.5,1321.9c0.3-0.5-0.3-1-1.5-1
			s-1.8,0.5-1.5,1c0.3,0.6,1,1,1.5,1S602.2,1322.5,602.5,1321.9z M494,1320.9c0-0.5-0.9-1-2-1s-2,0.5-2,1c0,0.6,0.9,1,2,1
			S494,1321.5,494,1320.9z M630,1320.9c0-0.5-0.9-1-2-1s-2,0.5-2,1c0,0.6,0.9,1,2,1S630,1321.5,630,1320.9z M634.5,1320.9
			c0.3-0.5-0.3-1-1.5-1s-1.8,0.5-1.5,1c0.3,0.6,1,1,1.5,1S634.2,1321.5,634.5,1320.9z M468,1319.9c0-0.5-0.9-1-2-1s-2,0.5-2,1
			c0,0.6,0.9,1,2,1S468,1320.5,468,1319.9z M423,1317.9c0-0.5-0.9-1-2-1s-2,0.5-2,1c0,0.6,0.9,1,2,1S423,1318.5,423,1317.9z
			 M389,1315.9c0-0.5-0.7-1-1.5-1s-1.5,0.5-1.5,1c0,0.6,0.7,1,1.5,1S389,1316.5,389,1315.9z M339,1312.9c0-0.5-0.7-1-1.5-1
			s-1.5,0.5-1.5,1c0,0.6,0.7,1,1.5,1S339,1313.5,339,1312.9z M511,1312.9c0-0.5-0.9-1-2-1s-2,0.5-2,1c0,0.6,0.9,1,2,1
			S511,1313.5,511,1312.9z M672,1310.9c0-0.5-0.9-1-2-1s-2,0.5-2,1c0,0.6,0.9,1,2,1S672,1311.5,672,1310.9z M857.5,1307.9
			c0.3-0.5-0.3-1-1.4-1c-1.2,0-2.1,0.5-2.1,1c0,0.6,0.6,1,1.4,1C856.2,1308.9,857.2,1308.5,857.5,1307.9z M376,1306.9
			c0-0.5-0.7-1-1.5-1s-1.5,0.5-1.5,1c0,0.6,0.7,1,1.5,1S376,1307.5,376,1306.9z M359,1305.9c0-0.5-0.9-1-2-1s-2,0.5-2,1
			c0,0.6,0.9,1,2,1S359,1306.5,359,1305.9z M875,1306c0-0.4-1.1-0.6-2.5-0.3c-1.4,0.2-2.5,0.6-2.5,0.8c0,0.2,1.1,0.4,2.5,0.4
			S875,1306.5,875,1306z M805,1302.9c0-0.5-0.7-1-1.5-1s-1.5,0.5-1.5,1c0,0.6,0.7,1,1.5,1S805,1303.5,805,1302.9z M882.8,1297.3
			c1.2-0.4,2.2-1,2.2-1.3c0-1-5.9-0.1-6.6,1C877.8,1298,879.5,1298.1,882.8,1297.3L882.8,1297.3z"/>
	</g>
	<g id="Collar">
		<path class="st1" d="M597.2,176.9l0.4-6h-6.3c-5.8,0-6.3-0.2-6.3-2.1c0-2.1,0.2-2.1,11.8-1.5l11.7,0.7l4.3-6.1
			c10.6-15.1,37.9-56.5,47.5-72.2c4.5-7.2,13.7-25.6,13.7-27.3c0-0.4-1-0.5-2.2-0.2c-8.7,2.1-203.8,1.3-218.1-0.9l-3.7-0.6l2,5.4
			c6,15.2,31.3,55.2,60.2,95.2c5.9,8.3,10.6,15.1,10.4,15.4c-0.5,0.4-21.9-4.3-31.1-6.9c-7.4-2.1-10.7-3.4-19.4-7.7
			c-7.5-3.7-26.9-23.1-34.3-34.3c-14.4-21.7-28-53.9-32.3-76.5c-1.8-9.5-1.4-10.1,8.9-14.1c7.6-3,14.6-9,20.3-17.5
			c1.6-2.4,3.2-4.2,3.7-4c0.4,0.2,1.3-0.3,1.9-1.2c2-2.6,31.7-9.3,51.2-11.5c20-2.4,50.7-3.3,84-2.7c53,0.9,75.9,3.7,103.3,12.7
			c5.7,1.9,6.9,2.8,11,8.2c8.6,11.2,10.1,12.5,19.7,17.1c8.9,4.2,13.6,8.4,10.6,9.4c-0.6,0.2-1.1,1.8-1.1,3.5
			c-0.1,14-19.3,60.8-32.7,79.4c-6.9,9.6-16.4,19.7-24.5,26c-9.9,7.6-22.2,12.2-51.1,19.4c-6.4,1.6-9.3,2.8-10.6,4.5
			c-1,1.3-2.2,2.4-2.6,2.4C597.1,182.9,597,180.2,597.2,176.9L597.2,176.9z M522,173.6c-4.5-6.7-4.5-6.7-2.1-6.7
			c1.2,0,2.1,0.5,2.1,1c0,0.6,0.9,1.9,2,3s2,3.3,2,5s-0.1,3-0.2,3C525.6,178.9,523.9,176.5,522,173.6z M567.5,220.9
			c-0.3-0.5,0.2-1,1.2-1.1c2-0.1-0.9-1.1-6.2-2.2l-3-0.6l3,1.4c2.7,1.2,2.8,1.4,1.1,2.1c-2.5,1-22.7-5.6-23.3-7.6
			c-2.6-8.3-14.5-33.9-18.5-39.7c-1.5-2.3-2.8-4.6-2.8-5.1c0-1.4,33-2.1,55.5-1.1c11,0.4,22.6,0.8,25.8,0.8c3.1,0.1,5.7,0.5,5.7,1.1
			c0,0.5-1.4,2.3-3,4c-1.7,1.7-2.8,3.5-2.5,4c0.3,0.4-2.4,6.8-5.9,14.2c-3.4,7.3-7.1,15.2-8.1,17.6c-1.1,2.3-2.3,4.2-2.9,4.2
			c-0.5,0-0.6,0.3-0.3,0.6c1.3,1.4-1.6,4.6-6,6.5C572.4,222.1,568.5,222.5,567.5,220.9L567.5,220.9z M549.6,213.3
			c-3.9-1.3-7.5-2.4-8-2.3c-1.5,0.1,11.6,4.7,13.4,4.7C555.8,215.7,553.4,214.7,549.6,213.3z M557.1,260.7c-1.2-3.1-0.6-3.4,2.3-1.4
			c1.4,0.9,3.1,1.6,3.8,1.6s-0.7-1-3-2.3c-4.1-2.2-4.5-2.8-7.8-12.2c-1.8-5.5-3.4-10.3-3.4-10.7s0.8-0.9,1.8-1.1
			c0.9-0.2,0.2-0.2-1.5,0c-2.3,0.3-3.3,0-3.3-0.9c0-1.3,13.1-5.6,20.3-6.5c5.1-0.7,12.7,2.2,12.7,4.8c0,1-0.5,1.6-1.2,1.4
			c-0.9-0.3-2.9,4.4-6.2,14.5l-5,15h-4.3C558.7,262.9,557.8,262.5,557.1,260.7L557.1,260.7z M560.7,232.3c3-0.9,5.3-1.8,5-2
			c-0.2-0.2-3,0.4-6.3,1.5C552.2,234.1,553.1,234.5,560.7,232.3z M545.5,227.4c2.6-0.9,3.2-1.4,1.8-1.4c-1.4-0.1-2.4-1.1-3.2-3.3
			c-0.6-1.7-0.9-3.3-0.6-3.6c0.3-0.3,3,0,6,0.7c4.6,1,5.5,1.6,5.5,3.4c-0.1,4.2-2.3,5.7-8.1,5.6l-5.4-0.1L545.5,227.4L545.5,227.4z
			 M553.5,225c0.6-1.1-3.3-2.6-4.2-1.7c-0.4,0.3,0.2,0.6,1.3,0.6c1.6,0,1.7,0.2,0.4,1s-1.3,1,0.2,1
			C552.1,225.9,553.1,225.5,553.5,225L553.5,225z"/>
	</g>
	<g id="Secondary">
		<path class="st2" d="M81.5,1262.8c-33.5-1-62.7-2.7-69-3.9c-7.7-1.6-8-2.1-8-16.8c0-14.3-0.8-13.1,8.5-11.8
			c2.5,0.4,7.4,0.9,11,1.1c3.6,0.3,7.4,0.8,8.5,1c1.4,0.4,1.3,0.2-0.5-0.8c-1.4-0.8-6.3-1.8-11-2.2c-4.7-0.4-9.4-0.9-10.5-1
			c-1.1-0.2-2.8-0.4-3.7-0.4c-1.4-0.1-1.8-1-1.8-3.6c0-1.9,0.1-3.5,0.3-3.5c0.1,0,3.9,0.6,8.5,1.4c5.9,0.9,8.2,1,7.9,0.2
			c-0.2-0.6-1.7-1.2-3.3-1.2c-1.6-0.1-3.7-0.5-4.6-0.9c-1-0.4-2.5-0.5-3.3-0.2c-0.8,0.4-1.7,0.2-2-0.4c-0.4-0.5-1-0.7-1.5-0.4
			c-1.3,0.8-2.4-4.1-1.5-6.2c0.5-1,1.1-49.3,1.6-107.3c0.4-58,1.3-119.4,1.9-136.5c0.6-17,1.1-39.9,1.1-50.7
			c-0.1-18.2,0-19.8,1.7-19.8c0.9,0,6.4,0.9,12.2,2.1c17.6,3.4,48,7.7,77.5,10.9c51.6,5.6,60.5,6.2,92,6.5
			c11.6,0.2,21.9,0.3,22.9,0.4c2.9,0.1,0.7,1.9-2.9,2.4l-3,0.4l3.3,0.2c1.7,0,3.2,0.6,3.2,1.1c0,0.6-0.4,1-1,1c-0.5,0-1,0.5-1,1.1
			c0,0.5,0.5,0.7,1,0.4c0.6-0.3,1,0.5,1,1.9s-0.4,2.8-1,3.1c-0.5,0.3-1,1.8-1,3.1c0,1.4-0.9,6-1.9,10.2c-1.1,4.3-2.5,14.7-3.1,23.2
			c-1.9,26.7-3.5,35.5-13.8,76.5c-12,47.4-23.6,103.2-31.1,149c-1,6.6-2.2,17.6-2.6,24.5l-0.8,12.5l-4.5,0.1c-2.6,0.1-4.8,0.7-5,1.2
			c-0.2,0.7-1.6,0.9-3.3,0.5c-2.8-0.5-4.1,0.9-1.9,2.2c0.6,0.3,1,0.2,1-0.2c0-0.5,1.9-1,4.3-1.1c2.3-0.1,5.6-0.4,7.2-0.5l3-0.2
			l0.3,11.2c0.3,14.5-0.6,16.6-8,18.3c-5.8,1.2-31.7,3-41.3,2.8C110.2,1263.6,95.8,1263.2,81.5,1262.8L81.5,1262.8z M112.1,1233.4
			c0.1-1.7-1.8-1.7-2.5,0c-0.4,1.1-0.1,1.5,1,1.3C111.4,1234.5,112.1,1234,112.1,1233.4z M74,1232.4c-2.5-1.3-25.5-2-27.3-0.8
			c-1.5,1,6.2,1.8,19.2,1.9C74.5,1233.6,75.9,1233.4,74,1232.4z M85,1232.9c0-0.5-0.7-1-1.5-1s-1.5,0.5-1.5,1c0,0.6,0.7,1,1.5,1
			S85,1233.5,85,1232.9z M143.8,1232.8c-1.8-1.2-7.8-1.1-7.8,0c0,0.5,2,0.9,4.6,0.9C143.4,1233.6,144.6,1233.3,143.8,1232.8z
			 M95,1225.7c0-1.8-15.2-2.1-16.8-0.2c-0.4,0.4,0.2,0.5,1.4,0.2c1.2-0.3,3.9-0.2,6,0.2C90.2,1226.7,95,1226.7,95,1225.7z
			 M137,1225.9c2.3-0.7,2.4-0.8,0.6-1.5c-1.3-0.6-2.1-0.4-2.4,0.4c-0.3,1-0.6,1-1.2,0.2c-0.3-0.7-1.4-0.9-2.4-0.5
			c-1.4,0.5-1.5,0.9-0.4,1.5C132.7,1227,133.6,1227,137,1225.9L137,1225.9z M76,1224.9c0-1.3-4.1-3-5.4-2.3
			c-0.4,0.3-6.4,0.6-13.1,0.7c-6.8,0.1-12.6,0.4-12.9,0.6c-0.3,0.3,6.1,0.7,14.1,0.8c8.1,0.1,14.9,0.5,15.2,0.7
			C74.7,1226.3,76,1225.9,76,1224.9L76,1224.9z M152.3,1224.3c5.3-1,8.5-2,8-2.5c-1.2-1.2-15.4,1.1-17.1,2.8
			C141.5,1226.2,141.7,1226.2,152.3,1224.3z M42.9,1224.5c-0.2-0.2-1.8-0.8-3.6-1.4c-2.4-0.8-3.1-0.8-2.7,0.1
			c0.2,0.7,1.8,1.3,3.6,1.4C41.9,1224.7,43.1,1224.7,42.9,1224.5z M33,1222.7c0-1-6.7-1.1-7.3,0c-0.3,0.4,1.3,0.7,3.4,0.8
			C31.2,1223.5,33,1223.2,33,1222.7z M181,926.7c0-0.4-1.6-0.8-3.5-0.8s-3.5,0.4-3.5,0.9s1.6,0.9,3.5,0.8
			C179.4,927.5,181,927.1,181,926.7z M184,926.9c0-0.5,0.9-1,2-1s2,0.4,2,0.9c0,0.4,2.4,0.8,5.4,0.8c4.4-0.1,5.1-0.3,4.1-1.4
			c-1.4-1.3-11-1.8-13.9-0.7c-1.8,0.7-2.2,2.4-0.6,2.4C183.6,927.9,184,927.5,184,926.9z M206,926.6c0,0.7,1.2,0.9,3.3,0.6
			c4-0.6,5.6-2,3.3-2.9c-1-0.4-2.1-0.2-2.5,0.5c-0.5,0.8-1.5,0.9-3.1,0.3c-2.7-1-7-0.4-7,1c0,0.5,0.9,0.6,2,0.3c1.3-0.4,2-0.2,2,0.7
			c0,1,0.3,0.9,1-0.2C205.5,926,206,925.9,206,926.6L206,926.6z M157.3,925.4c0.4-0.6,1-0.5,1.7,0.5s1.2,1.2,1.8,0.4
			c0.4-0.6,1.4-1.4,2.2-1.7c2.1-0.8-3.6-0.8-10.9-0.1c-3.4,0.4-5.7,1-5.1,1.4C148.7,927,156.4,926.6,157.3,925.4L157.3,925.4z
			 M168.4,926.2c-0.5-0.5-1.1-1.1-1.4-1.4c-0.3-0.4-1.1-0.1-1.8,0.7c-1.1,1.2-0.8,1.4,1.4,1.4C168.1,926.9,168.9,926.6,168.4,926.2z
			 M131.5,924.9c0.4-0.6-0.9-1-3.2-0.9c-3.4,0.1-3.5,0.2-1.3,0.9C130.5,926,130.8,926,131.5,924.9z M139,924.7
			c0-0.4,0.7-0.8,1.5-0.8s1.5,0.5,1.5,1c0,0.6,0.7,1,1.6,1c1.4,0,1.4-0.2,0-1.5c-1.5-1.5-6.2-2-9-0.9c-2.6,1-1.8,2.3,1.4,2.2
			C137.7,925.6,139,925.2,139,924.7z M107.7,923.6c0.3-0.4-3.2-0.6-7.8-0.6c-5.6,0.1-7.2,0.4-4.9,0.8
			C99.4,924.6,106.8,924.4,107.7,923.6z M113.8,923.4c1.1,1.7,7.5,1.9,7,0.3c-0.3-0.8-2.5-1.4-6.1-1.6c-4.6-0.2-5.7,0-5.7,1.3
			s0.3,1.3,2,0.3C112.4,922.8,113.3,922.7,113.8,923.4z M90.3,922.2c-0.4-1.1-1.9-1.3-6.7-0.9c-3.3,0.3-9,0.6-12.6,0.7
			c-9.6,0.3-2.2,1.4,10.2,1.6C89.4,923.7,90.8,923.5,90.3,922.2L90.3,922.2z M53,921.7c0-0.9,0.2-1,0.8-0.2c0.4,0.7,2.6,1.2,5,1.2
			c3.7,0.1,4-0.1,2.8-1.4c-1.1-1-2.9-1.3-6.3-1c-2.6,0.2-6.1,0.5-7.8,0.6l-3,0.2l3,0.8C52,923.1,53,923,53,921.7L53,921.7z
			 M44,920.2c0-1.2-1.3-1.3-7.5-0.8c-4.1,0.3-7.5,0.2-7.5-0.2c0-0.5-1.6-0.7-3.5-0.5s-3.5,0-3.5-0.6c0-0.5-1.1-0.7-2.5-0.4
			c-1.4,0.2-2.5,0-2.5-0.6s-1-0.8-2.1-0.5c-1.6,0.5-1.8,0.8-0.8,1.3c2.3,1.3,16.5,3.3,19.8,2.8c1.7-0.3,3.1-0.1,3.1,0.3
			c0,0.4,1.6,0.7,3.5,0.7C42.9,921.7,44,921.2,44,920.2z"/>
		<path class="st2" d="M997.5,1262.3c-11.8-0.7-26.1-2.6-29-4c-5.5-2.5-7-6.5-6.9-17.9c0.1-20.1,0.2-20.7,2.2-19.7
			c3.1,1.7,7.2,2.3,7.2,1.2c0-0.6-0.4-0.9-0.9-0.5c-0.5,0.3-1.3,0-1.6-0.6c-0.4-0.5-1.3-0.8-2.1-0.5s-1.4,0.1-1.4-0.4
			c0-0.6-0.5-0.9-1.2-0.7c-1.3,0.2-2.7-5.9-7.2-30.3c-7.8-42.9-10.3-56.6-19-100.5c-11.6-58.2-11.7-58.8-17.2-79.7
			c-7.1-26.4-7.6-30.6-8-56.9c-0.2-13-0.7-25.1-1.1-26.9c-0.6-3-0.5-3.2,1.5-2.1c1.1,0.6,2.4,1.1,2.9,1.1c0.4-0.1-0.5-0.8-2-1.6
			c-2.1-1.1-2.7-2.1-2.4-3.5c0.3-1,0.1-1.9-0.4-1.9s-0.9-0.5-0.9-1.1c0-0.7,3-0.8,9.3-0.4c12.6,0.9,66.1,1.1,82.7,0.3
			c46.4-2.3,84.3-6.4,104.2-11.5c3.7-0.9,7.1-1.3,7.5-0.9c1.3,1.2,0.5,10.9-0.9,11.8c-0.7,0.4-2.5,0.5-4,0.2
			c-1.7-0.3-2.8-0.1-2.8,0.5c0,0.7-1,0.9-2.5,0.5s-2.5-0.2-2.5,0.5c0,0.6-0.9,1.1-2,1.1s-2,0.4-2,0.9s3.3,0.2,7.3-0.6
			c10.5-2.1,10.2-2.1,10,0.7c-0.5,5.7-0.4,8.9,0.7,41c0.6,18.4,1.6,84.4,2.1,146.5c0.6,62.2,1.3,120,1.5,128.5
			c0.3,8.5,0.2,16.5-0.1,17.8c-1.3,5.2-11.8,6.9-50.3,8.2C1026.2,1262.3,1004.3,1262.7,997.5,1262.3L997.5,1262.3z M994,1232.8
			c0-1.1-7-2-9.3-1.2c-2,0.6-1.8,0.8,1.3,1.3C990.4,1233.7,994,1233.6,994,1232.8L994,1232.8z M1005,1232.4c0-0.8-0.7-1.5-1.5-1.5
			s-1.5,0.7-1.5,1.5s0.7,1.5,1.5,1.5S1005,1233.2,1005,1232.4z M1027,1233c0-0.5-0.7-1.1-1.5-1.5c-0.9-0.3-1.5,0-1.5,0.9
			c0,0.8,0.7,1.5,1.5,1.5C1026.3,1233.9,1027,1233.5,1027,1233z M1047.8,1232.9c1.3,0,2-0.4,1.7-1c-1-1.7-7.2-1.2-7.9,0.6
			c-0.5,1.3-0.2,1.5,1.6,1C1044.5,1233.2,1046.5,1232.9,1047.8,1232.9L1047.8,1232.9z M981.4,1231.9c-0.5-0.5-3.6-1.5-6.8-2.1
			s-6.9-1.4-8.2-1.9c-1.4-0.6-2.6-0.6-2.9,0c-0.8,1.3,3.1,2.5,11.5,3.6c2.4,0.3,4.7,0.7,4.9,1c0.2,0.2,0.9,0.4,1.5,0.4
			C982.1,1232.9,982.1,1232.6,981.4,1231.9z M1058.6,1231.7c-1.1-0.6-2.7-0.6-4.4,0c-2.5,0.9-2.3,1,1.7,1
			C1059.2,1232.7,1059.9,1232.4,1058.6,1231.7L1058.6,1231.7z M1090,1231.5c3-0.1,6.1-0.5,6.8-0.9c0.6-0.5,1.7-0.5,2.2-0.2
			c0.6,0.3,1,0.1,1-0.4c0-1.2-6.2-1.5-7.3-0.4c-0.4,0.3-5.5,0.7-11.4,0.9c-12.7,0.3-18,0.7-18.8,1.6c-0.4,0.4,4.4,0.4,10.7,0.2
			C1079.4,1232,1087,1231.7,1090,1231.5L1090,1231.5z M1114.5,1228.4l4-1.3l-4.2-0.1c-2.4-0.1-4.3,0.2-4.3,0.7c0,0.4-1.8,0.6-4,0.4
			c-2.5-0.3-4,0-4,0.7C1102,1230.3,1109.5,1230.1,1114.5,1228.4L1114.5,1228.4z M994.8,1224.7c-0.3-0.8-2.6-1.4-6.2-1.5
			c-3.1-0.1-6.9-0.6-8.4-1.1c-2-0.7-3.1-0.6-4,0.4c-1.1,1.2-0.9,1.4,1,1.5c7.1,0.2,14.1,0.9,14.6,1.4
			C992.9,1226.4,995.2,1225.9,994.8,1224.7L994.8,1224.7z M1020.5,1225.1c-0.8-0.8-11.2-1-12.5-0.2c-0.6,0.4,2.1,0.7,6,0.7
			C1017.8,1225.6,1020.8,1225.4,1020.5,1225.1z M1030.6,1224.7c-0.9-0.5-2.9-0.5-4.8,0c-3.1,0.9-3.1,0.9,1.5,0.9
			C1030.6,1225.6,1031.7,1225.3,1030.6,1224.7L1030.6,1224.7z M1046.1,1224.6c3.8,0.9,1.8-0.4-2.2-1.5c-4.1-1.1-7.5,0.1-5,1.7
			c0.9,0.6,2.2,0.6,3.1,0.1S1044.8,1224.3,1046.1,1224.6L1046.1,1224.6z M1074.7,1223.7c11.7-0.2,12.8-1,2-1.6
			c-16.5-0.8-23.5-0.5-25.2,1.2c-1.5,1.4-1,1.5,5.7,1C1061.2,1224,1069.1,1223.7,1074.7,1223.7z M1092,1222.2c0-0.7-0.4-1.3-0.9-1.3
			s-1.3,0.6-1.9,1.3c-0.8,1-0.6,1.3,0.9,1.3C1091.1,1223.5,1092,1222.9,1092,1222.2z M1109.5,1221.4c2.7-0.4,5.6-1,6.5-1.5
			c1.3-0.7,1.2-1-0.4-1.6c-1.2-0.5-2.1-0.3-2.4,0.4c-0.2,0.7-0.8,1-1.3,0.6c-1.3-0.7-11.9,1.5-11.9,2.6c0,0.4,1,0.7,2.3,0.5
			C1103.5,1222.2,1106.7,1221.8,1109.5,1221.4L1109.5,1221.4z M926,924.7c0-0.9,0.3-0.8,1,0.2c0.5,0.8,1.2,1.1,1.6,0.7
			c1.1-1.1-0.2-1.9-3.7-2.3c-3.9-0.5-6,0.6-3.3,1.7C924.5,926.2,926,926,926,924.7L926,924.7z M932,924.6c0,1.4,12.3,0.5,12.9-1
			c0.2-0.5,0.7-0.3,1.2,0.4c0.4,0.7,1.1,1,1.5,0.6c1-0.9-0.5-2.3-3.2-3.1c-1.4-0.4-2.8-0.1-3.9,1c-1.2,1.3-2.7,1.5-6.1,1
			c-3.7-0.5-4.4-0.3-4.4,1.2s0.2,1.5,1,0.2C931.5,924.1,932,923.9,932,924.6L932,924.6z M962,922.5c0-0.7,0.3-0.7,0.8-0.1
			c1.3,1.8,3.4,1.6,3-0.2c-0.5-2.5-7.1-2.6-9.2-0.1c-1.4,1.6-1.3,1.7,1.9,1.6C960.4,923.6,962,923.1,962,922.5z M1009.4,923
			c8.8-0.1,15.6-0.4,15.3-0.7c-0.9-0.9-44-0.4-45,0.5c-0.4,0.4,2.5,0.6,6.5,0.5S1000.7,923.1,1009.4,923z M1037.2,921.8
			c-1.9-0.6-3.9-0.6-4.9-0.1c-1.1,0.7-0.1,0.9,3.3,1C1040.3,922.7,1040.4,922.6,1037.2,921.8z M1057.5,921.7
			c2.1-0.9,3.1-0.9,4.7,0.1c1.1,0.7,2.3,1,2.6,0.6c0.4-0.3,0-1-0.8-1.5c-2.4-1.5-8-1.5-9,0c-0.3,0.4-1.2,1-2,1.3
			c-1.2,0.4-1.2,0.6,0.2,0.6C1054.1,922.9,1056.1,922.4,1057.5,921.7L1057.5,921.7z M1071.9,921.3c0.2-0.2-0.7-0.4-2.2-0.4
			c-1.4,0-2.8,0.4-3.2,0.9C1066,922.7,1071,922.3,1071.9,921.3L1071.9,921.3z M1090,919.3c1.2-1.2,1-1.4-1.8-1.4
			c-1.8,0-3.2,0.5-3.2,1.1c0,0.8-1.7,1-5.4,0.5c-4.3-0.5-5.5-0.3-6,0.9c-0.5,1.3,0.5,1.5,7.2,0.9
			C1085.3,921,1089.1,920.2,1090,919.3L1090,919.3z M931.8,919.2c-1-0.2-2.8-0.2-4,0c-1.3,0.2-0.5,0.4,1.7,0.4
			C931.7,919.7,932.7,919.5,931.8,919.2z M1096,918.4c0-0.8-0.7-1.5-1.5-1.5s-1.5,0.7-1.5,1.5s0.7,1.5,1.5,1.5
			S1096,919.2,1096,918.4z"/>
		<path class="st1" d="M976.5,1235.3c-15.9-2.1-14.5-1.1-14.5-11.1v-8.6l4.3,0.8c10.4,1.7,16.7,2.6,23.2,3.1c3.9,0.3,7.4,1,8,1.5
			c0.5,0.5,1.7,0.9,2.7,0.9c1.3,0,1.8,0.8,1.8,3c0,4.2,2.8,4,3.2-0.2l0.3-3.3l10.9-0.1c5.9-0.1,14.1-0.7,18-1.4
			c5.1-0.8,8.3-0.9,10.8-0.2c2.7,0.7,3.8,0.7,4.1-0.1c0.3-0.9,6.8-1.2,23-1.2h22.7v3.7c0,2.1,0.5,3.8,1,3.8c0.6,0,1-1.8,1-3.9
			c0-3.9,0-3.9,5.3-5.1c2.8-0.6,7.6-1.4,10.5-1.7c4.6-0.5,5.2-0.4,5.3,1.3c0,1,0.2,4.7,0.5,8c0.4,4.1,0.2,6.4-0.6,6.9
			c-2.8,1.7-32.7,4-64.2,4.9l-20.8,0.6v-3.5c0-3.3,0.2-3.5,3.3-3.5c2.3-0.1,2.8-0.3,1.7-0.9c-0.8-0.5-3-0.6-4.7-0.4
			c-3.1,0.5-3.3,0.8-3.3,4.4v3.9l-21.7-0.1C996.2,1236.7,982.1,1236.1,976.5,1235.3L976.5,1235.3z"/>
		<path class="st1" d="M76.5,1237.2c-18.3-0.4-55.9-2.4-63.5-3.4c-7.7-0.9-9.7-1.9-8.5-4c0.5-0.7,0.7-4.3,0.6-8.2l-0.2-7l2.8,0.7
			c11.7,2.9,20.9,3.8,43.3,4.2c18.8,0.4,43.9,1.6,46.8,2.3c0.1,0.1,0.2,1.9,0.2,4c0,3.6-0.3,4-2.7,4.4c-2.6,0.4-2.6,0.4,0.5,0.6
			c3,0.1,3.2,0.3,3.2,3.6v3.5l-6.2-0.2C89.3,1237.6,82,1237.4,76.5,1237.2z"/>
		<path class="st1" d="M101.2,1233.4c0.4-2.8,0.1-4.6-0.6-4.9s-0.6-0.8,0.4-1.5s1.1-1.1,0.3-1.1c-0.7,0-1.3-0.9-1.3-2
			c0-1.8,0.7-2,8-2h8v4c0,2.2,0.5,4,1,4c0.6,0,1-1.5,1-3.4c0-4.1,0-4.1,16.9-5.6c6.3-0.6,13.3-1.5,15.5-2c2.3-0.5,5.8-1,7.9-1h3.7
			v6.4c0,3.5,0.3,7.1,0.6,7.9c0.8,2.3-5.2,3.7-18.3,4.4l-11.3,0.6v-3.7v-3.6h-6h-6v4v4h-10.1h-10.2L101.2,1233.4L101.2,1233.4z"/>
		<path class="st1" d="M171,929c0-1.1,0.6-2.2,1.3-2.4c1-0.4,1-0.6,0-0.6c-0.8-0.1-1.3-1.6-1.3-4.1v-4h6.5c5.8,0,6.5,0.2,6.5,2
			s0.7,2,8.5,2s8.5-0.2,8.5-2s0.7-2,8.5-2h8.5l-0.6,2.8c-0.4,1.5-1.2,3.3-1.8,4.1c-0.8,1.1-0.8,1.3,0.2,0.7c0.8-0.5,1.2-0.1,1.2,1.3
			c0,1.1-0.5,2.3-1,2.6c-1.8,1.1-17.2,1.5-24.7,0.7c-4-0.5-7.3-0.5-7.3,0c0,0.4-2.9,0.8-6.5,0.8C171.8,930.9,171,930.7,171,929
			L171,929z"/>
		<path class="st1" d="M135.5,929c-8.2-0.5-10-0.9-10.3-2.3c-0.2-0.9,0.5-1.8,1.5-2.1c1.7-0.4,1.7-0.5,0.1-0.6c-1,0-1.8-0.7-1.8-1.5
			c0-0.9,2-1.6,6.5-2.1c5.5-0.6,6.5-1,6.5-2.6s0.7-1.9,5-1.9c4.9,0,5,0,5,3.1c0,2.8,0.3,3.1,2.3,2.5c1.2-0.3,3-0.6,4-0.6
			s1.7-0.8,1.7-2c0-1.6,0.7-2,3.5-2s3.5,0.4,3.5,2s0.7,2,3.5,2c3.5,0,3.5,0,3.5,4.5v4.5h-4c-2.2,0-4-0.4-4-1c0-0.5-0.9-1-2-1
			s-2,0.5-2,1C158,929.9,153.3,929.9,135.5,929L135.5,929z M154,925.9c0-0.5-1.2-1-2.7-0.9c-2.5,0-2.6,0.1-0.8,0.9
			C153.2,927.1,154,927.1,154,925.9z"/>
		<path class="st1" d="M927,928.3c0-0.5-2-0.8-4.5-0.6c-2.8,0.3-4.5,0-4.5-0.7c0-0.6-0.9-1.1-2-1.1c-2.1,0-2.9-2-0.7-2
			c0.6-0.1,0-0.7-1.4-1.5c-2.3-1.3-4.8-7-3.5-8.2c0.2-0.2,2.7-0.1,5.5,0.3c4,0.5,5.1,1,5.1,2.5c0,1,0.5,2.1,1,2.4
			c0.6,0.3,1-0.3,1-1.4c0-2,0.6-2.1,9-2.1c5.3,0,9,0.4,9,1s1,1,2.1,1c1.2,0,4,0.5,6.1,1.2c3.6,1,4.1,1,5-0.6
			c0.9-1.7,2.1-1.8,13.9-1.1c9.2,0.5,12.9,0.4,12.9-0.4c0-0.6,1.8-1.1,4.4-1.1c3.4,0,4.6,0.4,4.9,1.8c0.4,1.6,0.5,1.6,0.6,0
			c0.1-1.5,1.1-1.8,5.6-1.8c4.2,0,5.5,0.3,5.5,1.5c0,0.8,0.9,1.5,2,1.5c1.3,0,2-0.7,2-2c0-1.8,0.7-2,6.9-2c5.8,0,7,0.3,7.4,1.8
			c0.4,1.3,0.5,1.1,0.6-0.5c0.1-2.2,0.5-2.3,7.5-2.3c6.9,0,7.5,0.2,7.9,2.3c0.4,2,0.4,2,0.6-0.3c0.1-2.6,0.2-2.6,13.9-3.9
			c13.7-1.3,45.6-5.9,56.4-8.2c3.2-0.7,6-1,6.3-0.7s0.7,1.8,0.8,3.4c0.2,2.4-0.3,3-3.3,4.1c-2.7,0.9-3,1.2-1.2,1.2
			c1.5,0.1,2.2,0.7,2.2,2c0,1.5-1,2-5,2.6c-2.7,0.4-5,1.1-5,1.7c0,0.5,0.8,0.7,1.8,0.4c4.8-1.3,8.2-1.7,8.2-0.8c0,1.2-2.4,2.2-5,2.2
			c-1,0-2,0.4-2.2,1c-0.4,1.4-23.4,4.1-28.5,3.4c-2.5-0.4-4.3-0.2-4.3,0.3c0,0.6-11.9,1.1-31.2,1.2c-35,0.2-94.2,1.7-106,2.7
			C930.3,928.9,927,928.8,927,928.3L927,928.3z M926,924.9c0-0.5-0.7-1-1.5-1s-1.5,0.5-1.5,1c0,0.6,0.7,1,1.5,1S926,925.5,926,924.9
			z"/>
		<path class="st1" d="M87,926.8c-4.7-0.4-9.3-0.5-10.3-0.2c-3.1,0.9-10.7-0.7-10.7-2.2c0-0.7,0.8-1.6,1.8-1.8
			c1.6-0.4,1.6-0.5,0-0.6c-1,0-1.8-0.7-1.8-1.5c0-0.9,2.3-1.5,8.3-1.9c11.9-1,18.7-0.8,18.7,0.3c0,0.6,2.8,0.9,6.8,0.8
			c3.7,0,5.2-0.3,3.5-0.5c-3-0.4-3.3-0.7-3.3-3.9c0-3.3,0.1-3.4,4-3.4s4,0.1,4,3.5v3.4l7.8,0.3l7.7,0.3l0.3,4.3l0.3,4.2l-14.3-0.1
			C101.9,927.7,91.7,927.3,87,926.8L87,926.8z M73.5,922.9c0.3-0.5-0.3-1-1.5-1s-1.8,0.5-1.5,1c0.3,0.6,1,1,1.5,1
			S73.2,923.5,73.5,922.9z M80,922.9c0-0.5-0.9-1-2-1s-2,0.5-2,1c0,0.6,0.9,1,2,1S80,923.5,80,922.9z M85,922.9c0-0.5-0.9-1-2-1
			s-2,0.5-2,1c0,0.6,0.9,1,2,1S85,923.5,85,922.9z"/>
		<path class="st1" d="M38.6,924.7c-7-0.6-11.4-1.4-12.3-2.4c-0.8-0.8-2.5-1.4-3.8-1.4s-4.7-0.5-7.5-1.1c-4.9-1-5-1.2-5-4.6
			c0-4-1.6-4,15.5-0.8c4.4,0.8,11,1.4,14.8,1.5c3.7,0,6.7,0.3,6.7,0.8c0,0.4,3.9,0.5,8.6,0.3l8.5-0.3l-0.3,4.3l-0.3,4.4l-7,0.1
			C52.7,925.6,44.6,925.2,38.6,924.7z M58,921.9c0-0.5-0.9-1-2-1s-2,0.5-2,1c0,0.6,0.9,1,2,1S58,922.5,58,921.9z M29.6,920
			c-0.3-0.4-2.7-1.1-5.3-1.4c-2.6-0.3-6.4-0.9-8.3-1.3c-1.9-0.4-3.2-0.3-2.7,0.1c0.7,0.8,11.3,3.2,15,3.4
			C29.3,920.9,29.9,920.5,29.6,920z"/>
	</g>
	<g id="Laces">
		<path class="st3" d="M617.2,362c-0.7-0.4-1.2-1.2-1.1-1.7c0.1-0.5,0-1.6-0.4-2.4c-0.3-0.8-0.8-19-1.1-40.5
			c-0.3-21.4-1-43.3-1.6-48.5c-0.7-5.2-1.2-21-1.2-35c0-22-0.2-25.7-1.6-27.3c-1.4-1.5-1.4-2.1-0.3-3.9c1.1-1.8,1.1-2-0.3-1.5
			c-1.1,0.5-1.6,0.1-1.6-1.3c0-1.7,0.7-2,3.9-2c2.2,0,4.6,0.7,5.5,1.5c0.8,0.8,1.9,1.5,2.5,1.5c1.3,0,1.3-2.2,1.1,26.5
			c-0.1,13.9,0.6,33,1.5,45.5c0.9,11.8,1.7,35,1.8,51.6c0.2,28.2,0.1,30.3-1.8,34.2C620.5,362.9,619.5,363.5,617.2,362L617.2,362z
			 M619.5,204.3c-2.3-1.8-8.3-5-7.3-3.9c0.4,0.4,2.2,1.8,4,3.1C619.8,206,622.7,206.8,619.5,204.3L619.5,204.3z"/>
		<path class="st3" d="M505.6,354.8c-1.4-2.8-1.4-7-0.5-36.8c1.2-36.7,0.5-73.4-1.7-99c-0.7-9-1.1-16.7-0.8-17.2
			c0.3-0.5,1.4-0.9,2.5-0.9c1,0,1.9-0.7,1.9-1.5c0-2.1,8.6-2.1,10.6,0c2.2,2.1,1.5,8.9-0.9,9.3c-1.6,0.3-1.7,0.1-0.8-1.6
			c0.6-1.2,1.1-2.5,1.1-3.1c0-1.6-3-4.1-4.9-4.1c-1.9,0-9,5-9.1,6.3c0,0.5,1.8-0.6,4-2.3c4.3-3.4,6.6-3.6,8.4-0.7
			c0.9,1.5,0.7,2.2-1.1,3.7c-2.2,1.8-2.3,2-1.3,13.2c2.7,30.4,2,132.6-0.9,133.6c-0.6,0.2-1.1,1.2-1.1,2.3
			C511,359.1,507.4,358.3,505.6,354.8L505.6,354.8z"/>
		<path class="st3" d="M533.2,286.4c-1.8-4-1.5-9.5,0.4-9.5c1.3,0,1.4,0.3,0.4,1.4c-2,2.5-0.8,6,2.7,7.7s3.4,2.9-0.2,2.9
			C535.1,288.9,533.9,287.9,533.2,286.4L533.2,286.4z"/>
		<path class="st3" d="M587.2,286.5c0.7-0.8,1.6-1.2,2-1s1-0.1,1.4-0.7c0.4-0.8,0.3-0.9-0.4-0.5c-1.4,0.9-1.4,0.9-0.3-3.1
			c0.8-2.9,0.7-3.3-2.2-4.7c-2.6-1.2-2.8-1.6-1.5-2.1c4-1.6,5.3-0.2,5.3,5.5c0,7.2-0.3,8-3.1,8C586.3,287.9,586.1,287.7,587.2,286.5
			L587.2,286.5z"/>
		<path class="st3" d="M535.5,284.7c-1.8-1.1-2-4.5-0.2-6.2c1.6-1.7,28.2-2.9,42.4-2c11.3,0.8,12.4,1.4,10.7,6.2l-0.9,2.6l-25.2,0.1
			C548.4,285.5,536.4,285.1,535.5,284.7z"/>
		<path class="st3" d="M560.5,271.6c-1.8-4.8-4.2-13.7-3.8-13.7c0.3,0,1.8,0.8,3.3,1.7c2.7,1.5,3,1.5,5.6-0.2s2.7-1.7,2,0.1
			c-0.4,1.1-1.5,4.2-2.4,7.1C563.6,271.7,561.4,274.1,560.5,271.6L560.5,271.6z"/>
		<path class="st3" d="M521,247.5c0-1,1.1-1.4,3.5-1.3c1.9,0.1,4.2-0.6,5.3-1.6c2.3-2.1,3.2-2.2,3.2-0.3c0,2.3-4.1,4.6-8.2,4.6
			C522.2,248.9,521,248.5,521,247.5z"/>
		<path class="st3" d="M592.6,246.3c-0.9-0.8-1.6-2.1-1.6-2.9c0-0.7-0.6-1.5-1.2-1.8c-0.7-0.2-1-0.7-0.7-1.1
			c0.3-0.3,2.3,0.7,4.4,2.4c2.1,1.6,4.4,3,5.2,3s1.1,0.5,0.8,1C598.6,248.4,594.3,248.1,592.6,246.3L592.6,246.3z"/>
		<path class="st3" d="M523.1,243.7c-1.9-5.1,10.7-13.9,24.2-16.9c3.2-0.7,6-1.6,6.3-2c0.4-0.8-5.7-2.9-8.4-2.9c-1.2,0-5.5-8.6-5-10
			c0.2-0.4,6.5,1.3,14.1,3.8l13.8,4.5l6.7-2.7c3.7-1.6,7.3-3,7.9-3.3c0.9-0.3,0.6,1-0.7,3.8c-1.1,2.4-2,5.1-1.9,5.9
			c0,0.9,2.9,2.9,7.2,4.8c10.5,4.8,13.7,8,13.7,13.6c0,3.4-3.3,3.5-6.3,0.2c-1.3-1.4-7.8-4.9-14.6-7.9l-12.2-5.5l-8.7,2.5
			c-12.4,3.5-27.1,9.2-29,11.3c-0.9,1-2.7,2.1-4,2.4C524.5,245.9,523.8,245.6,523.1,243.7L523.1,243.7z"/>
		<path class="st3" d="M520,241.3c0-2.4,2.7-6.4,4.3-6.4c1.4,0,1.6,0.4,0.8,1.8C523.9,239,520,242.5,520,241.3L520,241.3z"/>
		<path class="st3" d="M599.4,235.4c-2.4-2.7-2.7-3.5-1.5-3.5c2.8,0,5.3,2.4,4.9,4.8C602.5,238.8,602.3,238.7,599.4,235.4z"/>
		<path class="st3" d="M608.3,210.1c-2.4-2-3.1-5.6-1.3-6.7c0.6-0.3,1,0.1,1,0.9c0,0.8,0.7,2.2,1.6,3c0.8,0.9,1.4,2.3,1.2,3.2
			C610.5,211.9,610.2,211.8,608.3,210.1z"/>
	</g>
	<g id="Accent">
		<path class="st3" d="M938,919.7c-0.3-0.3-5.9-0.8-12.5-1.1s-12.8-0.8-13.8-1.2c-1.6-0.7-1.7-2.5-1.5-24.4l0.3-23.6l2.5,0.3
			c10.2,1.1,50.7,1.3,69.7,0.3c53.4-2.8,111.8-10.1,121.6-15.1c6.9-3.6,7.3-3.2,8.1,7.2c0.3,5.1,0.9,17,1.3,26.4l0.6,17.2l-4.9,1.1
			c-17,4.1-54.3,8.7-85.4,10.7c-5.8,0.3-12.1,0.8-14,0.9C1003.6,919.1,938.5,920.2,938,919.7L938,919.7z"/>
		<path class="st3" d="M175.5,921.3c-2.2-0.2-12.3-0.9-22.5-1.5s-24.3-1.7-31.5-2.5c-7.1-0.7-19.7-2.1-28-2.9
			c-17.9-1.8-52.7-6.7-68-9.6c-17.1-3.2-15.5-2.1-15-9.2c0.3-3.4,1-14.7,1.6-25.2c0.6-10.4,1.3-19.2,1.5-19.4s0.9,0.1,1.6,0.7
			c4.9,3.9,90.1,16.9,143.3,21.7c18.7,1.7,52.4,2.4,56.8,1.2l2.7-0.7v22.9c0,14.6-0.4,23.2-1,23.6
			C215.9,921.1,182.2,921.8,175.5,921.3z"/>
		<path class="st3" d="M465.5,1123.3c-22.9-0.5-79.8-2.5-85.5-2.9c-3-0.2-10.4-0.7-16.5-1c-40.1-2.1-108.8-8.8-109.9-10.7
			c-0.1-0.2,0.2-6.8,0.8-14.7l0.9-14.3l5.1,0.6c41.2,5.1,78.2,7.9,148.6,11.1c33.8,1.5,127.7,2.6,173,2.1c77.4-1,120.6-2.2,179-5.2
			c29.4-1.4,71.9-4.8,100.3-8c3.1-0.4,5.7-0.3,5.7,0.2s0.7,7.2,1.5,14.9c0.8,7.6,1.3,14,1.2,14.1c-0.3,0.2-30.4,3.4-47.2,4.9
			c-31.6,2.9-80.7,5.6-134,7.6C661.4,1123,494.2,1124,465.5,1123.3z"/>
	</g>
	<g id="LacesEyes">
		<path d="M184,926.9c0-0.5,0.9-1,2-1s2,0.5,2,1c0,0.6-0.9,1-2,1S184,927.5,184,926.9z"/>
		<path d="M200.5,926.9c2.7-1.2,3.5-1.2,3.5,0c0,0.6-1.2,1-2.7,0.9C198.8,927.8,198.7,927.7,200.5,926.9z"/>
		<path d="M161,925.9c0-0.5,0.7-1,1.5-1s1.5,0.5,1.5,1c0,0.6-0.7,1-1.5,1S161,926.5,161,925.9z"/>
		<path d="M139,924.9c0-0.5,0.7-1,1.5-1s1.5,0.5,1.5,1c0,0.6-0.7,1-1.5,1S139,925.5,139,924.9z"/>
		<path d="M916,923.9c0-0.5,0.9-1,2-1s2,0.5,2,1c0,0.6-0.9,1-2,1S916,924.5,916,923.9z"/>
		<path d="M1058,921.9c0-0.5,0.9-1,2-1s2,0.5,2,1c0,0.6-0.9,1-2,1S1058,922.5,1058,921.9z"/>
		<path d="M10,916.9c0-0.5,0.7-1,1.5-1s1.5,0.5,1.5,1c0,0.6-0.7,1-1.5,1S10,917.5,10,916.9z"/>
		<path d="M616,369c0-6.5,0.4-9.2,1.5-10.1c2.7-2.2,3.5,0,3.5,9.6c0,9.4,0,9.4-2.5,9.4S616,377.8,616,369z"/>
		<path d="M506.6,372.3c-0.3-0.9-0.6-5.4-0.6-10.1c0-8.2,0.1-8.4,2.3-8.1c2.1,0.3,2.2,0.8,2.5,10.1c0.3,9,0.1,9.7-1.7,9.7
			C508.1,373.9,506.9,373.2,506.6,372.3L506.6,372.3z"/>
		<path d="M532.8,287.9c-2.5-1.5-4.1-7.2-2.9-10.3c1.1-2.8,5.7-5.7,8.9-5.7c1.1,0,3,0.9,4.3,2.1l2.4,2l-4.3-0.4
			c-3.5-0.4-4.7-0.1-6.2,1.6c-4.3,4.6-1,9.7,6.3,9.7c2.3,0,3.6,0.4,3.2,1C543.7,289.2,535,289.1,532.8,287.9L532.8,287.9z"/>
		<path d="M580.5,287.9c-0.4-0.6,1-1,3.4-1c2.3,0,4.1-0.5,4.1-1.1c0-0.5,0.4-0.8,0.9-0.5c1.3,0.9,3.3-2.1,2.8-4.1
			c-0.4-1.4-0.5-1.4-0.6,0.4c0,1.2-0.5,2.5-1.1,2.8c-1.2,0.8-1.2,0.7-0.1-3.1c0.8-2.7,0.6-3.3-1.3-4.3c-1.1-0.6-3.9-1.2-6.1-1.4
			l-4-0.3l3.8-1.7c6.5-3,12.7,0.7,12.7,7.5c0,5.5-2.7,7.8-8.9,7.8C583.3,288.9,580.8,288.5,580.5,287.9L580.5,287.9z"/>
		<path d="M534.7,284.2c-0.4-0.3-0.7-1.8-0.6-3.2c0.1-2.6,0.1-2.5,1,0.3C536,284.4,535.8,285.4,534.7,284.2L534.7,284.2z"/>
		<path d="M518.9,247.1c-4.9-4-0.9-13.2,5.7-13.2h2.5l-1.9,2.8c-1.1,1.5-1.9,3-1.8,3.4c0,0.3-0.3,1-0.8,1.5
			c-0.6,0.5-0.6,0.2-0.1-0.7c0.8-1.3,0.7-1.3-0.8-0.1c-1.8,1.4-2.4,3.6-0.7,2.6c0.6-0.3,0.7,0.1,0.4,0.9c-0.4,1.1,0,1.7,1.2,1.8
			c3.7,0.3,5.5-0.2,8.4-2.4c4.1-3,4.9-1.6,1.2,2.2C528.6,249.5,522.6,250,518.9,247.1L518.9,247.1z"/>
		<path d="M594.4,247.8c-2.1-1.1-6-6.7-5.2-7.5c0.3-0.2,2.2,0.9,4.3,2.6c4,3.2,7.3,3.8,9.3,1.8s1.4-4.1-2.7-8.6
			c-4.1-4.5-3.4-5.4,2.4-2.7c3.1,1.6,5.5,5,5.5,8.1c0,0.9-1.3,2.9-2.9,4.5C602,249,598.3,249.7,594.4,247.8L594.4,247.8z"/>
		<path d="M513,210.9c0-0.5,0.9-1.9,2-3s2-2.6,2-3.4c0-2-2.8-4.6-5-4.6c-1.7,0-7.5,4.1-9.2,6.5c-0.4,0.5-0.8-0.2-0.8-1.6
			c0-4.5,6.2-8.5,11.6-7.4c4.2,0.7,6.9,4.4,6,8C518.6,209.4,513,214.1,513,210.9L513,210.9z"/>
		<path d="M608.7,210.8c-0.9-0.6-2.4-2.3-3.2-3.9c-1.8-3.4-0.7-7.3,2.4-8.9c5.4-2.9,14.1,0.5,14.1,5.5v2.4l-4.6-3
			c-3.4-2.1-5.1-2.7-6.7-2.1c-2.7,1-3.3,4.3-1.2,6.5C611.7,209.5,611.1,212.1,608.7,210.8z"/>
	</g>
</g>
<g id="Back">
	<g id="Base_back">
		<path class="st4" d="M514.5,1126.2c-86-0.9-178-6.2-232-13.4c-8.2-1.1-17.2-2.2-19.8-2.6c-2.7-0.3-5.1-1.2-5.4-1.9
			c-0.3-0.7,0.7-15.2,2.1-32.1c3.2-37.3,4.1-53.4,5.7-94c1.3-33,1.3-33.4-3.1-69.3c-2.3-17.9-5.6-54.3-6.5-71
			c-0.4-6.3-0.8-40.5-1-76s-0.8-76.4-1.4-91c-0.6-14.6-1.3-29.8-1.4-33.7c-0.1-4-0.5-7.3-0.9-7.3s-1.2,1.9-1.9,4.3
			C246,648.9,240,665,232,683.4c-4.8,11-10.2,23.5-12,27.7l-3.2,7.8l0.6,25.7c0.4,14.4,0.2,34-0.4,44.3c-0.6,10.2-1.7,34.8-2.4,54.7
			c-0.7,20-1.5,36.5-1.8,36.8c-1.1,1.1-15.7,4.7-24.6,6.1c-31.1,4.7-91.4,3.2-131-3.2c-15.2-2.4-28.1-5.2-36.9-8l-8.3-2.6V866
			c0-3.6,0.5-13.1,1-21.1s1.4-23,2-33.5c1.7-29.7,6.8-98.1,8-107c0.7-4.4,1.6-9.6,2.1-11.5c0.8-3,3.9-21.9,6.9-41
			c2.1-13.6,17.9-105.7,22.9-133.5c12.8-71.4,28.3-140,41.8-185.5c1.4-4.7,3.1-10.5,3.8-13c0.6-2.5,2.9-10.1,5-17
			c6.3-21.2,9.5-33.3,9.5-37.1c0-4.6,2.6-12.1,5-14.7c1-1.1,5.3-8.7,9.6-16.8c10-19.5,15.1-27.7,24.8-40.4
			c14.1-18.4,28.5-31.3,48.5-43.5c12-7.3,39.8-21.2,53.1-26.6c33.2-13.3,59.9-25.5,81.5-37.4c42.3-23.1,52.3-29.2,58.1-35.2
			c2.2-2.4,4.9-4.3,6-4.3s4.2-1.1,7-2.4l4.9-2.4l97.5-1.5c58.1-0.8,108.2-1.1,124-0.7c14.6,0.5,38,0.9,52.1,0.9
			c24,0.1,25.8,0.2,28.2,2.1c1.4,1.1,3.7,2,5.1,2c1.6,0,4.5,1.8,8.3,5.3c10.9,9.8,22.1,16.7,59.3,36.1c17.7,9.3,42,20.6,59,27.6
			c24.6,10.1,30.4,12.6,46.5,20.7c49.2,24.7,72.1,47.2,97,95.7c4.7,9.2,10.1,18.9,11.9,21.7c2.7,3.9,3.6,6.3,4.2,11.6
			c0.4,3.8,3.3,15.4,6.6,25.8c16.9,54.7,18.7,60.9,27.3,95c10.4,41.3,19.8,86,28.4,135c1.1,6.1,3.1,17.5,4.5,25.5
			c4.9,28.2,9.6,55.9,14.6,87c4.6,28,6.7,41.4,11.5,72c0.7,4.7,1.6,12.3,1.9,17s1.7,23.4,3.1,41.5c1.3,18.2,2.9,40.7,3.5,50.1
			c0.5,9.4,2.1,35.2,3.5,57.4c1.4,22.1,2.5,40.4,2.3,40.6c-1.1,1-20.2,5.8-31.7,7.8c-29.7,5.4-57.4,7.6-94.1,7.6
			c-35.8,0-55.9-2.2-72.5-7.8l-8-2.7l-0.7-6.5c-0.6-5.3-1.5-46.1-3.1-144.5c-0.1-4.4-0.1-14.5,0-22.5c0.2-17.9,0-21.9-1.4-24.6
			c-0.7-1.1-1.9-4.9-2.7-8.5c-0.8-3.5-3.6-11.3-6.1-17.4c-9.8-23.4-15.4-38.2-18.6-49.2c-1.3-4.6-2.7-8.3-3.1-8.3
			c-0.7,0-1.3,4.3-2.8,20c-2.1,22.4-3,51.6-3,103c0,55.3-0.7,69.4-5,108c-3.1,28.3-3.3,33.2-1.6,55.5c0.9,11.5,2.1,38,2.6,59
			c1.6,67.3,2.5,84.9,5.6,122.5l0.6,7.5l-11.8,1.8c-34.4,5.1-87,9.5-146.9,12.2c-34.3,1.5-138.3,3.7-161,3.3
			C541.4,1126.5,526.1,1126.3,514.5,1126.2L514.5,1126.2z"/>
	</g>
	<g id="Key_back">
		<path class="st5" d="M500,1386.8c-70.2-3.6-126.8-10-165-18.5c-37.2-8.3-71.1-20.9-91-33.9c-13.9-9-14.5-12.1-7.1-38.5
			c2-7.2,5.9-29,8-45.5c1.7-12.7,4.5-48.3,8.7-107.7c0.3-5.4,1-9.8,1.4-9.8s3.2,0.5,6.1,1c34.9,6.7,102.5,13,170.4,16
			c162.3,7,337.8,0.7,434.8-15.6c3.5-0.6,3.7-0.5,3.7,2c0,1.4,0.7,15.1,1.5,30.4c2.3,41.3,6.3,77.3,12.3,108.7
			c1.4,7.7,2.6,15.7,2.7,17.8c0,2,0.3,3.7,0.7,3.7c1.3,0,4.9,13.6,5.1,19.3c0.2,4.3-0.3,6.2-1.9,8.4c-6.7,9.1-34.1,23.7-62.1,33.2
			c-45.7,15.4-110.4,25.2-191.3,29.1C612.4,1388,523.2,1388,500,1386.8L500,1386.8z"/>
	</g>
	<g id="Secondary_back">
		<path class="st6" d="M65.5,1271.4c-1.1-0.2-6.9-0.9-13-1.5c-6-0.7-18.6-2.7-28-4.5c-21.4-4.2-20.5-3.3-20.5-20.2
			c0-11.5,0.1-12.5,1.7-11.8c4.6,1.7,39.5,8.2,51.3,9.5c28.8,3.1,57.1,2.7,75.6-1c11-2.2,14.1-3.3,23.1-7.8c2.9-1.4,5.6-2.2,6-1.8
			c0.4,0.4,1,4.9,1.1,10c0.5,12-0.9,15.7-7,18.4c-20.4,9.1-27.3,10.3-60.8,10.7C79.9,1271.6,66.6,1271.6,65.5,1271.4L65.5,1271.4z"
			/>
		<path class="st6" d="M1020.5,1271.3c-1.6-0.2-7.7-0.9-13.5-1.5c-16.7-1.8-45.7-11.8-47.9-16.5c-0.6-1.4-1.1-7.4-1.1-13.4V1229
			l3.8,1.6c2,0.8,4.4,2,5.2,2.7c2.4,2,16.7,6.5,27.5,8.7c14.8,3,46,3.7,67.1,1.5c18.8-2,51.6-8.4,53.8-10.6c0.5-0.5,1.6-1,2.3-1
			c1,0,1.3,3,1.3,13c0,11.6-0.2,13.2-2,15c-1.1,1.1-3,2.2-4.2,2.5c-1.3,0.2-7,1.6-12.8,3c-16.2,3.8-32.4,5.6-55.5,6
			C1033,1271.6,1022.2,1271.6,1020.5,1271.3L1020.5,1271.3z"/>
		<path class="st6" d="M76.7,1241.3c-0.2-0.3-13.3-1.5-19.5-1.9c-2.4-0.2-4.6-0.6-4.9-0.9c-0.4-0.3-1.9-0.6-3.5-0.6
			c-2.6,0-27.1-4.5-39-7.1c-4.2-1-4.8-1.4-4.8-3.6c0-1.9,0.4-2.4,1.7-1.9c2,0.8,33.2,7,42.3,8.5c18.3,2.9,54.1,3.9,71.5,2
			c12.1-1.3,29-5.5,33.7-8.5s7.8-3.1,7.8-0.4c0,1.5-0.7,2-2.4,2c-2.5,0-4.8,2-2.4,2.1c4.3,0.1-21.5,6.8-34.7,8.9
			C117.5,1240.7,77.4,1241.9,76.7,1241.3L76.7,1241.3z"/>
		<path class="st6" d="M1005,1239.9c-14.9-1.8-39-8.4-39-10.7c0-0.6-1.6-1.5-3.5-1.9c-2.8-0.5-3.5-1.1-3.5-3c0-2.8-0.2-2.8,4.5-0.8
			c2,0.8,4,1.3,4.3,1c1-1.1-3.2-4.7-5-4.3c-1,0.3-1.8,0-1.8-0.6c0-0.7-0.5-0.5-1,0.3c-0.7,1-0.9-2.5-0.8-11
			c0.1-8.3-0.3-15.2-1.4-20.5c-0.9-4.4-3.3-16.8-5.3-27.5c-8.5-45.5-19.8-98.4-26.6-124.6c-3.9-15.2-8.6-44.5-9.8-61.1
			c-0.6-7.6-1.3-15.3-1.7-17c-0.8-4.2,0.2-4.2,9.8-0.4c8.2,3.2,20.9,6.3,34.3,8.3c14.1,2.1,75.9,1.8,94.5-0.5
			c18.8-2.3,35.2-5.2,46.8-8.2c13.6-3.6,13.8-3.6,14.6,2.8c0.7,6.9,1.5,64.1,2.1,164.2c0.3,45.1,0.8,85.2,1.1,89.1l0.6,7l-6.3,1.7
			c-32.4,8.3-50.8,10.7-81.9,10.7c-24,0-43.8-2.8-57.6-8c-3.9-1.5-5.5,1-1.6,2.7c4.9,2.2,15.5,5.1,25.2,6.9c10.6,2,46,2.6,64.5,1.1
			c10.5-0.9,34.9-5.3,47.5-8.7c9.5-2.5,10-2.5,10,0.3c0,2-0.8,2.4-6.2,3.6c-3.5,0.7-8.8,1.8-11.8,2.6c-20.7,5.2-42.6,7.5-68.5,7.4
			C1020.5,1240.7,1008.6,1240.3,1005,1239.9L1005,1239.9z"/>
		<path class="st6" d="M73,1232.8c-1.9-0.4-8.7-1.2-15-1.8c-11.5-1.2-50.9-8.6-52.2-9.9c-0.4-0.4-0.3-7.9,0.2-16.7
			c0.5-8.8,1-50,1-91.5c0.1-41.5,0.8-99.6,1.6-129s1.4-54.2,1.4-55s-0.2-3.3-0.6-5.4c-0.6-3.5-0.5-3.8,1.1-3.2
			c1.5,0.5,1.6,0.4,0.5-0.9c-1.9-2.3-0.4-3,3.3-1.7c1.9,0.7,4.3,1.2,5.5,1.2c2.2,0,6.2,1.8,7.2,3.2c0.3,0.4,5.3,1.2,11,1.8
			c5.8,0.6,12.3,1.5,14.5,2c2.2,0.6,11.9,1.9,21.5,3c26.8,3.1,89.9,3,107.8-0.1c4.3-0.8,7.2-1.8,7.2-2.5s2.6-2,5.7-2.9
			c3.2-0.9,7.4-2.5,9.5-3.6c2-1,4.7-1.9,5.9-1.9c2.1,0,2.1,0.3,1.5,7.8c-0.4,4.2-1.1,8.8-1.6,10.2s-1.1,12.6-1.4,25
			c-0.6,25.9-1.8,34.6-8,59.5c-2.5,9.9-5.9,25.2-7.6,34c-10.8,56.1-15.3,79.2-17,88c-3.6,18.3-8.8,47.8-11,62
			c-2.8,17.4-2.5,16.5-5.3,16.5c-1.4,0-3,0.7-3.7,1.5c-1.7,2.1-11,5.3-22,7.6c-6.6,1.5-14.8,2.2-27,2.5c-9.6,0.2-20.4,0.6-24,0.7
			C79.4,1233.4,74.9,1233.2,73,1232.8L73,1232.8z"/>
		<path class="st5" d="M1007,1247.2c-15.4-1.5-38.9-7.6-43.9-11.5c-1.3-1-3-1.8-3.9-1.8c-1.1,0-1.3-0.8-0.8-3.7
			c0.3-2.1,0.6-6.2,0.6-9.2v-5.4l4.2,0.7c2.4,0.4,5.2,1.5,6.3,2.6c1.9,1.8,13.9,5.7,24,7.9c9.5,2.1,22,3.1,37,3.1
			c27.2,0,48.7-2.9,77.6-10.5c9.8-2.6,9.6-2.8,10.1,7.3c0.3,4.8,0.2,9-0.1,9.5c-1.7,1.8-35.6,8.4-52.3,10.2
			C1052.6,1247.7,1017.4,1248.3,1007,1247.2L1007,1247.2z"/>
		<path class="st5" d="M77,1247.8c-19.3-1.2-31.1-2.7-49-6.1c-25.5-4.8-24.3-4.4-23.6-8c0.3-1.7,0.6-6,0.6-9.5v-6.5l2.8,0.5
			c50.1,10.7,53.7,11.1,86.7,11.1c23.8,0,28.1-0.3,36.5-2.1c11.2-2.5,20.3-5.8,22-7.8c0.8-0.9,3-1.5,5.7-1.5c3.7,0,4.4,0.3,3.9,1.6
			c-0.3,0.9-0.6,4.8-0.6,8.8v7.3l-4.2,2.1c-14.8,7.1-26,9.1-60.3,10.6C93.1,1248.5,83.9,1248.3,77,1247.8L77,1247.8z"/>
	</g>
	<g id="Collar_back">
		<path class="st6" d="M410.5,43.6c1.1-0.8,4.2-2.2,7-3.3c5.5-2.1,11-7.1,17.4-15.8c5.2-6.9,10.2-9.6,29-15
			c23.3-6.8,40.2-8.6,87.7-9.3c61.3-0.9,87.9,1.9,121.4,13c10.2,3.3,10.9,3.9,19.7,14.9c5,6.3,7.1,7.7,18.8,13l5,2.2l-5,0.4
			c-2.9,0.2-5.1-0.1-5.3-0.7c-0.5-1.4-3.2-1.4-3.2-0.1c0,0.6-5.3,1-14,1c-10.5,0-14-0.3-14-1.2s-0.4-0.8-1,0.2
			c-0.7,1-1.2,1.2-1.7,0.4c-1-1.4-8.3-1.7-8.3-0.4c0,0.6-0.7,1-1.5,1s-1.5-0.4-1.5-1c0-0.5-0.7-1-1.5-1s-1.5,0.4-1.5,0.8
			c0,1.3-39.4,0.2-40.2-1.2c-0.5-0.7-1.1-0.8-1.5-0.1c-0.9,1.2-34.3,1.4-34.3,0.3c0-0.5-0.7-0.8-1.5-0.8s-1.5,0.4-1.5,1
			s-11.1,1-29,1.2c-16,0.2-29,0-29-0.4c0-1.1-2.8-1-3.2,0.1S454,44.7,454,43.7c0-0.5-1.6-0.8-3.5-0.8s-3.5,0.5-3.5,1
			c0,0.6-7.1,1-19.2,1C411.4,44.9,408.9,44.7,410.5,43.6z"/>
	</g>
	<g id="Accent_back">
		<path class="st3" d="M485.5,1154.8c-87.8-2.2-162-7.6-212.5-15.4c-5.8-0.9-12.2-1.9-14.3-2.2c-2.1-0.3-3.9-0.9-4.2-1.2
			c-0.5-0.8,2.2-29.1,2.8-29.7c0.3-0.3,4.7,0.2,9.8,1c62.5,10,165.8,15.7,284.9,15.9c76.7,0,109.7-0.7,176-3.8
			c48.4-2.3,102.7-7.5,137.1-13c2.6-0.4,2.7-0.4,3.3,7.8c0.4,4.5,0.9,11.4,1.3,15.3c0.5,6.4,0.4,7.2-1.3,7.8
			c-7,2.1-58.5,8.2-93.4,11C694.4,1154.7,583,1157.2,485.5,1154.8L485.5,1154.8z"/>
		<path class="st3" d="M968,970.3c-22.5-2.5-37-5.5-47.5-9.7c-5.9-2.5-6-2.6-7.7-8.4c-1-3.2-1.9-7.6-2-9.8c-0.2-2.2-0.7-4.3-1.1-4.6
			c-1.1-0.8-2.6-13.1-2.7-21.3c0-5.2,0.2-5.7,1.8-5.1c19.7,8.4,41,11.5,79.2,11.5c43,0,87.8-5,113.6-12.6c4.9-1.4,9.7-2.8,10.6-3.1
			c1.5-0.5,1.7,1.5,1.7,25v25.4l-12.7,3.1c-29.8,7.3-49.6,9.4-93.7,9.7C987.7,970.6,969.9,970.5,968,970.3L968,970.3z"/>
		<path class="st3" d="M97.5,933.9c-15-0.6-42.7-3.4-44.4-4.4c-0.3-0.2-2.8-0.7-5.6-1c-2.7-0.3-9.9-1.7-16-3.2
			c-6-1.4-12.9-3-15.3-3.6c-7.4-1.7-7.5-2.2-6-28.7c0.8-12.7,1.7-23.3,2-23.6c0.3-0.4,4.6,0.7,9.5,2.3c8.1,2.8,25.5,6.6,41.3,9.1
			c24.5,3.9,69.5,6.3,94.6,5s45.5-4.7,53.3-8.8c2.1-1.2,2.1-1.1,2.1,11.6c0,7-0.3,17.2-0.7,22.5l-0.6,9.7l-5.6,2.5
			c-3.1,1.3-6.9,2.8-8.6,3.2c-1.6,0.4-4.1,1.2-5.5,1.9s-8.6,2-16,3c-7.4,0.9-14.8,1.9-16.5,2.2C155,934.5,116.7,934.7,97.5,933.9z"
			/>
	</g>
</g>
</svg>
