<svg id="Editable_parts" data-name="Editable parts" 
version="1.1" baseProfile="tiny"
	 xmlns="http://www.w3.org/2000/svg" xmlns:xlink="http://www.w3.org/1999/xlink" xmlns:a="http://ns.adobe.com/AdobeSVGViewerExtensions/3.0/"
	 x="0px" y="0px" width="1161.818" height="1412.564" viewBox="0 0 1161.818 1412.564" overflow="visible" xml:space="preserve">
  <defs>
    <style>
      .cls-1, .cls-10, .cls-2, .cls-3, .cls-4, .cls-5, .cls-6, .cls-7, .cls-8, .cls-9 {
        fill-rule: evenodd;
      }

      .cls-2 {
        fill: #ffb71b;
      }

      .cls-3 {
        fill: #310bc0;
      }

      .cls-4 {
        fill: #214d54;
      }

      .cls-5 {
        fill: #623f7a;
      }

      .cls-6 {
        fill: #323e48;
      }

      .cls-7 {
        fill: #1c2fc1;
      }

      .cls-8 {
        fill: #292929;
      }

      .cls-9 {
        fill: #c3c3c3;
      }

      .cls-10 {
        fill: #1e6910;
      }
    </style>
  </defs>
  <path id="Sleeves" class="cls-1" d="M1022.17,244.867c2.25,0.839,3.98,2.6,5.66,4.267,4.83,4.9,10.02,9.5,14.28,14.922a122.95,122.95,0,0,1,10.69,15.527c0.37,0.71.79,1.393,1.2,2.1,0.83,1.566,1.71,3.119,2.52,4.7,0.09,0.17.26,0.51,0.35,0.68,0.15,0.356.32,0.713,0.51,1.077,1.33,2.68,2.59,5.405,3.75,8.164,0.39,0.768.69,1.576,1.03,2.375,0.25,0.537.47,1.1,0.67,1.675,0.53,1.094.93,2.249,1.37,3.391,0.29,0.659.53,1.348,0.81,2.024,3.33,8.766,6.42,17.624,9.37,26.522,0.28,0.781.53,1.579,0.81,2.368a9.9,9.9,0,0,0,.35,1q2.085,6.445,4.09,12.924c0.3,1.141.62,2.283,1.01,3.4,0.65,2.385,1.35,4.757,2.05,7.125,3.5,12.377,6.99,24.761,10.86,37.029a7.984,7.984,0,0,0,.34,1.013c1.01,3.408,2.1,6.788,3.07,10.209,1.68,5.909,3.27,11.848,4.58,17.851,3.94,16.805,7.06,33.785,10.81,50.63,1.89,8.453,3.74,16.923,5.34,25.441,1.61,8.7,3.29,17.389,5.37,25.991,1.76,7.257,3.23,14.586,4.83,21.88,1.59,7.58,3.82,15.011,5.83,22.485,1.64,6.333,3.23,12.677,4.89,19,1.99,7.787,2.95,15.774,4.48,23.653,1.31,7.176,2.43,14.382,3.57,21.588,1.23,7.665,2.83,15.276,3.88,22.964,0.58,3.527.78,7.091,1.21,10.634a58.243,58.243,0,0,0,.23,6.469c0.26,2.134-.13,4.315.38,6.425,0,1.512.44,2.966,0.45,4.478a47.668,47.668,0,0,1,.46,6.1c-0.24,5.195-.25,10.4-0.11,15.6a24.551,24.551,0,0,1,.28,4.773c-0.1,4.427.42,8.837,0.34,13.264,0.05,3.048-.38,6.082-0.32,9.136,0.01,8.378-.09,16.76.05,25.138,0.36,2.249.19,4.526,0.37,6.788,0.46,2,.05,4.067.41,6.086,0.35,1.675-.02,3.411.37,5.089,0.63,8.314,1.99,16.56,2.61,24.877,0.41,1.539.13,3.163,0.56,4.709-0.1,1.851.45,3.642,0.39,5.494,0.01,0.8.31,1.559,0.32,2.374-0.08,1.716.5,3.364,0.38,5.094,0.47,2.113.15,4.3,0.62,6.424a52.9,52.9,0,0,0,.32,6.775c0.09,5.219.02,10.44,0.04,15.663a43.4,43.4,0,0,1-.18,5.813,30.474,30.474,0,0,0-.16,4.382,15.757,15.757,0,0,0-.29,3.065,58.581,58.581,0,0,1,2.81,11.13c0.54,1.451.17,2.994,0.2,4.5-0.01,1.8-.01,3.605.06,5.412-0.61,4.057-.95,8.158-1.7,12.211a101.973,101.973,0,0,1-2.52,10.764,73.656,73.656,0,0,0-3.37,16.467c-0.44,1.771-.2,3.615-0.6,5.4,0.11,2.059-.33,4.084-0.36,6.14,0.15,3.638-.42,7.246-0.33,10.885a76.547,76.547,0,0,1-.23,8.158c-0.28,2.076.1,4.192-.37,6.251-0.69,12.7-3.9,25.172-4.24,37.9-0.5,3.591-.18,7.241-0.27,10.861-0.1,5.14.23,10.31-.29,15.44-0.13,1.97.12,3.97-.31,5.92-0.22,5.25-.87,10.45-1.54,15.66-2.62,15.02-4.91,30.1-6.12,45.26-0.41,1.53-.06,3.15-0.5,4.7-0.64,10.46-2.11,20.85-3.45,31.26-0.91,7.25-2.33,14.45-3.55,21.66-0.78,4.34-1.48,8.71-2.5,13-0.9,4.64-2.06,9.22-3.23,13.8-0.93,3.16-1.8,6.36-2.9,9.47-0.03.17-.1,0.52-0.14,0.69a3.007,3.007,0,0,0-.36,1.03q-1.92,5.94-3.74,11.9c-1.01,3.06-2.02,6.12-3.06,9.17q-1.68,4.755-3.4,9.51c-0.49,1.22-.95,2.46-1.36,3.72a78.515,78.515,0,0,0-3.55,12.36c-1.41,7.48-2.32,15.34-6.44,21.93a45.9,45.9,0,0,1-4.96,6.91c-0.9,1.03-2.21,1.98-2.3,3.46a30.237,30.237,0,0,1-1.91,6.27,50.6,50.6,0,0,1-7.68,12.08,4.232,4.232,0,0,1-.07-4.62c1.56-2.7,3.44-5.23,4.69-8.09,1.21-3.37.01-6.92-1.09-10.13-0.89-2.78-2.95-4.92-4.68-7.19a79.9,79.9,0,0,0-14.31-13.18c-4.66-3.5-9.74-6.37-14.68-9.43-2.78-1.6-5.63-3.05-8.48-4.49-3.07-1.54-6-3.33-9.15-4.68-3.33-1.45-6.6-3.06-10.05-4.2a88.8,88.8,0,0,0-16.08-3.69l-0.82-.12c-1.65-.26-3.3-0.46-4.96-0.56a0.874,0.874,0,0,0-1.14-.12,40.212,40.212,0,0,0-7.016-.37c-0.2.04-.615,0.11-0.819,0.14-2.518.3-4.849,1.36-7.312,1.88-2.586.6-5.212,1.01-7.828,1.42-0.208.03-.622,0.08-0.829,0.1-2.28.22-4.577,0.24-6.826,0.66-1.573.26-2.878,1.23-4.37,1.72-2.3.73-4.733,0.87-7.07,1.43-2.419.76-3.49,3.36-5.6,4.6-1.869,1.13-3.207,2.89-4.855,4.29-0.765.59-1.383,1.63-2.46,1.58a6.082,6.082,0,0,1-3.765-1.15,35.8,35.8,0,0,1-4.777,2.47,5.2,5.2,0,0,0-2.891,4.15c-0.279,1.61.234,3.2,0.346,4.81,0.082,1.72,1.145,3.17,2.09,4.54,0.272,0.47.829,0.95,0.639,1.57a37.18,37.18,0,0,1-4.142-6.62c-0.1-.2-0.3-0.6-0.4-0.81a42.9,42.9,0,0,0-1.712-4.51c-1.121-2.87-1.841-5.88-2.766-8.82a46.669,46.669,0,0,1-1.756-12.25,69.187,69.187,0,0,1,1.57-16.96c0.5-2.45,1.44-4.77,2.055-7.18,0.374-1.81,1.607-3.47,1.278-5.38-0.547-4.18-.717-8.39-1.071-12.58,0.194-2.52-.459-4.98-0.333-7.49,0.058-1.49-.4-2.94-0.343-4.42,0-1.07-.057-2.13-0.136-3.18-0.411-5.73-.574-11.47-0.9-17.19-0.323-8.49-1.614-16.95-1.1-25.46,0.241-1.15-.694-1.92-1.285-2.75a27.542,27.542,0,0,1-3.421-6.05c-2.871-6.89-2.423-14.49-2.586-21.78-0.187-9.56.887-19.26,4.339-28.23a208.893,208.893,0,0,1,9.493-21.06,4.145,4.145,0,0,0,.551-3.05c-0.993-6.5-1.662-13.06-3.113-19.48-2.072-8.08-1.671-16.468-2.616-24.7-0.825-7.444-.7-14.939-0.8-22.417-0.153-5.11-.506-10.206-0.819-15.3-0.333-4.237.017-8.657-1.58-12.68a18.576,18.576,0,0,1-.126-11.412c1.359-4.563,3.891-8.661,6.452-12.632,1.73-2.66,3.9-4.984,5.851-7.468,4.784-5.294,10.156-10.037,14.9-15.374a29.9,29.9,0,0,0-.183-5.056c-0.306-1.834-.085-3.842-1.1-5.483a9.345,9.345,0,0,1-1.437-5.307c0.174-1.223-.822-2.188-0.727-3.394-0.255-2.239,1.135-4.227,1.07-6.445-0.118-2.283.4-4.533,0.337-6.809-0.109-2.392.537-4.733,0.35-7.128a99.067,99.067,0,0,0,.306-11.389,9,9,0,0,1-2.022-5.633c0.054-1.155-.561-2.181-0.771-3.278a66.859,66.859,0,0,1-.969-6.911c-0.278-1.563-.346-3.146-0.574-4.706-0.289-2.3.364-4.566,0.326-6.862,0.724-3.6-.183-7.315-1.481-10.679a49.808,49.808,0,0,0-3.231-6.289c-2.025-3.8-4.349-7.546-5.243-11.82-1.5-7.328.758-14.752,0.163-22.125-0.543-2.364-1.8-4.488-2.582-6.771a25.674,25.674,0,0,1-1-4.94c-0.364-1.848-.609-3.717-0.8-5.582-0.19-1.75-1.023-3.367-1.07-5.134-0.048-2.239-1.166-4.25-1.38-6.452-0.19-1.457-.078-2.925-0.2-4.379a105.57,105.57,0,0,1-1.071-11.6c-0.034-5.551-.336-11.1-0.4-16.648-0.285-4.07-.2-8.154-0.547-12.217a150.027,150.027,0,0,1-.224-19.719,67.157,67.157,0,0,0-.887-16.339,178.538,178.538,0,0,1-2.245-24.768c0.1-4.774.631-9.513,0.89-14.273,0.221-3.649-.751-7.22-0.731-10.852-0.149-3.86-.38-7.709-0.717-11.552-0.377-2.857.347-5.7,1.033-8.459,1.76-6.038,4.624-11.667,6.952-17.491,2.286-5.793,6-10.94,7.848-16.913a44.3,44.3,0,0,1,3.1-7.811c2.688-4.858,6.041-9.333,8.433-14.358,3.408-6.822,5.664-14.117,8.287-21.251a157.587,157.587,0,0,1,6.422-15.333c3.38-6.558,7.22-12.88,10.339-19.57a93.661,93.661,0,0,0,6.234-18.51,37.722,37.722,0,0,1,6.619-14.487c3.992-5.219,8.194-10.318,11.424-16.067a48.4,48.4,0,0,0,5.57-16.658c1.42-7.743-.39-15.558-2.05-23.1a44.965,44.965,0,0,1-.28-12.208c0.11-6.645,1.87-13.094,2.49-19.685,0.49-4.332,1.43-8.6,1.83-12.948,0.65-5.215.95-10.482,1.88-15.659,0.8-3.561,1.02-7.2,1.57-10.8,0.64-3.367.6-6.826,1.37-10.172,0.98-4.373,1.32-8.851,1.99-13.275,0.2-3.635.86-7.223,1.18-10.851a48.654,48.654,0,0,0,.7-5.769c0.64-4.75.93-9.53,1.25-14.307,0.1-3.405.3-7.088-1.61-10.087C1021.25,244.68,1021.69,244.772,1022.17,244.867ZM155.451,265.14a51.337,51.337,0,0,1-.316,5.507,25.325,25.325,0,0,0-.625,4.393,170.418,170.418,0,0,0,1.658,17.331c0.472,4.5,1.791,8.841,2.871,13.217,1.427,6.89,3.354,13.668,4.842,20.545,1.267,5.177,2.246,10.43,3.951,15.492,1.125,4.414,2.4,8.79,3.453,13.22,1.3,6.649,3.557,13.053,5.113,19.641,1.118,4.621,1.543,9.381,2.684,14,0.839,3.275,1.5,6.6,2.243,9.9a81.605,81.605,0,0,1,2.235,14.966c0.014,2.375.377,4.73,0.428,7.1,0.252,4.217.656,8.6,2.725,12.371,2.892,5.188,7.462,9.17,10.5,14.266,3.21,5.344,5.276,11.263,7.957,16.876,2.463,5,4.475,10.2,6.67,15.323,2.758,6.778,5.025,13.743,7.733,20.541,2.762,6.649,6.129,13.03,8.817,19.713a51.625,51.625,0,0,1,2.969,8.269,139.549,139.549,0,0,1,3.082,15.286c0.36,2.823.516,5.667,0.734,8.5,0.272,9.105,1.716,18.119,2.327,27.2,0.469,9.068.918,18.147,1.876,27.181a172.964,172.964,0,0,0,3.734,23.12c0.856,3.3,1.179,6.71,1.933,10.036a32.716,32.716,0,0,1,.309,7.947,111.911,111.911,0,0,1-1.671,12.941,71.837,71.837,0,0,0-1.424,10.835c-0.367,3.951-.18,7.927-0.445,11.885-0.2,13.158-3.479,26-4.662,39.068a173.245,173.245,0,0,1-2.388,18.428c-1.3,6.177-3.612,12.214-3.677,18.6a25.915,25.915,0,0,0,.517,6.972c-0.372,1.755.286,4.42,0.153,6.965-0.51,2.664-.276,5.2-1.675,7.631-0.758,1.943-2.331,3.443-3.517,5.1-1.39,2.124-3.306,3.814-4.305,6.178-2.453,6.082-2.208,13.108-1.909,19.506-0.133,3.479.02,6.649-1,10.006-0.123.343-.241,0.7-0.35,1.06-0.116.322-.224,0.652-0.326,1a42.321,42.321,0,0,0-2.446,7.488c-1.163,4.349-1.975,9.605-1.251,14.07,0.51,4.325,1.447,8.585,2.042,12.9,0.231,2.079.907,4.413,1.308,6.466,0.914,4.27.981,8.243-1,12.105-1.312,2.392-3.839,3.723-5.392,5.918a30.044,30.044,0,0,1-2.606,2.82c-4.047,4.8-6.741,10.512-9.935,15.87-1.036,1.821-2.107,3.632-2.99,5.535a10.916,10.916,0,0,0-1.1,4.476,73.921,73.921,0,0,0,10.194,7.136c6.088,3.207,12.19,6.2,17.328,10.875a21.317,21.317,0,0,1,5.436,8.155,54.83,54.83,0,0,1,2.378,9.175c0.374,2.718,1.563,4.775,2.039,7.476a41.046,41.046,0,0,1-1.444,21.415,61.522,61.522,0,0,1-3.941,8.671c-1.621,3.061-3.622,5.908-5.212,8.989-1.523,3-3.018,6.021-4.248,9.157-0.778,2.05-1.753,4.41-2.483,6.48,0.88,1.83,1.274,3.89,2.038,5.78,0.442,1.24,1.247,2.82,1.7,4.07a178.482,178.482,0,0,1,6.456,20.73c1.9,7.73,3.686,15.17,4.417,23.11,0.3,1.9.044,3.87,0.339,5.78-0.139,2.51.452,5.3,0.34,7.81-0.054,4.08.177,7.82,0,11.9-0.363,1.96.045,4.15-.34,6.11a103.4,103.4,0,0,1-3.818,19.36c-1.76,6.27-4.095,12.39-5.325,18.81a3.97,3.97,0,0,0,.575,2.49,60.456,60.456,0,0,1,6.116,11.27,31.031,31.031,0,0,1,1.773,10.03c-0.207,2.71-.221,5.42-1.1,8.01-0.509,1.5-1.46,2.93-1.3,4.59a63.9,63.9,0,0,0,1.172,12.43c1.372,8.16,3.1,16.27,3.686,24.53a23.479,23.479,0,0,1,.262,4.82c0.234,5.51-1.22,10.92-2.817,16.14-0.115.32-.221,0.67-0.323,1.02a16.689,16.689,0,0,1-3,4.58c-1.219,2.63-3.061,4.93-4.158,7.63a57.686,57.686,0,0,1-5.352,9.76c-0.041-.1-0.129-0.31-0.17-0.41a74.094,74.094,0,0,0,4.291-9.54c0.51-1.28.493-2.82,1.611-3.78,1.213-1.14,1.053-2.94.816-4.43a15.63,15.63,0,0,0-1.591-5.22,21.816,21.816,0,0,0-6.047-6.16c-4.315-3.01-7.683-7.2-12.222-9.9a41.433,41.433,0,0,0-8.657-4.19,52.583,52.583,0,0,0-11.977-1.71,53.861,53.861,0,0,0-10.142.92c-0.2.03-.611,0.1-0.819,0.14-6.061.77-12.221,1.74-17.854,4.23-3.928,1.88-7.734,4.07-11.906,5.4-6.34,2.08-12.833,3.69-19.095,6-14.063,5.19-27.545,12.65-38.108,23.42-2.283,2.14-4.383,4.46-6.452,6.8-1.753,2.16-3.2,4.54-4.733,6.86a39.706,39.706,0,0,0-5.521,17.28,2.682,2.682,0,0,0,0,2.1,19.743,19.743,0,0,0,2.779,8.87c0.4,0.61.8,1.23,1.189,1.87a25.287,25.287,0,0,1-4.254-2.88c-5.229-4.34-10.084-9.48-12.772-15.81a30.2,30.2,0,0,1-2.178-11.13c-0.326-2.58.085-5.18-.224-7.76-0.034-5.29-1.454-10.44-2.27-15.64-2.195-12.78-4.217-25.58-5.946-38.42-0.014-1.65-.86-3.12-1.454-4.61-0.279-.66-0.534-1.33-0.833-1.97-0.218-.57-0.442-1.14-0.683-1.68-0.085-.18-0.255-0.54-0.34-0.71-0.523-1.38-1.077-2.74-1.7-4.07-0.218-.57-0.435-1.14-0.683-1.67-0.367-.79-0.676-1.6-1.023-2.37-0.336-.81-0.645-1.61-1.019-2.38-0.32-.82-0.632-1.62-1.019-2.39a14.791,14.791,0,0,0-.673-1.7,16.373,16.373,0,0,0-.686-1.7,17.426,17.426,0,0,0-.669-1.72,105.811,105.811,0,0,1-5.905-21.62c-1.067-6.66-1.838-13.35-2.674-20.03,0.061-1.5-.472-2.94-0.37-4.44-0.387-1.9-.262-3.85-0.649-5.75,0.109-2.28-.52-4.5-0.367-6.79a37.774,37.774,0,0,1-.4-5.4c-0.452-1.91-.061-3.9-0.564-5.8a22.825,22.825,0,0,0-.364-4.42c0.129-2.2-.489-4.32-0.384-6.49-0.459-1.9-.126-3.85-0.588-5.73-0.448-8.14-2.147-16.16-2.531-24.31-0.479-2.05-.058-4.18-0.418-6.24-0.37-2.26.037-4.56-.333-6.81-0.367-2.04-.017-4.12-0.275-6.16-0.489-2.79-.054-5.64-0.35-8.45-0.486-3.72-.007-7.49-0.377-11.21-0.326-2.72-.133-5.47-0.194-8.2,0.065-2.62-.489-5.21-0.333-7.83,0.153-2.5-.493-4.945-0.34-7.436,0.139-1.834-.391-3.625-0.343-5.446,0.095-2.059-.506-4.063-0.367-6.122-0.428-1.668-.156-3.4-0.574-5.063-0.248-3.883-.951-7.722-1.451-11.578-0.87-6.5-1.825-12.986-2.521-19.5-0.3-1.526-.139-3.1-0.51-4.614,0.16-2.293-.506-4.522-0.354-6.8,0.065-2.732-.418-5.439-0.336-8.168,0.207-3.224-.934-6.309-1.461-9.452-1.923-8.932-4.155-17.823-5.334-26.888-0.472-3.625-.836-7.253-1.131-10.9-0.4-1.545-.085-3.163-0.52-4.7,0.021-2.3-.5-4.536-0.442-6.829-0.622-2.915-.177-5.9-0.336-8.847,0.16-2.392-.16-4.794.132-7.169,0.506-2.568.048-5.2,0.418-7.777a74.989,74.989,0,0,0,.065-9.452c-0.452-2.711.034-5.476-.533-8.171-0.15-3.859.038-7.729-.037-11.589a19.124,19.124,0,0,1,.241-5.14c0.248-3.744,1.023-7.427,1.179-11.175,0.425-1.386.132-2.85,0.462-4.24,0.3-1.2.007-2.456,0.316-3.642,0.34-1.342.024-2.738,0.347-4.074,0.319-1.229.024-2.52,0.33-3.744a9.031,9.031,0,0,0,.187-2.3c-0.024-1.043.432-2.022,0.337-3.058-0.112-1.274.4-2.48,0.34-3.741-0.078-1.383.455-2.708,0.343-4.087a233.263,233.263,0,0,1,4.162-29.562c1.491-7.38,3.455-14.657,5.443-21.914,0.765-2.616,1.583-5.219,2.375-7.825,1.417-4.478,3.027-8.894,4.366-13.393,0.676-2.67,1.8-5.191,2.582-7.824,0.754-3.663,1.913-7.22,2.718-10.866,1.78-8.215,3.245-16.491,4.791-24.751a227.787,227.787,0,0,1,5.008-22.984c1.927-7.709,3.778-15.438,5.212-23.256a227.65,227.65,0,0,1,5.219-22.645,24.453,24.453,0,0,0,.686-2.361A202.362,202.362,0,0,0,52.723,563.6c1.746-9.129,3.394-18.282,5.664-27.3,1.845-7.223,3.7-14.446,5.4-21.707,1.515-6.771,3.143-13.515,5-20.2,1.8-6.876,3.924-13.668,5.562-20.588,1.94-7.917,3.207-15.979,4.947-23.94q2.619-13,5.664-25.923C88.5,408.863,91.578,393.679,95.5,378.7q2.533-9.506,5.443-18.9c0.714-2.025,1.352-4.077,2.032-6.115,0.166-.442.319-0.887,0.493-1.318,1-2.99,2.161-5.916,3.251-8.868a18.114,18.114,0,0,0,.673-1.723c0.251-.56.465-1.134,0.669-1.712,0.255-.557.473-1.128,0.683-1.7,0.255-.557.469-1.131,0.676-1.7,0.258-.55.483-1.114,0.687-1.682,0.37-.785.659-1.6,1.016-2.388,0.285-.656.53-1.325,0.835-1.971,0.415-.924.771-1.872,1.207-2.786,0.5-1,.886-2.045,1.359-3.054,1.128-2.382,2.2-4.791,3.387-7.145,0.679-1.359,1.349-2.718,2.035-4.07,0.238-.456.476-0.908,0.7-1.363,0.085-.17.252-0.5,0.337-0.669,0.645-1.267,1.375-2.487,2.035-3.748,0.441-.8.927-1.576,1.352-2.385,3.235-5.534,6.755-10.892,10.193-16.294a133.629,133.629,0,0,1,13.757-17.9c1.726-2.019,3.218-4.353,5.647-5.613A6.405,6.405,0,0,1,155.451,265.14Z" transform="translate(-0.563 -0.906)"/>
  <path id="Cuffs" class="cls-2" d="M182.748,1203.85a52.583,52.583,0,0,1,11.977,1.71,41.433,41.433,0,0,1,8.657,4.19c4.539,2.7,7.907,6.89,12.222,9.9a21.816,21.816,0,0,1,6.047,6.16,15.63,15.63,0,0,1,1.591,5.22c0.237,1.49.4,3.29-.816,4.43-1.118.96-1.1,2.5-1.611,3.78a74.094,74.094,0,0,1-4.291,9.54c0.041,0.1.129,0.31,0.17,0.41a75.232,75.232,0,0,1,3.7,8.46c1,3.01,1.8,6.09,2.732,9.12,2.109,7.48,4.583,14.96,5.137,22.76,0.031,2.23-.017,4.47.014,6.7a27.558,27.558,0,0,1,2.966,2.03c0.085-.45.173-0.89,0.265-1.31-0.578,1.85,1.376,2.76,2.167,4.15,1.811,2.93,1.876,6.53,1.652,9.87a15.667,15.667,0,0,1-2.892,8.92,75.08,75.08,0,0,0-5.742,8.17,68.2,68.2,0,0,0-3.3,6.12c-3.16,5.6-7.56,10.34-11.855,15.07-4.491,4.69-8.861,9.5-13.607,13.94a127.327,127.327,0,0,1-13.645,10.53,62.722,62.722,0,0,1-8.868,5.33c-6.752,3.33-14.026,5.84-21.579,6.34-8.063.93-16.159-.25-24.093-1.66-4.406-.62-8.837-0.99-13.234-1.7a32.269,32.269,0,0,1-8.691-1.94,12.546,12.546,0,0,1-7.077-7.51,22.931,22.931,0,0,1-1.224-6.22c0.041-1.81-.8-3.46-1.41-5.11a207.625,207.625,0,0,1-9.942-29.15c-0.968-3.73-1.624-7.52-2.514-11.26-0.795-3.4-2.484-6.48-3.588-9.77-1.553-4.45-2.045-9.17-3.167-13.72-0.183-1.32-1.512-1.94-2.1-3.04-1.132-1.42-1.665-3.27-3.048-4.49a10.724,10.724,0,0,1-1.668-2.08c-0.394-.64-0.788-1.26-1.189-1.87a19.743,19.743,0,0,1-2.779-8.87,2.028,2.028,0,0,0,0-2.1,39.706,39.706,0,0,1,5.521-17.28c1.532-2.32,2.98-4.7,4.733-6.86,2.069-2.34,4.169-4.66,6.452-6.8,10.564-10.77,24.045-18.23,38.108-23.42,6.262-2.31,12.755-3.92,19.095-6,4.172-1.33,7.978-3.52,11.906-5.4,5.633-2.49,11.793-3.46,17.854-4.23,0.208-.04.615-0.11,0.819-0.14A53.861,53.861,0,0,1,182.748,1203.85Zm821.492,10.44a0.816,0.816,0,0,0,1.14.12c1.66,0.1,3.31.3,4.96,0.56l0.82,0.12a88.8,88.8,0,0,1,16.08,3.69c3.45,1.14,6.72,2.75,10.05,4.2,3.15,1.35,6.08,3.14,9.15,4.68,2.85,1.44,5.7,2.89,8.48,4.49,4.94,3.06,10.02,5.93,14.68,9.43a79.9,79.9,0,0,1,14.31,13.18c1.73,2.27,3.79,4.41,4.68,7.19,1.1,3.21,2.3,6.76,1.09,10.13-1.25,2.86-3.13,5.39-4.69,8.09a4.232,4.232,0,0,0,.07,4.62l0.06,0.1-0.37-.08a12.71,12.71,0,0,1-2.85,8.66c-0.87,1.24-2.17,2.12-2.96,3.42-0.92,1.44-2.2,2.61-3.17,4.01-1.33,3.46-2.22,7.08-3.29,10.63-1.93,6.53-3.73,13.11-5.48,19.69a95.287,95.287,0,0,1-7.6,19.26c-1.12,2.04-2.26,4.08-3.35,6.15a84.881,84.881,0,0,0-3.09,9.37c-1.01,3.32-1.5,6.77-2.57,10.07-0.78,2.48-1.7,5.05-3.63,6.89-2.81,2.6-6.66,3.69-10.37,4.23-5.55,1.01-11.19.5-16.8,0.55-1.72.03-3.39-.43-5.11-0.34-1.94.13-3.83-.45-5.76-0.34a109.339,109.339,0,0,1-20.738-4.07,103.307,103.307,0,0,1-21.045-8.81,56.514,56.514,0,0,1-8.538-5.5l0.217,0.65a5.151,5.151,0,0,0-1.889-2.02c-7.159-5.27-13.683-11.77-17.563-19.86-1.957-3.66-3.105-7.7-5.283-11.23-2.565-4.46-5.059-9.19-5.45-14.41-0.482-4.42-.449-9.01,1.114-13.23,0.636-1.55-.061-3.17-0.176-4.74a137.555,137.555,0,0,1-.435-19.73,86.769,86.769,0,0,1,1.542-16.29,35.175,35.175,0,0,1,6.962-15.84,37.439,37.439,0,0,1,3.456-3.85c0.19-.62-0.367-1.1-0.639-1.57-0.945-1.37-2.008-2.82-2.09-4.54-0.112-1.61-.625-3.2-0.346-4.81a5.2,5.2,0,0,1,2.891-4.15,35.8,35.8,0,0,0,4.777-2.47,6.082,6.082,0,0,0,3.765,1.15c1.077,0.05,1.7-.99,2.46-1.58,1.648-1.4,2.986-3.16,4.855-4.29,2.113-1.24,3.184-3.84,5.6-4.6,2.337-.56,4.77-0.7,7.07-1.43,1.492-.49,2.8-1.46,4.37-1.72,2.249-.42,4.546-0.44,6.826-0.66,0.207-.02.621-0.07,0.829-0.1,2.616-.41,5.242-0.82,7.828-1.42,2.463-.52,4.794-1.58,7.312-1.88,0.2-.03.615-0.1,0.819-0.14A40.212,40.212,0,0,1,1004.24,1214.29Z" transform="translate(-0.563 -0.906)"/>
  <path id="Bottom" class="cls-3" d="M912.6,1214.07a22.453,22.453,0,0,0,4.023.17,31.126,31.126,0,0,0,7.149-.42,7.462,7.462,0,0,1,6.34,1.3,46.669,46.669,0,0,0,1.756,12.25c0.925,2.94,1.645,5.95,2.766,8.82a42.9,42.9,0,0,1,1.712,4.51c0.286,1.89.337,3.8,0.632,5.69,0.119,1.86-.088,3.77.459,5.59a35.175,35.175,0,0,0-6.962,15.84,86.769,86.769,0,0,0-1.542,16.29,137.555,137.555,0,0,0,.435,19.73c0.115,1.57.812,3.19,0.176,4.74-1.563,4.22-1.6,8.81-1.114,13.23,0.391,5.22,2.885,9.95,5.45,14.41,2.178,3.53,3.326,7.57,5.283,11.23,3.88,8.09,10.4,14.59,17.563,19.86a5.151,5.151,0,0,1,1.889,2.02c0.618,1.34,1.4,2.61,2.107,3.92,0.081,0.17.247,0.52,0.329,0.69s0.265,0.5.353,0.67a17.185,17.185,0,0,1,1.455,6.32,6.875,6.875,0,0,1-3.517,6.07c-0.184.08-.551,0.25-0.734,0.33-2.8.61-5.5,1.56-8.287,2.21-4.145,1.01-8.338,1.81-12.493,2.76-2.98.73-5.936,1.57-8.939,2.2-8.291,1.61-16.6,3.19-24.848,4.99-7.294,1.46-14.694,2.18-22.044,3.1-10.916,1.13-21.711,3.53-32.651,4.33-1.563.33-3.184,0.07-4.733,0.48-1.842-.03-3.629.43-5.457,0.46-1.566.35-3.183,0.2-4.743,0.59-1.5-.08-2.942.42-4.434,0.38-3.269.48-6.571,0.56-9.84,1-2.052-.1-4.046.5-6.1,0.37a46.3,46.3,0,0,1-5.762.39c-2.47.49-5,.06-7.479,0.41-2.368.38-4.777,0-7.145,0.34-2.256.37-4.543,0.04-6.8,0.28-3.15.48-6.347,0.06-9.507,0.39-3.5.42-7.03,0-10.529,0.34-3.721.44-7.482-.03-11.206,0.37-2.382.29-4.78,0.1-7.162,0.18-2.626,0-5.215.68-7.842,0.4-1.93-.25-3.856.29-5.779-0.02-1.815-.32-3.605.46-5.406,0.1a35.923,35.923,0,0,0-6.136-.03c-2.609.05-5.2-.3-7.8-0.36-9.748-.13-19.5-0.09-29.247-0.11-2.837-.04-5.681.11-8.508-0.15-4.512-.4-9.048.04-13.553-0.37-4.757-.35-9.534.08-14.281-0.38-5.555-.32-11.127.14-16.672-0.36-3.221-.24-6.469.06-9.677-0.23l-0.322-.06c2.779-.03,5.555-0.34,8.337-0.13,4.754,0.08,9.507.08,14.264,0.07,7.94-.2,15.857-0.92,23.8-1.03,4.624-.31,9.266-0.19,13.893-0.49,12.938-.06,25.816-1.5,38.727-2.19,8.5-.65,17.019-0.93,25.53-1.43,12.211-.99,24.446-1.64,36.637-2.9,9.642-.89,19.288-1.72,28.917-2.77,7.682-.92,15.354-1.91,23.043-2.77,8.049-1.14,16.092-2.34,24.185-3.12,4.641-.43,9.238-1.23,13.869-1.77,3.636-.39,7.285-0.67,10.931-0.98,5-.42,9.968-1.12,14.973-1.54,3.041-.32,6.065-0.84,9.13-0.99,4.318-.34,8.609-1.05,12.952-1.16,2.12-.21,4.26-0.03,6.38-0.26a5.579,5.579,0,0,0,4.648-4.24c0.456-4.27-2.409-7.88-2.973-11.99-0.5-3.57-.567-7.19-1.2-10.74-0.921-5.76-1.23-11.6-2.158-17.36-1.773-11.41-3.449-22.84-5.236-34.26-1.073-8.38-2.48-16.72-3.622-25.09-1.128-7.49-2.035-15.01-3.037-22.52-0.554-3.37-.921-6.76-1.264-10.16-0.754-5.63-2.232-11.14-3.279-16.72-0.866-3.91-1.141-7.91-1.651-11.87-0.506-3.69-.452-7.42-0.768-11.13C909.955,1212.03,911.2,1213.23,912.6,1214.07Zm-641.181,3.19c-0.509,1.85-1.073,3.69-1.535,5.56a23.921,23.921,0,0,0-.411,5.9,156.113,156.113,0,0,1-.636,16.34c-0.346,3.69-.455,7.4-1.036,11.07-1.21,7.75-2.382,15.5-3.306,23.29-1.06,8.71-2.215,17.42-3.839,26.05-1.567,8.38-3.4,16.72-4.56,25.18-1.1,7.41-1.886,14.86-2.952,22.27-0.5,3.36-.7,6.79-1.737,10.05-1.08,4.02-3.4,7.9-2.752,12.21a6.693,6.693,0,0,0,4.533,5.64c3.35,1.14,6.938,1.17,10.427,1.57,5.29,0.38,10.563,1.01,15.8,1.84,3,0.46,5.946,1.19,8.946,1.62,4.981,0.76,10,1.22,14.99,1.9,15.718,2.08,31.344,4.8,47.092,6.68,9.52,1.21,18.935,3.19,28.5,4.08,6.986,0.57,13.944,1.4,20.91,2.19,5.66,0.56,11.335,1.02,16.981,1.75,7.672,1,15.358,1.97,23.077,2.56,4.061,0.42,8.172.51,12.208,1.12-3.5-.14-7.006.12-10.489-0.24-3.295-.28-6.6-0.01-9.9-0.22a55.506,55.506,0,0,0-7.407-.26c-1.485.01-2.942-.34-4.424-0.33a40.417,40.417,0,0,1-5.164-.18c-2.48-.38-5,0.05-7.482-0.35-2.473-.36-4.988.05-7.454-0.35-2.6-.34-5.233.07-7.822-0.36-2.147-.3-4.328.08-6.459-0.34-1.58-.28-3.2.04-4.767-0.29-1.685-.36-3.428,0-5.11-0.37-1.79-.33-3.628.04-5.412-0.31-1.991-.38-4.037.04-6.014-0.41-2.056-.19-4.132-0.03-6.17-0.42-2.623.14-5.188-.46-7.808-0.37a36.333,36.333,0,0,0-3.754-.33c-1.488.12-2.926-.38-4.4-0.35-2.4.12-4.746-.52-7.145-0.35-2.018-.43-4.1-0.17-6.109-0.61a27.988,27.988,0,0,1-4.387-.37c-2.086.1-4.1-.49-6.187-0.39-1.879-.43-3.819-0.2-5.7-0.6-1.963.05-3.866-.49-5.827-0.41-1.511-.42-3.088-0.2-4.6-0.53-6.735-.64-13.462-1.4-20.169-2.34-7.7-1.04-15.422-1.86-23.091-3.18-7.077-1.03-14.062-2.6-21.055-4.09a98.852,98.852,0,0,1-15.884-4.87,13.965,13.965,0,0,0-1.692-.68c-1.668-.61-2.742-2.04-3.972-3.22a7.624,7.624,0,0,1-2.208-7.98,23.929,23.929,0,0,1,2.055-4.58c0.235-.46.459-0.92,0.68-1.36,1.512-2.98,1.576-6.37,2.229-9.58,0.981-5.39,2.174-10.75,3.343-16.1a42.928,42.928,0,0,0,1.023-5.23,68.2,68.2,0,0,1,3.3-6.12,75.08,75.08,0,0,1,5.742-8.17,15.667,15.667,0,0,0,2.892-8.92c0.224-3.34.159-6.94-1.652-9.87-0.791-1.39-2.745-2.3-2.167-4.15,1.294-7.27,2.524-14.55,3.374-21.89a101.9,101.9,0,0,0,.883-11.35c0.421-3.83.255-7.69,0.618-11.51a84.274,84.274,0,0,1,2.657-19.74c0.523-2.51.85-5.17,2.222-7.37,0.965-1.2,1.638-2.66,2.878-3.61a15.033,15.033,0,0,1,3.527-1.17,57.365,57.365,0,0,1,13.913-.79,7.174,7.174,0,0,0,2.841-.83A22.9,22.9,0,0,1,271.42,1217.26Z" transform="translate(-0.563 -0.906)"/>
  <path id="Hoodie" class="cls-4" d="M627.377,211.353c-8.868.948-17.8,1.859-26.729,1.2-4.067-.3-8.121-0.815-12.2-0.921a16.629,16.629,0,0,1-5.453-1.376,17.79,17.79,0,0,1-5.494,1.376c-3.171.126-6.314,0.578-9.47,0.836a180.241,180.241,0,0,1-21.015.788c0.021,1.519-11,.248-11.113-1.1-3.588-.295-7.122-1.022-10.7-1.352-2.681-.391-5.64-0.02-7.954-1.692-2.14.792-4.369-.044-6.275-1.04-3.53-1.868-7.455-2.785-11.036-4.535-5.691-2.674-11.392-5.324-16.992-8.188a121.177,121.177,0,0,1-14.406-8.688,80.736,80.736,0,0,1-8.406-6.557c-1.243-1.131-2.5-2.249-3.8-3.316a2.833,2.833,0,0,0-1.546-.788c-4.617-.37-9.272-0.211-13.859-0.941a103.593,103.593,0,0,0-10.689-1.166c-4.152-.506-8.314-1-12.412-1.868a39.947,39.947,0,0,0-9.149-1.1c-7.971-.054-16.037-0.316-23.794-2.313-2.144-.466-4.319-0.778-6.466-1.206-4.4-.918-8.178-3.721-12.67-4.281-3.921-.636-7.74.642-11.484,1.593-1.73.149-3.1,1.26-4.563,2.055-2.035,1.142-4.006,2.4-6.082,3.469-0.924.449-1.726,1.227-2.779,1.336a20.8,20.8,0,0,1-2.287,1.355c-2.725,1.407-5.181,3.265-7.889,4.706-1.665.771-3.13,1.892-4.771,2.7-1.233.71-2.439,1.458-3.659,2.188-1.284.72-2.507,1.546-3.816,2.222-0.315.163-.632,0.33-0.941,0.5-0.825.394-1.586,0.9-2.371,1.355-0.826.4-1.59,0.9-2.382,1.356-1.845.962-3.629,2.032-5.44,3.054-2.235,1.2-4.162,2.881-6.377,4.115-2.137,1.219-4.108,2.711-6.262,3.9-1.043.533-2.025,1.169-3.072,1.695-2.728,1.665-5.575,3.112-8.412,4.573-1.94.985-3.846,2.032-5.773,3.044q-0.693.332-1.362,0.693c-1.189.578-2.307,1.285-3.483,1.886a48.8,48.8,0,0,1-4.393,2.375c-0.459.231-.914,0.459-1.369,0.683l-0.666.34-0.7.343c-1.682.832-3.415,1.553-5.1,2.378-1.236.584-2.507,1.1-3.737,1.7-1.543.768-3.16,1.369-4.675,2.184-0.374.17-.744,0.347-1.111,0.524a125.453,125.453,0,0,0-11.872,6.1c-1.9,1.074-3.669,2.416-5.766,3.085-0.669.275-1.338,0.534-2,.816-1.05.39-2.1,0.791-3.132,1.219-2.121.853-4.248,1.685-6.375,2.525-0.91.312-1.814,0.652-2.7,1.019q-0.876.3-1.716,0.669c-1.053.364-2.069,0.826-3.112,1.22-0.788.353-1.594,0.663-2.378,1.023-0.87.421-1.788,0.727-2.647,1.165-0.924.414-1.866,0.792-2.786,1.216-0.87.422-1.788,0.727-2.644,1.166-0.938.39-1.882,0.771-2.8,1.206-0.656.272-1.315,0.533-1.958,0.836-1.277.5-2.544,1.029-3.812,1.545-0.662.276-1.332,0.534-1.987,0.819-2.61,1-5.212,2.015-7.8,3.075-0.706.289-1.416,0.564-2.116,0.863-0.88.4-1.791,0.731-2.651,1.169-1.253.547-2.514,1.08-3.737,1.692-0.17.088-.513,0.258-0.683,0.346-1.906.938-3.87,1.753-5.762,2.725a36.519,36.519,0,0,1-3.949,1.522c-2.646.9-5.494,1.176-8.042,2.375a5.162,5.162,0,0,0-2.922,4.3,51.337,51.337,0,0,1-.316,5.507,25.325,25.325,0,0,0-.625,4.393,170.418,170.418,0,0,0,1.658,17.331c0.472,4.5,1.791,8.841,2.871,13.217,1.427,6.89,3.354,13.668,4.842,20.545,1.267,5.177,2.246,10.43,3.951,15.492,1.125,4.414,2.4,8.79,3.453,13.22,1.3,6.649,3.557,13.053,5.113,19.641,1.118,4.621,1.543,9.381,2.684,14,0.839,3.275,1.5,6.6,2.243,9.9a81.605,81.605,0,0,1,2.235,14.966c0.014,2.375.377,4.73,0.428,7.1,0.252,4.217.656,8.6,2.725,12.371,2.892,5.188,7.462,9.17,10.5,14.266,3.21,5.344,5.276,11.263,7.957,16.876,2.463,5,4.475,10.2,6.67,15.323,2.758,6.778,5.025,13.743,7.733,20.541,2.762,6.649,6.129,13.03,8.817,19.713a51.625,51.625,0,0,1,2.969,8.269,139.549,139.549,0,0,1,3.082,15.286c0.36,2.823.516,5.667,0.734,8.5,0.272,9.105,1.716,18.119,2.327,27.2,0.469,9.068.918,18.147,1.876,27.181a172.964,172.964,0,0,0,3.734,23.12c0.856,3.3,1.179,6.71,1.933,10.036a32.716,32.716,0,0,1,.309,7.947,111.911,111.911,0,0,1-1.671,12.941,71.837,71.837,0,0,0-1.424,10.835c-0.367,3.951-.18,7.927-0.445,11.885-0.2,13.158-3.479,26-4.662,39.068a173.245,173.245,0,0,1-2.388,18.428c-1.3,6.177-3.612,12.214-3.677,18.6a25.915,25.915,0,0,0,.517,6.972,25.667,25.667,0,0,1,3.34,6.466c0.492,1.144,1.913,2.266,1.821,3.57,0.19,3.17-.044,6.148-0.007,9.321,0,3.853-.014,7.7,0,11.554,0.316,4.318.353,8.833,0.86,13.138,0.88,9.316,2.422,18.691,3.557,27.98,1.3,9.044,2.85,17.875,4.757,26.846,0.766,3.943,2.688,7.445,3.058,11.554-0.523,8.072-1.482,16.112-2.719,24.127-1.145,8.161-2.972,16.444-4.2,24.591-1.41,8.8-2.432,17.661-2.986,26.549-0.466,3.594-.493,7.226-0.945,10.824-0.024,2.294-.19,4.556-0.04,6.863-0.374,7.56-.333,15.136-0.313,22.706-0.1,3.421.19,6.866-.282,10.27a32.563,32.563,0,0,1-.221,6.47c-0.431,3.08.024,6.22-.36,9.31a39.465,39.465,0,0,0-.17,5.23c0.024,2.16-.414,4.29-0.343,6.46-0.051,1.81.4,3.6,0.336,5.43,0.31,6.27,1.5,12.46,2.056,18.72,0.523,4.5.448,9.03,0.985,13.54a85.379,85.379,0,0,0,1.621,11.35c0.676,2.49.775,5.11,1.675,7.55a35.3,35.3,0,0,0,1.746,4.25c2.063,6.93,3.283,14.09,5.732,20.9,2.239,6.17,5.9,11.65,8.933,17.43a62.442,62.442,0,0,1-2.725,8.2c-2.406,3.03-4.808,6.06-7.013,9.24-3.143,4.61-6.829,8.89-9.2,13.98a27.861,27.861,0,0,0-3.589,9.66c-2,7.8-1.457,16.01.136,23.84,1.645,8.71,4.084,17.3,4.737,26.16-0.3,1.72-.184,3.5-0.585,5.2,0.965-1.2,1.638-2.66,2.878-3.61a15.033,15.033,0,0,1,3.527-1.17,57.365,57.365,0,0,1,13.913-.79,7.174,7.174,0,0,0,2.841-.83,22.9,22.9,0,0,1,7-1.43c1.135-3.88,2.291-7.76,3.422-11.64,2.049-7,4.291-13.96,6.051-21.04,1.587-6.65,4.112-13.02,5.966-19.59,4.281-14.76,9.4-29.26,14.325-43.82,2.273-6.92,4.886-13.73,7.648-20.47,2.467-6.15,5.059-12.26,7.883-18.26,3.17-6.61,6.353-13.21,9.384-19.88,5.372-11.88,11.3-23.49,16.571-35.41,3.034-7.19,6.438-14.22,9.533-21.39,2.375-5.54,5.223-10.86,7.832-16.3,3.425-6.788,6.232-13.869,9.561-20.7,3.085-6.7,6.357-13.315,9.459-20.012,2.81-5.986,5.076-12.221,8.093-18.112,1.353-2.456,3.092-5.015,5.81-6.061,3.218-.972,6.623-0.833,9.949-0.86,4.07,0.017,8.151.027,12.215,0.347,9.856,0.391,19.706.89,29.566,1.172,9.181,0.584,18.351-.493,27.535-0.455,3.73-.007,7.464.132,11.2,0.119,8.263,0.017,16.523-.9,24.786-0.275,4.427,0.363,8.814,1.158,13.261,1.338,3.969,0.394,7.944-.078,11.916-0.149,4.872-.316,9.734-0.731,14.614-0.945,13.026-.292,26.039,1.25,39.062.431,3.276-.166,6.565-0.1,9.84-0.366,14.393-.412,28.761-1.523,43.168-1.557,8.378-.23,16.76-0.455,25.112-1.178,4.3-.293,8.6-0.738,12.917-0.833,8.155-.486,16.336-0.146,24.494-0.53,4.3-.024,8.593-0.1,12.891-0.17,10.078-.5,20.165-0.853,30.26-0.917,4.532,0,9.048-.445,13.584-0.408,6.809-.105,13.546,1.441,20.365,1,3.965-.262,7.951-1.074,11.929-0.466a9.223,9.223,0,0,1,6.205,3.616c2.2,3.207,3.367,6.968,4.814,10.549,2.643,7.029,5.888,13.808,8.766,20.742,2.6,6.459,4.849,13.053,7.234,19.593,2.259,6.5,4.328,13.057,6.608,19.546,6.588,16.309,13.068,32.779,22.133,47.919,2.959,5.11,6.279,9.99,9.5,14.94,4.067,6.18,7.434,12.77,10.913,19.29a219.28,219.28,0,0,1,15.816,38.88c0.961,3.32,1.906,6.65,2.987,9.94,2,7.06,3.8,14.18,5.609,21.31,1.859,7.04,2.813,14.27,4.3,21.39a71.855,71.855,0,0,0,2.457,10.22c1.335,4.49,2.256,9.1,3.747,13.55,0.873,2.56,1.376,5.24,2.334,7.78a56.158,56.158,0,0,1,3.218,12.65c1.7,0.24,2.936,1.44,4.342,2.28a22.453,22.453,0,0,0,4.023.17,31.126,31.126,0,0,0,7.149-.42,7.462,7.462,0,0,1,6.34,1.3,69.187,69.187,0,0,1,1.57-16.96c0.5-2.45,1.44-4.77,2.055-7.18-0.285-4.17.122-8.36-.4-12.5,0-4.61-.442-9.19-0.89-13.76-0.636-2.31.394-4.54,0.689-6.79-0.411-5.73-.574-11.47-0.9-17.19-0.323-8.49-1.614-16.95-1.1-25.46,0.241-1.15-.694-1.92-1.285-2.75a27.542,27.542,0,0,1-3.421-6.05c-2.871-6.89-2.423-14.49-2.586-21.78-0.187-9.56.887-19.26,4.339-28.23a208.893,208.893,0,0,1,9.493-21.06,4.145,4.145,0,0,0,.551-3.05c-0.993-6.5-1.662-13.06-3.113-19.48-2.072-8.08-1.671-16.468-2.616-24.7-0.825-7.444-.7-14.939-0.8-22.417-0.153-5.11-.506-10.206-0.819-15.3-0.333-4.237.017-8.657-1.58-12.68a18.576,18.576,0,0,1-.126-11.412c1.359-4.563,3.891-8.661,6.452-12.632,1.73-2.66,3.9-4.984,5.851-7.468a82.568,82.568,0,0,1,.245-10.808,56.687,56.687,0,0,1,.309-6.635c0.425-10.879,2.623-21.615,3.275-32.477,0.4-2.28.044-4.6,0.425-6.883,0.252-3.126.061-6.266,0.136-9.4-0.027-6.35.306-12.693,0.3-19.043,0.1-8.5-.078-17,0.109-25.5-2.025-3.8-4.349-7.546-5.243-11.82-1.5-7.328.758-14.752,0.163-22.125-0.543-2.364-1.8-4.488-2.582-6.771a25.674,25.674,0,0,1-1-4.94c-0.364-1.848-.609-3.717-0.8-5.582-0.19-1.75-1.023-3.367-1.07-5.134-0.048-2.239-1.166-4.25-1.38-6.452-0.19-1.457-.078-2.925-0.2-4.379a105.57,105.57,0,0,1-1.071-11.6c-0.034-5.551-.336-11.1-0.4-16.648-0.285-4.07-.2-8.154-0.547-12.217a150.027,150.027,0,0,1-.224-19.719,67.157,67.157,0,0,0-.887-16.339,178.538,178.538,0,0,1-2.245-24.768c0.1-4.774.631-9.513,0.89-14.273,0.221-3.649-.751-7.22-0.731-10.852-0.149-3.86-.38-7.709-0.717-11.552-0.377-2.857.347-5.7,1.033-8.459,1.76-6.038,4.624-11.667,6.952-17.491,2.286-5.793,6-10.94,7.848-16.913a44.3,44.3,0,0,1,3.1-7.811c2.688-4.858,6.041-9.333,8.433-14.358,3.408-6.822,5.664-14.117,8.287-21.251a157.587,157.587,0,0,1,6.422-15.333c3.38-6.558,7.22-12.88,10.339-19.57a93.661,93.661,0,0,0,6.234-18.51,37.722,37.722,0,0,1,6.619-14.487c3.992-5.219,8.194-10.318,11.424-16.067a48.4,48.4,0,0,0,5.57-16.658c1.42-7.743-.39-15.558-2.05-23.1a44.965,44.965,0,0,1-.28-12.208c0.11-6.645,1.87-13.094,2.49-19.685,0.49-4.332,1.43-8.6,1.83-12.948,0.65-5.215.95-10.482,1.88-15.659,0.8-3.561,1.02-7.2,1.57-10.8,0.64-3.367.6-6.826,1.37-10.172,0.98-4.373,1.32-8.851,1.99-13.275,0.2-3.635.86-7.223,1.18-10.851a48.654,48.654,0,0,0,.7-5.769c0.64-4.75.93-9.53,1.25-14.307,0.1-3.405.3-7.088-1.61-10.087a12.391,12.391,0,0,0-4.75-5.474c-2.92-1.019-5.92-1.746-8.85-2.691-0.35-.115-0.69-0.227-1.01-0.339-2.47-.68-4.61-2.124-6.87-3.269-1.251-.666-2.457-1.413-3.731-2.021-0.554-.283-1.094-0.561-1.624-0.846-0.693-.333-1.369-0.677-2.038-1.016-0.469-.221-0.921-0.445-1.36-0.673-1.223-.625-2.493-1.135-3.73-1.706-0.7-.309-1.407-0.587-2.107-0.869-1.355-.6-2.731-1.149-4.1-1.7-0.649-.3-1.308-0.56-1.95-0.832-0.8-.337-1.617-0.639-2.392-1.016-0.707-.292-1.417-0.571-2.107-0.87-0.659-.292-1.321-0.554-1.97-0.829-0.578-.217-1.145-0.445-1.692-0.683-0.578-.217-1.145-0.441-1.7-0.676-0.587-.207-1.165-0.428-1.722-0.673-2.154-.794-4.288-1.644-6.463-2.374-5.7-1.923-11.365-3.982-17.175-5.552-4.07-1.114-8.062-2.473-12.048-3.832a27.467,27.467,0,0,1-3.034-1.159c-0.785-.377-1.6-0.659-2.382-1.019q-0.723-.251-1.406-0.527a29.715,29.715,0,0,0-3.361-1.148,12.794,12.794,0,0,1-1.7-.7q-3.964-1.554-7.791-3.4l-0.693-.34c-2.012-.982-3.755-2.415-5.759-3.394-1.526-.7-2.953-1.58-4.42-2.375-1.03-.452-2.06-0.89-3.069-1.362-3.329-2.042-7.226-3.133-10.165-5.769a135.269,135.269,0,0,0-17.356-11.219c-3.119-1.692-6.262-3.34-9.513-4.767-0.8-.343-1.618-0.645-2.406-1-0.819-.272-1.614-0.609-2.419-0.887-1.576-.581-3.15-1.155-4.736-1.692a15.077,15.077,0,0,0-1.706-.676c-0.578-.238-1.152-0.462-1.723-0.68a23.4,23.4,0,0,1-3.387-1.7c-1.485-.789-2.9-1.679-4.342-2.535-0.819-.408-1.6-0.887-2.375-1.349-2.243-1.175-4.084-2.935-6.181-4.322a50.3,50.3,0,0,0-9.448-5.194c-0.7-.316-1.41-0.6-2.12-0.873a21.654,21.654,0,0,0-2.522-1.013c-0.007-.166-0.013-0.492-0.02-0.659a1.081,1.081,0,0,1-1.186.221c-2.436-.989-4.821-2.1-7.152-3.313-1.247-.635-2.412-1.576-3.863-1.634a28.691,28.691,0,0,0-5.412-.35c-2.066.18-4.047,0.863-6.116,0.951-2.114.078-4.064,0.989-6.147,1.23a69.354,69.354,0,0,0-7.5,1.529c-2.966.69-5.712,2.046-8.582,3.017-2.09.605-3.395,2.773-5.651,2.908-3.1-.017-5.956,1.444-8.6,2.929a19.932,19.932,0,0,1-4.662,1.75c-3.088.734-5.776,2.541-8.823,3.387-4.24,1.23-8.736,1.091-12.966,2.334-2.81.775-5.694,1.227-8.494,2.035-2.7.819-5.416,1.628-8.164,2.284-1.7.37-2.583,2.028-3.915,2.983-7.427,5.826-14.178,12.537-22.176,17.609-3.089,2.015-6.113,4.138-9.334,5.939-5.123,2.922-10.111,6.082-15.357,8.783-2.518,1.182-5.018,2.4-7.465,3.72a6.481,6.481,0,0,1-4.26.639,4.5,4.5,0,0,1-2.824,1.715c-3.52.778-7.06,1.448-10.6,2.114C638.23,211.072,627.415,212.787,627.377,211.353Z" transform="translate(-0.563 -0.906)"/>
  <path id="Square" class="cls-5" d="M620,665H856V879H620V665h0Z" transform="translate(-0.563 -0.906)"/>
  <path id="Hoodie_Interior" data-name="Hoodie Interior" class="cls-6" d="M653.26,134.376c-4.233,4.015-8.612,7.882-12.819,11.928-5.239,4.951-10.213,9.84-15.119,15.126-4.074,4.2-8.291,8.593-12.555,12.608-4.308,4.421-8.939,8.508-13.275,12.9-3.8,3.686-6.873,8.032-10.6,11.779-1.8,1.835-3.581,3.687-5.395,5.5-0.116.034-.347,0.109-0.462,0.146-1.39-1.58-2.681-3.248-4.19-4.719-5.16-5.253-9.781-11.042-15.37-15.867-4.6-4-9.412-7.8-14.084-11.718-4.515-3.737-8.627-7.919-13.016-11.8-5.195-4.56-10.319-9.221-15.861-13.363-3.652-2.871-7.067-5.963-10.553-9.038,1.971,0.313,3.928.364,5.895,0.711,8.2,1.114,16.435-.48,24.657-0.279,7.951,0.054,15.826,1.437,23.784,1.264,2.283-.078,4.634.309,6.863-0.354,0.951-.268,1.5-1.189,2.334-1.641,1.02,0.123,1.991.507,3.021,0.588,2.759,0.17,5.409-.887,8.161-0.863,1.59-.01,3.173-0.183,4.767-0.258,9.619-.173,19.237-0.055,28.856-0.013a75.012,75.012,0,0,0,9.921-.374c4.628-.439,9.252-1.043,13.907-1.128C645.867,135.283,649.564,134.97,653.26,134.376Z" transform="translate(-0.563 -0.906)"/>
  <path id="Hood" class="cls-7" d="M770.236,72.942c0.873,1.24,1,2.874,1.936,4.07a25.3,25.3,0,0,1,3.313,4.193c1.6,2.348,3.4,4.553,5,6.9a25.534,25.534,0,0,0,5,5.48,77.373,77.373,0,0,1,9.415,9.687c3.068,3.8,6.306,7.464,9.54,11.123a54.212,54.212,0,0,0,7.407,6.184,24.455,24.455,0,0,1,4.482,4.063,18.387,18.387,0,0,1,3.472,9.055,13.7,13.7,0,0,1-1.6,6.965c-0.278,1.963.167,4.005-.472,5.935l-0.343.289a1.081,1.081,0,0,1-1.186.221c-2.436-.989-4.821-2.1-7.152-3.313-1.247-.635-2.412-1.576-3.863-1.634a28.691,28.691,0,0,0-5.412-.35c-2.066.18-4.047,0.863-6.116,0.951-2.114.078-4.064,0.989-6.147,1.23a69.354,69.354,0,0,0-7.5,1.529c-2.966.69-5.712,2.046-8.582,3.017-2.09.605-3.395,2.773-5.651,2.908-3.1-.017-5.956,1.444-8.6,2.929a19.932,19.932,0,0,1-4.662,1.75c-3.088.734-5.776,2.541-8.823,3.387-4.24,1.23-8.736,1.091-12.966,2.334-2.81.775-5.694,1.227-8.494,2.035-2.7.819-5.416,1.628-8.164,2.284-1.7.37-2.583,2.028-3.915,2.983-7.427,5.826-14.178,12.537-22.176,17.609-3.089,2.015-6.113,4.138-9.334,5.939-5.123,2.922-10.111,6.082-15.357,8.783-2.518,1.182-5.018,2.4-7.465,3.72a6.481,6.481,0,0,1-4.26.639,6.6,6.6,0,0,0,.057-2.474c-0.56-3.146-.734-6.336-1-9.513a42.225,42.225,0,0,1,.075-8.857,2.462,2.462,0,0,1,.689-1.913,17.881,17.881,0,0,1,4.852-2.626c2.844-1.145,5.943-1.295,8.956-1.618a53.476,53.476,0,0,0,10.5-1.627,35.921,35.921,0,0,1,6.462-.917,92.989,92.989,0,0,0,12.735-2.99c4.957-1.543,8.878-5.086,12.846-8.273,3.969-3.371,8.117-6.591,11.481-10.6,1.95-2.334,3.975-4.6,6-6.869,2.225-2.555,4.281-5.246,6.36-7.92,2.243-2.847,5.11-5.14,7.207-8.11a40.78,40.78,0,0,1,2.884-3.54c2.42-2.745,4.271-5.922,6.639-8.7a114.61,114.61,0,0,0,7.866-11.12c1.655-2.531,2.667-5.412,4.264-7.977,1.821-3.072,4-5.973,5.256-9.343,0.887-2.219,1.25-4.59,1.91-6.877a11.152,11.152,0,0,0,.523-5.232,17.827,17.827,0,0,1,.136-4.478c0.078-1.488-.615-2.9-0.442-4.386C768.921,70.641,769.413,71.926,770.236,72.942ZM381.325,83.27a22.926,22.926,0,0,1,.489,3.54,22.236,22.236,0,0,0,2.178,6.635c1.573,3.438,3.33,6.791,5.2,10.074,1.254,2.283,2.365,4.648,3.734,6.87a49.466,49.466,0,0,0,6.884,8.742c2.711,2.626,5.018,5.633,7.726,8.263,1.913,1.834,4.043,3.424,6.038,5.171a94.243,94.243,0,0,1,9.863,9.489c4.438,4.94,9.093,9.69,13.985,14.181,4.679,4.067,9.765,7.662,14.226,11.98,4.577,4.013,9.249,8.107,14.875,10.59a57.177,57.177,0,0,0,9.041,3.16c4.064,0.652,8.195.571,12.286,1,2.076,0.295,4.074-.534,6.133-0.571,3.1,0.367,5.769,2.229,8.831,2.776a21.336,21.336,0,0,1,8.049,2.969,22.285,22.285,0,0,0,9.911,3.758c-0.564,3.177-2.175,6.034-3.017,9.136-0.745,2.6-2.032,5.494-.517,8.079-2.14.792-4.369-.044-6.275-1.04-3.53-1.868-7.455-2.785-11.036-4.535-5.691-2.674-11.392-5.324-16.992-8.188a121.177,121.177,0,0,1-14.406-8.688,80.736,80.736,0,0,1-8.406-6.557c-1.243-1.131-2.5-2.249-3.8-3.316a2.833,2.833,0,0,0-1.546-.788c-4.617-.37-9.272-0.211-13.859-0.941a103.593,103.593,0,0,0-10.689-1.166c-4.152-.506-8.314-1-12.412-1.868a39.947,39.947,0,0,0-9.149-1.1c-7.971-.054-16.037-0.316-23.794-2.313-2.144-.466-4.319-0.778-6.466-1.206-4.4-.918-8.178-3.721-12.67-4.281-3.921-.636-7.74.642-11.484,1.593-1.73.149-3.1,1.26-4.563,2.055-2.035,1.142-4.006,2.4-6.082,3.469-0.924.449-1.726,1.227-2.779,1.336a23.018,23.018,0,0,1-1.5-4.587,15.309,15.309,0,0,1-.2-6.14,21.536,21.536,0,0,1-.078-4.053,23.706,23.706,0,0,1,3.187-7.287c1.124-2.08,3.037-3.537,4.641-5.222a33.542,33.542,0,0,1,11.263-6.085,35.375,35.375,0,0,0,6.656-3.894,50.374,50.374,0,0,0,12.126-10.964,74.281,74.281,0,0,0,1.159-8.674c-0.153-1.817.36-3.591,0.34-5.4-0.105-3.224.7-6.38,1.05-9.567,0.1-.1.295-0.282,0.394-0.374a1.144,1.144,0,0,0,.173-1.308l0.194-.343a1.562,1.562,0,0,0,.217-1.274c0.007-2.619,1.237-5.246.479-7.9,0.493-.112.31-0.788-0.068-0.924-0.054-.1-0.166-0.289-0.221-0.384a0.692,0.692,0,0,0-.108-1.057l-0.286-.255A8.274,8.274,0,0,1,381.325,83.27ZM667.374,0.924c0.109,0,.323,0,0.429,0a26.549,26.549,0,0,0,5.3.33l0.027,0.007a7.4,7.4,0,0,0,3.425.3l0.251,0.1a3.132,3.132,0,0,0,2.276.2l0.415,0.139a2.96,2.96,0,0,0,1.943.251l0.313-.02a78.332,78.332,0,0,0,12.83.768l0.557,0.326a1.391,1.391,0,0,0,1.688.109c0.17,0.068.507,0.2,0.677,0.265a1.552,1.552,0,0,0,1.345.234L699.2,4.053c0.251,0.251.944,0.462,1.012-.085,0.17,0.095.51,0.289,0.676,0.384,0.33,0.411.527,0.381,0.6-.1l0.347,0.289c0.649,0.69,1.644.649,2.511,0.815l0.023,0.007c1.1,0.37,2.321,1.213,3.5.737l0.221,0.234a0.793,0.793,0,0,0,.955.309l0.315,0.109A1.478,1.478,0,0,0,710.4,7l0.357,0.1a1.634,1.634,0,0,0,2.008.394L713,7.338l0.183,0.377c0.177,0.465.792,0.343,1.2,0.36l0.4,0.024a0.952,0.952,0,0,0,.982.265l0.1-.024a27.369,27.369,0,0,0,6.2,1.763l0.241,0.038a1.571,1.571,0,0,0,1.627.567l0.483,0.088,0.163,0.027-0.054-.105c0.125,0.109.37,0.323,0.5,0.428a1.542,1.542,0,0,0,1.644.877,1.775,1.775,0,0,1,1.363.673,7.87,7.87,0,0,0,2,1.373l0.089,0.058a7.124,7.124,0,0,0,2.178,1.525,28.26,28.26,0,0,0,3.74,1.872l0.167,0.054a17.692,17.692,0,0,0,2.705,2.226l0.278,0.211a1.3,1.3,0,0,0,1.373,1.179l0.387,0.027c0.048,0.075.139,0.231,0.184,0.306a15.524,15.524,0,0,0,2.85,3.146,24.953,24.953,0,0,0,3.452,3.241c1.07,0.873,1.961,1.947,2.973,2.888A5.363,5.363,0,0,1,752.055,33a1.444,1.444,0,0,0,1.09,1.474l0.354,0.1c0.017,0.177.054,0.527,0.071,0.7a3.362,3.362,0,0,0,.2,1.077c0.1,0.03.3,0.095,0.4,0.126l0.408,0.122-0.211.272a0.659,0.659,0,0,0,.5,1.077l-0.01.326c0.071,0.163.221,0.489,0.3,0.652l0.034,0.136a14.587,14.587,0,0,0,1.434,4.57l-0.024.095a0.7,0.7,0,0,0,.272.945l0.01,0.133c0.235,2.463.327,5.124,1.7,7.274l0.013,0.047a22.112,22.112,0,0,0,8.233,12.5l-0.01.166a0.652,0.652,0,0,0,.567.744l0.306,0.357a11.052,11.052,0,0,1,.139,3.985c-0.173,1.488.52,2.9,0.442,4.386a17.827,17.827,0,0,0-.136,4.478,11.152,11.152,0,0,1-.523,5.232c-0.66,2.287-1.023,4.658-1.91,6.877-1.257,3.37-3.435,6.272-5.256,9.343-1.6,2.565-2.609,5.446-4.264,7.977a114.61,114.61,0,0,1-7.866,11.12c-2.368,2.783-4.219,5.96-6.639,8.7a40.78,40.78,0,0,0-2.884,3.54c-2.1,2.97-4.964,5.263-7.207,8.11-2.079,2.674-4.135,5.365-6.36,7.92-2.029,2.266-4.054,4.535-6,6.869-3.364,4.01-7.512,7.23-11.481,10.6-3.968,3.187-7.889,6.73-12.846,8.273a92.989,92.989,0,0,1-12.735,2.99,35.921,35.921,0,0,0-6.462.917,53.476,53.476,0,0,1-10.5,1.627c-3.013.323-6.112,0.473-8.956,1.618a17.881,17.881,0,0,0-4.852,2.626,2.462,2.462,0,0,0-.689,1.913,42.225,42.225,0,0,0-.075,8.857c0.268,3.177.442,6.367,1,9.513a6.6,6.6,0,0,1-.057,2.474,4.5,4.5,0,0,1-2.824,1.715c-3.52.778-7.06,1.448-10.6,2.114a22.3,22.3,0,0,1-.075-4.261c-0.479-4.624-.19-9.286-0.438-13.92a13.406,13.406,0,0,0-.618-4.478,6.259,6.259,0,0,0-3.724-1.916c-1.39-.21-2.331.982-3.279,1.77a8.039,8.039,0,0,0-2.6,5.27c-0.323,2.106-.826,4.294-0.2,6.4,0.425,1.375-.292,2.762-0.078,4.151a18.269,18.269,0,0,1,.221,3.411c-0.112,1.482.387,2.922,0.329,4.4-0.071,1.715.038,3.435,0.041,5.154-0.054-1.437-.312-2.858-0.35-4.292-8.868.948-17.8,1.859-26.729,1.2-4.067-.3-8.121-0.815-12.2-0.921a16.629,16.629,0,0,1-5.453-1.376,17.79,17.79,0,0,1-5.494,1.376c-3.171.126-6.314,0.578-9.47,0.836a180.241,180.241,0,0,1-21.015.788,11.173,11.173,0,0,0-.822-3.737c-0.557-1.305-.149-2.783-0.693-4.081-0.788-1.865-.384-3.995-1.254-5.84a7.275,7.275,0,0,1-.594-3.034c-0.027-1.162-.883-2.079-1.023-3.214,0.272-1.423.082-3.35-1.271-4.152a5.936,5.936,0,0,0-4.593-2.592,8.71,8.71,0,0,0-4.713,2.854c-0.459.537-1.148,1.155-.927,1.94a15.161,15.161,0,0,1,.485,3.119c0.045,1.25,1.166,2.147,1.241,3.391a9.762,9.762,0,0,0,.788,3.479c0.479,1.049.255,2.215,0.36,3.329,0.18,0.989.717,1.869,0.931,2.851,0.105,0.74,0,1.5.085,2.242,0.231,0.8.635,1.542,0.887,2.344-3.588-.295-7.122-1.022-10.7-1.352-2.681-.391-5.64-0.02-7.954-1.692-1.515-2.585-.228-5.483.517-8.079,0.842-3.1,2.453-5.959,3.017-9.136a22.285,22.285,0,0,1-9.911-3.758,21.336,21.336,0,0,0-8.049-2.969c-3.062-.547-5.729-2.409-8.831-2.776-2.059.037-4.057,0.866-6.133,0.571-4.091-.428-8.222-0.347-12.286-1a57.177,57.177,0,0,1-9.041-3.16c-5.626-2.483-10.3-6.577-14.875-10.59-4.461-4.318-9.547-7.913-14.226-11.98-4.892-4.491-9.547-9.241-13.985-14.181a94.243,94.243,0,0,0-9.863-9.489c-2-1.747-4.125-3.337-6.038-5.171-2.708-2.63-5.015-5.637-7.726-8.263a49.466,49.466,0,0,1-6.884-8.742c-1.369-2.222-2.48-4.587-3.734-6.87-1.875-3.282-3.632-6.635-5.2-10.074a22.236,22.236,0,0,1-2.178-6.635,22.926,22.926,0,0,0-.489-3.54,8.274,8.274,0,0,0-1.064,2.619,6.16,6.16,0,0,1,.629-2.674c0.8-1.2.367-2.823,1.3-3.948a3.97,3.97,0,0,0,1.41-2.783l0.047-.221c0.055-.17.163-0.516,0.221-0.686l0.014-.037a15.012,15.012,0,0,0,1.407-4.978l0.023-.108c0.309-.914.918-1.923,0.428-2.891,0.062-.037.184-0.112,0.245-0.153a1.1,1.1,0,0,0,.3-1.227l-0.027-.143a5.207,5.207,0,0,0,.734-2.609l0.071-.245a7.287,7.287,0,0,0,.622-2.654l0.02-.224a1.059,1.059,0,0,0,.262-1l0.105-.37a1.751,1.751,0,0,0,.241-1.046l0.085-.3c0.252-.245.53-0.89,0.017-1.009,0.041-.105.119-0.316,0.16-0.425a8.863,8.863,0,0,0,.54-2.8c0.031-.071.095-0.214,0.129-0.285l0.051-.115a7.233,7.233,0,0,0,.466-2.606c0.048-.037.136-0.109,0.183-0.146l0.255-.2c0.251-.758.771-1.678,0.289-2.439l0.109-.068,0.275-.173a13.1,13.1,0,0,0,.89-3.4l0.01-.02a6.984,6.984,0,0,0,.986-3.041L392.8,40.6c0.064-.17.19-0.506,0.255-0.673l0.013-.061a5.39,5.39,0,0,0,1.03-2.834l0.051-.336,0.006-.051,0.031-.031,0.333-.346a1.3,1.3,0,0,0,.584-1.108l0.062-.5,0.068-.082,0.142-.149a14.154,14.154,0,0,0,2.117-2.946A6.808,6.808,0,0,0,398.83,28.9c0.03-.112.088-0.336,0.119-0.449l0.278-.017a0.572,0.572,0,0,0,.619-0.673l0-.312,0.163-.092a3.107,3.107,0,0,0,1.869-2.185l0.061-.191a2.443,2.443,0,0,1,1.108-1.026,1.471,1.471,0,0,0,1.274-1.227,2.265,2.265,0,0,1,.978-1.043c0.021-.017.065-0.048,0.085-0.065,0.116-.081.347-0.241,0.462-0.319a9.956,9.956,0,0,0,3.527-3l0.044-.068,0.133-.024a3.879,3.879,0,0,0,2.8-1.454l0.129-.119c0.021-.014.061-0.044,0.082-0.061l0.574-.33,0.095-.051c0.075-.037.224-0.116,0.3-0.156,0.9,0.272,1.655-.374,2.4-0.758a6.625,6.625,0,0,0,2.331-1.6l0.36-.163c0.027-.024.085-0.065,0.112-0.088l0.439,0.02c0.159-.078.478-0.238,0.638-0.316,0.095-.075.279-0.218,0.371-0.292,0.547,0.554,1.26.092,1.725-.323l0.337-.112a0.89,0.89,0,0,0,.982-0.275l0.248-.377,0.1,0.133c0.214,0.452.792,0.214,1.06-.058l0.33-.068a2.76,2.76,0,0,0,1.393-.251l0.37-.1a1.77,1.77,0,0,0,1.573-.282c0.1-.075.282-0.227,0.374-0.306a1.031,1.031,0,0,0,1.4.027l0.084-.031a10.153,10.153,0,0,0,3.949-.815l0.163,0.027A3.174,3.174,0,0,0,436.5,9.8c0.15-.037.449-0.115,0.6-0.153,1.4,0.065,3.01.472,4.261-.346l0.19-.126,0.082,0.037a2,2,0,0,0,2.021-.092l0.238-.092c2.311,0.088,4.624.1,6.935,0.014a7.428,7.428,0,0,0,3.255-.721l0.234-.115,0.265,0.065a2.117,2.117,0,0,0,1.964-.194c0.1-.075.3-0.227,0.4-0.3l0.136,0.041c1.6,0.544,3.3,0,4.94.065,3.191,0.058,6.341-.544,9.528-0.54,4.627-.285,9.272-0.187,13.9-0.567,2.5-.024,4.981-0.479,7.488-0.4a6.621,6.621,0,0,0,2.634-.37c0.1-.017.292-0.048,0.39-0.061,3.633,0.241,7.285-.02,10.927.081,5.882,0.007,11.766.014,17.648-.041,3.4-.017,6.8-0.37,10.206-0.3,5.559,0.071,11.118-.119,16.666-0.476,2.674-.346,5.484,0,8.056-0.945l0.126,0.02a2.5,2.5,0,0,0,1.641-.245l0.37-.109a2.344,2.344,0,0,0,1.651-.258l0.228-.105c1.481,0.054,2.946.3,4.43,0.37l0.316,0.061c0.024,0.014.065,0.041,0.089,0.054l0.431,0.33a0.828,0.828,0,0,0,1.407-.357l0.3-.347,0.112-.041,0.533-.058c0.157-.078.473-0.234,0.629-0.316l0.194-.377,0.129,0.17c0.207,0.449.785,0.224,1.046-.065l0.214-.143c2.766,0.34,5.549.506,8.328,0.758,3.061,0.194,6.109-.343,9.174-0.289a43.478,43.478,0,0,0,5.871-.251c4.845-.16,9.67-0.771,14.521-0.846,3.12-.377,6.266-0.153,9.385-0.5,2.3-.183,4.6-0.068,6.9-0.18,4.186-.245,8.379-0.007,12.568-0.217,5.66-.065,11.321-0.061,16.985-0.16,3.442-.129,6.9.2,10.335-0.248M623.059,32.236c-3.184,0-6.344.506-9.527,0.394-3.293.116-6.626-.982-9.877-0.092a23.58,23.58,0,0,1-5.725.364c-5.692.02-11.362,0.448-17.019,1.03-2.4.306-4.716-.962-7.115-0.476-1.074.085-2.1,0.924-3.177,0.493-1.824-.693-3.788-0.245-5.657-0.051-3.51.075-7.023,0.065-10.529,0.129-3.741.459-7.445,1.233-11.213,1.454-4.349.53-8.732-.051-13.088,0.272-8.392,1.288-16.967.1-25.346,1.519-6.629,1.7-13.553,1.675-20.335,1.193-3.659-.218-7.261.537-10.886,0.846-5.1.781-10.292,0.87-15.354,1.916-2.481.466-4.842,1.491-7.377,1.627-3.853.6-7.78,0.676-11.6,1.519-2.236.428-4.322,1.356-6.52,1.916-3.01.822-5.684,2.565-8.752,3.187a39.258,39.258,0,0,0-4.944,1.658,36.086,36.086,0,0,0,2.633,3.669c1.781,2.31,3.354,4.784,5.283,6.978,2.6,3.194,4.706,6.792,7.632,9.717,4.23,4.03,7.974,8.548,12.4,12.374,4.03,3.778,7.733,7.9,11.909,11.524,2.769,2.562,5.45,5.218,8.229,7.773,3.931,3.422,7.842,6.867,11.919,10.111,5.8,4.913,12.106,9.177,17.987,13.991,4.4,3.418,8.525,7.2,12.942,10.59,3.486,3.075,7.241,5.827,10.893,8.7,5.542,4.142,10.665,8.8,15.861,13.363,4.389,3.88,8.5,8.062,13.016,11.8,4.672,3.914,9.143,8.059,13.744,12.058,5.589,4.825,10.21,10.614,15.37,15.867,1.509,1.471,2.8,3.139,4.19,4.719,0.115-.037.346-0.112,0.462-0.146,1.814-1.814,3.595-3.666,5.395-5.5,3.731-3.747,6.806-8.093,10.6-11.779,4.336-4.393,8.967-8.48,13.275-12.9,4.264-4.015,8.141-8.408,12.215-12.608,4.906-5.286,10.22-10.175,15.459-15.126,4.207-4.046,8.586-7.913,12.819-11.928,4.428-3.952,8.675-8.114,12.929-12.259,4.25-4.009,8.511-8.014,12.632-12.163,9.442-9.364,18.307-19.315,28.126-28.3,2.793-2.521,5.114-5.487,7.642-8.266,1.994-2.351,3.645-4.967,5.51-7.424,1.584-2.4,3.259-4.743,4.666-7.254a61.182,61.182,0,0,0,4.328-8.857,90.752,90.752,0,0,0-13.455-7.026c-4.7-1.59-9.2-3.744-13.886-5.375a89.255,89.255,0,0,0-11.712-2.144c-4.389-.775-8.878-0.571-13.261-1.315-4.315-.428-8.626-0.873-12.962-1.016a77.7,77.7,0,0,0-12.541-.173c-3.849.513-7.709-.18-11.565-0.119-1.634.085-3.106-.826-4.73-0.785-1.621-.149-3.18.435-4.787,0.374C627.812,32.219,625.434,32.168,623.059,32.236Z" transform="translate(-0.563 -0.906)"/>
  <path id="Hood_interior" data-name="Hood interior" class="cls-1" d="M634.981,31.9c1.624-.041,3.1.87,4.73,0.785,3.856-.061,7.716.632,11.565,0.119a77.7,77.7,0,0,1,12.541.173c4.336,0.143,8.647.588,12.962,1.016,4.383,0.744,8.872.54,13.261,1.315a89.255,89.255,0,0,1,11.712,2.144c4.689,1.631,9.184,3.785,13.886,5.375a90.752,90.752,0,0,1,13.455,7.026,61.182,61.182,0,0,1-4.328,8.857c-1.407,2.511-3.082,4.859-4.666,7.254-1.865,2.457-3.516,5.073-5.51,7.424-2.528,2.779-4.849,5.745-7.642,8.266-9.819,8.986-18.684,18.937-28.126,28.3-4.121,4.149-8.382,8.154-12.632,12.163-4.254,4.145-8.5,8.307-12.929,12.259-3.7.594-7.393,1.247-11.137,1.477-4.655.086-9.279,0.69-13.907,1.129a75.012,75.012,0,0,1-9.921.373c-9.619-.041-19.237-0.159-28.856.014-1.594.075-3.177,0.248-4.767,0.258-2.752-.024-5.4,1.033-8.161.863-1.03-.081-2-0.465-3.021-0.588-0.839.452-1.383,1.373-2.334,1.641-2.229.663-4.58,0.276-6.863,0.354-7.958.173-15.833-1.21-23.784-1.264-8.222-.2-16.455,1.393-24.657.278-1.967-.346-3.924-0.737-5.895-1.05-4.417-3.394-8.538-7.172-12.942-10.59-5.881-4.814-12.187-9.078-17.987-13.991-4.077-3.244-7.988-6.689-11.919-10.111-2.779-2.555-5.46-5.211-8.229-7.773C454.7,91.771,451,87.649,446.971,83.871c-4.427-3.826-8.171-8.344-12.4-12.374-2.926-2.925-5.036-6.523-7.632-9.717-1.929-2.195-3.5-4.668-5.283-6.978a36.086,36.086,0,0,1-2.633-3.669,39.258,39.258,0,0,1,4.944-1.658c3.068-.622,5.742-2.365,8.752-3.187,2.2-.56,4.284-1.488,6.52-1.916,3.816-.842,7.743-0.917,11.6-1.519,2.535-.136,4.9-1.162,7.377-1.627,5.062-1.046,10.257-1.135,15.354-1.916,3.625-.309,7.227-1.064,10.886-0.846,6.782,0.483,13.706.506,20.335-1.193,8.379-1.42,16.954-.231,25.346-1.519,4.356-.323,8.739.258,13.088-0.272,3.768-.221,7.472-1,11.213-1.454,3.506-.064,7.019-0.054,10.529-0.129,1.869-.194,3.833-0.642,5.657.051,1.077,0.432,2.1-.408,3.177-0.493,2.4-.486,4.716.781,7.115,0.476,5.657-.581,11.327-1.009,17.019-1.03a23.58,23.58,0,0,0,5.725-.364c3.251-.89,6.584.207,9.877,0.092,3.183,0.112,6.343-.394,9.527-0.394,2.375-.068,4.753-0.017,7.135.037C631.8,32.334,633.36,31.75,634.981,31.9Zm-38.3-28.825a43.478,43.478,0,0,1-5.871.251c-3.065-.054-6.113.483-9.174,0.289-2.779-.251-5.562-0.418-8.328-0.758L573.089,3c-0.261.289-.839,0.513-1.046,0.065l-0.129-.17-0.194.377c-0.156.082-.472,0.238-0.629,0.316l-0.533.058-0.112.041-0.3.347a0.828,0.828,0,0,1-1.407.357l-0.431-.33c-0.024-.014-0.065-0.041-0.089-0.054L567.9,3.944c-1.484-.068-2.949-0.316-4.43-0.37l-0.228.105a2.344,2.344,0,0,1-1.651.258l-0.37.109a2.5,2.5,0,0,1-1.641.245l-0.126-.02c-2.572.948-5.382,0.6-8.056,0.945-5.548.357-11.107,0.547-16.666,0.476-3.407-.071-6.8.282-10.206,0.3-5.882.054-11.766,0.048-17.648,0.041-3.642-.1-7.294.16-10.927-0.081-0.1.014-.292,0.044-0.39,0.061a6.621,6.621,0,0,1-2.634.37c-2.507-.081-4.984.374-7.488,0.4-4.624.381-35.655,2.923-35.655,2.923s-25.993,3.145-34.317,8.835c-11,7.7-7.427,18.778-7.135,20.049s8.589,11.55,8.494,11.894S430.5,68.4,432.46,70.869s17.475,18.567,18.687,19.37,11.188,12.017,19.706,18.01,30.467,24.934,36.016,29.224c3.156,2.507,6.207,5.017,8.834,6.8,9.279,6.15,35.18,29.426,51.984,45.2,8.806,8.264,14.682,15.186,15.289,14.952,1.754,0.672,6.763-6.168,8.155-7.476,15.711-14.842,92.885-91.418,96.494-93.111,5.494-6.039,17.076-16.853,18.007-17.67s10.988-11.583,12.911-14.612,10.446-16.348,11.213-18.69,5.382-11.879,6.116-12.573,8.751-18.1-18.348-27.865c-3.7-1.447-8.18-2.31-10.533-3.058S695.245,5.561,688.3,4.6s-42.272-4.487-72.71-2.039C604.034,3.095,601.521,2.915,596.676,3.074Zm26.383,29.161c-3.184,0-6.344.506-9.527,0.394-3.293.116-6.626-.982-9.877-0.092a23.58,23.58,0,0,1-5.725.364c-5.692.02-11.362,0.448-17.019,1.03-2.4.306-4.716-.962-7.115-0.476-1.074.085-2.1,0.924-3.177,0.493-1.824-.693-3.788-0.245-5.657-0.051-3.51.075-7.023,0.065-10.529,0.129-3.741.459-7.445,1.233-11.213,1.454-4.349.53-8.732-.051-13.088,0.272-8.392,1.288-16.967.1-25.346,1.519-6.629,1.7-13.553,1.675-20.335,1.193-3.659-.218-7.261.537-10.886,0.846-5.1.781-10.292,0.87-15.354,1.916-2.481.466-4.842,1.491-7.377,1.627-3.853.6-7.78,0.676-11.6,1.519-2.236.428-4.322,1.356-6.52,1.916-3.01.822-5.684,2.565-8.752,3.187a39.258,39.258,0,0,0-4.944,1.658,36.086,36.086,0,0,0,2.633,3.669c1.781,2.31,3.354,4.784,5.283,6.978,2.6,3.194,4.706,6.792,7.632,9.717,4.23,4.03,7.974,8.548,12.4,12.374,4.03,3.778,7.733,7.9,11.909,11.524,2.769,2.562,5.45,5.218,8.229,7.773,3.931,3.422,7.842,6.867,11.919,10.111,5.8,4.913,12.106,9.177,17.987,13.991,4.4,3.418,8.525,7.2,12.942,10.59,3.486,3.075,7.241,5.827,10.893,8.7,5.542,4.142,10.665,8.8,15.861,13.363,4.389,3.88,8.5,8.062,13.016,11.8,4.672,3.914,9.143,8.059,13.744,12.058,5.589,4.825,10.21,10.614,15.37,15.867,1.509,1.471,2.8,3.139,4.19,4.719,0.115-.037.346-0.112,0.462-0.146,1.814-1.814,3.595-3.666,5.395-5.5,3.731-3.747,6.806-8.093,10.6-11.779,4.336-4.393,8.967-8.48,13.275-12.9,4.264-4.015,8.141-8.408,12.215-12.608,4.906-5.286,10.22-10.175,15.459-15.126,4.207-4.046,8.586-7.913,12.819-11.928,4.428-3.952,8.675-8.114,12.929-12.259,4.25-4.009,8.511-8.014,12.632-12.163,9.442-9.364,18.307-19.315,28.126-28.3,2.793-2.521,5.114-5.487,7.642-8.266,1.994-2.351,3.645-4.967,5.51-7.424,1.584-2.4,3.259-4.743,4.666-7.254a61.182,61.182,0,0,0,4.328-8.857,90.752,90.752,0,0,0-13.455-7.026c-4.7-1.59-9.2-3.744-13.886-5.375a89.255,89.255,0,0,0-11.712-2.144c-4.389-.775-8.878-0.571-13.261-1.315-4.315-.428-8.626-0.873-12.962-1.016a77.7,77.7,0,0,0-12.541-.173c-3.849.513-7.709-.18-11.565-0.119-1.634.085-3.106-.826-4.73-0.785-1.621-.149-3.18.435-4.787,0.374C627.812,32.219,625.434,32.168,623.059,32.236Z" transform="translate(-0.563 -0.906)"/>
  <path id="Plastic_parts" data-name="Plastic parts" class="cls-8" d="M565.251,579.647a2.557,2.557,0,0,1,2.113,2.164c1.719,7.1,3.262,14.249,4.757,21.4a27.341,27.341,0,0,1,.829,7.869,6.311,6.311,0,0,1-3.724,5.215c-2.83,1.247-5.99,1.182-9.017,1.356-3.191-.038-6.6.03-9.487-1.526a5.9,5.9,0,0,1-2.959-4.359c-0.384-3.207.377-6.394,1-9.52,1.4-6.778,2.933-13.529,4.489-20.269a2.82,2.82,0,0,1,1.566-2.1A31.19,31.19,0,0,1,565.251,579.647Zm98.848,0.4a2.814,2.814,0,0,1,1.852,2.035c1.512,5.487,2.816,11.028,4.152,16.563,0.751,3.3,1.587,6.591,2.018,9.955a8.376,8.376,0,0,1-1.172,5.857,8.11,8.11,0,0,1-5.042,2.762,41.74,41.74,0,0,1-8.858.513,15.427,15.427,0,0,1-6.778-1.26,6.04,6.04,0,0,1-3.313-4.359c-0.5-2.151-.037-4.342.265-6.479,1.332-7.692,2.98-15.33,4.573-22.971a2.583,2.583,0,0,1,1.6-2.286A31.879,31.879,0,0,1,664.1,580.044Z" transform="translate(-0.563 -0.906)"/>
  <path id="Laces" class="cls-9" d="M633.293,185.087A6.259,6.259,0,0,1,637.017,187a13.406,13.406,0,0,1,.618,4.478c0.248,4.634-.041,9.3.438,13.92a22.3,22.3,0,0,0,.075,4.261c0.082,1.41-.007,2.833.21,4.24,0.32,2.28-.125,4.59.218,6.873,0.258,1.539.132,3.122,0.459,4.655,0.384,1.59-.079,3.22.139,4.824,0.312,2.124.211,4.288,0.662,6.394,0.034,1.818.1,3.632,0.3,5.44-0.177,2.986.758,5.877,0.812,8.854,0.373,2.711.353,5.456,0.863,8.154,0.139,2.83.843,5.619,0.737,8.466-0.1,1.077.493,2.042,0.646,3.089,0.316,2.28,1.192,4.461,1.25,6.781,0,1.971.863,3.792,1.019,5.749,0.626,2.633.809,5.358,1.631,7.947,0.483,1.393.143,2.881,0.4,4.3,0.832,2.34.961,4.851,1.7,7.223,0.588,1.852.255,3.876,1.03,5.68,0.343,1.224.186,2.538,0.628,3.748,0.87,2.456.751,5.13,1.651,7.576,0.5,1.142-.265,2.379.225,3.527a14.822,14.822,0,0,1,.676,3.849c0.057,1.72.584,3.374,0.686,5.09a14.78,14.78,0,0,0,.391,3.87c0.526,1.607.112,3.34,0.587,4.96,0.663,2.222.167,4.59,0.85,6.809,0.489,1.5-.3,3.088.316,4.566,0.645,2,.075,4.118.516,6.146,0.4,2.018-.017,4.091.388,6.109,0.346,1.709-.109,3.472.329,5.171,0.507,2.144.092,4.373,0.544,6.53,0.449,1.74-.289,3.527.183,5.26a8.286,8.286,0,0,1,.306,2.551c-0.17,2.161.279,4.3,0.163,6.462-0.068,1.716.49,3.405,0.255,5.12-0.316,1.944.615,3.812,0.4,5.766-0.18,2.168.54,4.3,0.288,6.465-0.176,1.591.384,3.157,0.15,4.743-0.364,2.032.353,4.054,0.115,6.092-0.2,2.059.3,4.111,0.072,6.167-0.211,1.7.211,3.408-.017,5.113-0.245,1.808.425,3.6,0.146,5.412-0.384,2.368.479,4.733,0.078,7.111-0.367,1.57.316,3.126,0.068,4.7-0.3,2.056.224,4.115,0.034,6.177-0.231,2.039.313,4.094-.156,6.116-0.4,1.654.421,3.282,0.136,4.94-0.269,1.964.176,3.941-.014,5.915-0.2,2.286.387,4.59-.1,6.856-0.357,1.346.36,2.664,0.234,4.026-0.187,2.5.377,4.978,0.187,7.478-0.166,1.6.506,3.177,0.126,4.774-0.363,1.929.428,3.829,0.177,5.759-0.214,2.052.632,4.06,0.3,6.115-0.312,1.92.4,3.822,0.106,5.752-0.31,1.95.465,3.866,0.18,5.813-0.248,1.577.207,3.143,0.193,4.726a33.4,33.4,0,0,0,.027,4.149c0.283,2.025-.3,4.077.187,6.088,0.364,1.563-.4,3.133-0.027,4.7,0.523,2.246-.078,4.553.309,6.819,0.354,1.865-.268,3.747.116,5.609,0.316,1.746-.211,3.53.194,5.27,0.5,2.12.033,4.308,0.448,6.438a24.439,24.439,0,0,1,.112,4.437c-0.047,1.482.537,2.946,0.177,4.427-0.445,1.4.554,2.667,0.492,4.06a22.454,22.454,0,0,0,.442,6.357,31.879,31.879,0,0,0-10.706.33c0.068-1.8-.635-3.527-0.445-5.318,0.2-1.94-.38-3.856-0.251-5.8,0.149-1.933-.459-3.822-0.333-5.755,0.142-2.4-.745-4.747-0.4-7.142,0.305-1.654-.527-3.258-0.238-4.909a9.727,9.727,0,0,0-.055-3.061c-0.445-2.131.058-4.3-.2-6.439-0.262-1.987.19-3.992-.147-5.973a20.865,20.865,0,0,1,.068-4.09c0.017-1.244-.438-2.45-0.3-3.69a15.481,15.481,0,0,0-.122-3.781c-0.36-1.975.435-3.969-.106-5.929a8.2,8.2,0,0,1,.242-3.6c-0.034-1.485-.792-2.9-0.52-4.4,0.357-2.164-.411-4.305-0.19-6.473a15.033,15.033,0,0,0-.245-3.74c-0.258-1.461.6-2.939,0.031-4.363-0.772-1.882.329-3.883-.2-5.816-0.581-2.358.2-4.791-.411-7.135-0.449-1.6.561-3.19,0.112-4.791-0.55-2-.088-4.067-0.275-6.1a25.476,25.476,0,0,1,.024-3.717c0.105-1.821-.231-3.639-0.041-5.457a14.941,14.941,0,0,0-.17-3.394,27.973,27.973,0,0,1,.18-3.727c-0.044-1.022-.34-2.011-0.329-3.03a26.99,26.99,0,0,0,.179-3.775,12.891,12.891,0,0,1-.006-4.39c0.289-1.488-.4-2.932-0.269-4.416a14.23,14.23,0,0,0-.115-3.745c-0.3-1.589.214-3.163,0.224-4.749,0.007-1.145-.5-2.256-0.292-3.4,0.37-1.93-.354-3.846-0.1-5.783a32.3,32.3,0,0,0-.2-4.756,18.677,18.677,0,0,0,.122-5.073c-0.448-1.794-.007-3.645-0.326-5.45-0.381-1.916.01-3.88-.36-5.792a13.033,13.033,0,0,1-.068-3.394c0.108-1.488-.574-2.922-0.34-4.41,0.3-1.941-.442-3.846-0.241-5.786a10.725,10.725,0,0,0-.112-3.327,14.532,14.532,0,0,1-.055-3.8c0.048-1.155-.523-2.228-0.472-3.38a18.286,18.286,0,0,0-.211-4.247c-0.336-1.5.068-3.041-.21-4.542a18.5,18.5,0,0,1-.258-3.809c0.064-1.713-.615-3.364-0.442-5.076,0.282-2.178-.744-4.291-0.313-6.459,0.381-1.63-.628-3.129-0.56-4.746a15.886,15.886,0,0,0-.4-3.778c-0.377-1.655.02-3.388-.469-5.022a12.288,12.288,0,0,1-.367-3.462c-0.007-1.379-.635-2.667-0.56-4.05,0.081-1.974-.819-3.836-0.626-5.816,0.2-2.107-.9-4.026-0.927-6.109,0-1.858-.839-3.574-0.9-5.422-0.041-1.407-.84-2.654-0.853-4.057a12.817,12.817,0,0,0-.792-4.1c-0.571-1.6-.265-3.367-0.842-4.964a11.626,11.626,0,0,1-.53-3.533c-0.085-1.176-.721-2.209-0.9-3.36-0.3-1.458-.129-2.987-0.608-4.407-0.557-1.655-.554-3.425-0.992-5.1-0.479-1.695-.241-3.513-0.911-5.161a13.411,13.411,0,0,1-.7-4.06c-0.085-1.736-.989-3.316-0.942-5.069-0.006-2.083-.927-4.04-0.812-6.133,0.136-1.841-.7-3.581-0.5-5.419,0.221-1.749-.791-3.356-0.618-5.106a11,11,0,0,0-.435-3.72c-0.4-1.3.231-2.678-.238-3.958-0.768-1.9.034-3.976-.523-5.923-0.533-1.865.044-3.818-.4-5.69-0.309-1.254.014-2.535-.108-3.8-0.116-1.593-.652-3.153-0.472-4.763a17.134,17.134,0,0,0-.316-3.381,14.294,14.294,0,0,0,.02-3.591,12.434,12.434,0,0,1-.187-3.849c0-1.719-.112-3.439-0.041-5.154,0.058-1.482-.441-2.922-0.329-4.4a18.269,18.269,0,0,0-.221-3.411c-0.214-1.389.5-2.776,0.078-4.151-0.625-2.1-.122-4.292.2-6.4a8.039,8.039,0,0,1,2.6-5.27C630.962,186.069,631.9,184.877,633.293,185.087Zm-96.528,1.519a5.936,5.936,0,0,1,4.593,2.592,9.688,9.688,0,0,1,1.271,4.152c0.14,1.135,1,2.052,1.023,3.214a7.275,7.275,0,0,0,.594,3.034c0.87,1.845.466,3.975,1.254,5.84,0.544,1.3.136,2.776,0.693,4.081a11.173,11.173,0,0,1,.822,3.737c0.021,1.519,1.023,2.844.887,4.38a8.024,8.024,0,0,0,.469,3.319c0.649,1.767.126,3.676,0.513,5.49a10.92,10.92,0,0,1,.191,3.068c-0.194,1.852.747,3.581,0.632,5.44-0.092,1.953.669,3.836,0.424,5.8-0.19,1.706.432,3.36,0.374,5.062-0.092,4.077.445,8.154,0.166,12.225,0.466,2.708.082,5.463,0.473,8.181a18.641,18.641,0,0,1-.225,3.041c0.1,1.481.66,2.922,0.514,4.424a11.5,11.5,0,0,0-.041,3.349c0.336,1.927-.075,3.877.125,5.814,0.163,1.824-.017,3.665.293,5.48a33.535,33.535,0,0,1,.024,4.7,13.134,13.134,0,0,1,.179,3.421c-0.292,1.937.323,3.856,0.147,5.8a14,14,0,0,0,.03,3.417,15.147,15.147,0,0,1-.231,3.7,19.038,19.038,0,0,1,.309,3.758c-0.3,2.269.462,4.522,0.1,6.788-0.237,1.583.391,3.146,0.133,4.729a10.9,10.9,0,0,0-.088,3.425c0.3,1.8-.259,3.611.03,5.416,0.279,1.685-.577,3.377-0.03,5.042a9.008,9.008,0,0,1,.139,3.078c-0.231,2.154.255,4.325-.1,6.479-0.288,1.474.3,2.949,0.034,4.423a8.41,8.41,0,0,0-.006,3.055c0.333,1.923-.1,3.863.105,5.8a26.594,26.594,0,0,1-.068,4.06c-0.1,1.379.442,2.735,0.16,4.111-0.275,1.8.394,3.591,0.163,5.395a16.416,16.416,0,0,0,.088,4.1c0.211,1.322-.652,2.62-0.146,3.918,0.761,2.14.217,4.43,0.645,6.621,0.378,1.821-.054,3.69.289,5.521,0.252,1.322-.19,2.654-0.013,3.989a25.333,25.333,0,0,1,.489,4.746c-0.146,1.614.466,3.17,0.411,4.784a15.985,15.985,0,0,0,.143,3.442c0.38,1.709-.078,3.492.432,5.188,0.543,1.943.19,3.992,0.652,5.952a15.23,15.23,0,0,1,.231,3.408c0.01,1.26.754,2.419,0.577,3.7a12.279,12.279,0,0,0,.374,4.305c0.5,1.78.167,3.663,0.656,5.446,0.5,1.726-.027,3.547.438,5.273,0.588,1.974.15,4.087,0.782,6.062,0.543,1.715.353,3.519,0.56,5.279,0.581,2.29.225,4.709,0.952,6.975,0.02,2.865.917,5.63,0.961,8.494a19.9,19.9,0,0,1,.517,5.756c-0.225,1.3.706,2.443,0.628,3.744a16.053,16.053,0,0,0,.306,4.073c0.435,1.811,0,3.7.425,5.518,0.482,1.756-.041,3.581.217,5.368,0.122,0.792.659,1.5,0.571,2.338-0.319,2.29.564,4.522,0.479,6.819-0.119,1.613.581,3.156,0.435,4.773a12.094,12.094,0,0,0,.129,3.945,7.526,7.526,0,0,1,.173,2.826c-0.261,2.26.435,4.509,0.129,6.775-0.3,1.556.31,3.092,0.126,4.654-0.221,2.087.2,4.176,0.007,6.269-0.16,1.811.424,3.591,0.272,5.4-0.18,2.263.217,4.526,0.02,6.788-0.156,1.573.245,3.146,0.02,4.72a41.288,41.288,0,0,0,.034,5.133c0.007,1.587-.465,3.153-0.268,4.75,0.166,1.593-.227,3.177-0.119,4.773a8.957,8.957,0,0,1-.027,2.661,4,4,0,0,0-.245,1.878c0.728,2.831-.346,5.7.065,8.563a31.19,31.19,0,0,0-10.438.234,17.411,17.411,0,0,1,0-5.192c0.309-1.946-.329-3.9.051-5.83a26.026,26.026,0,0,0,.072-4.006c-0.062-1.369.387-2.714,0.146-4.073a11.2,11.2,0,0,1,.074-3.765c0.293-1.566-.343-3.142.031-4.7a12.21,12.21,0,0,0-.041-4.457c-0.214-1.359.245-2.708,0.078-4.06a13.853,13.853,0,0,1-.207-3.4c0.289-2.378-.408-4.767.024-7.138,0.323-1.611-.547-3.167-0.221-4.771,0.278-1.875-.462-3.734-0.129-5.6,0.329-1.641-.217-3.269-0.163-4.91,0.027-1.26.261-2.5,0.4-3.747a4.05,4.05,0,0,1-.73-2.358,14.405,14.405,0,0,0-.374-4.729c-0.306-1.478.051-3-.309-4.465-0.581-2.089.112-4.294-.51-6.37-0.414-1.359.048-2.8-.326-4.159a11.161,11.161,0,0,1-.462-3.74c0.221-2.406-.853-4.73-0.483-7.132,0.225-1.172-.5-2.232-0.506-3.384a11.99,11.99,0,0,0-.36-3.621c-0.72-1.9-.136-3.979-0.751-5.9-0.748-2.443.357-5.262-1.3-7.447,0.846-2.157-.489-4.312-0.425-6.5a15.762,15.762,0,0,0-.659-4.448,9.568,9.568,0,0,1,.037-3.387c-0.094-.815-0.563-1.525-0.679-2.331-0.109-1.134.075-2.283-.139-3.407a15.079,15.079,0,0,1-.595-3.4,13.477,13.477,0,0,0-.346-3.727c-0.415-1.345-.051-2.745-0.163-4.111a24.35,24.35,0,0,1-.68-3.391,12.759,12.759,0,0,0-.347-3.876c-0.635-1.713.058-3.571-.564-5.28A6.754,6.754,0,0,1,544.1,414c0.173-1.611-.581-3.143-0.435-4.75a12.2,12.2,0,0,0-.109-3.394,20.151,20.151,0,0,1-.176-4.77c0.061-1.393-.772-2.695-0.425-4.088a9.207,9.207,0,0,0-.371-3.682c-0.38-1.139.123-2.3,0.034-3.452-0.119-1.465-.672-2.912-0.329-4.387,0.414-1.794-.6-3.52-0.241-5.307,0.332-1.994-.425-3.971-0.072-5.955a17.281,17.281,0,0,0-.241-4.448,10.363,10.363,0,0,0,.115-4.325c-0.475-1.692.265-3.415-.084-5.117-0.432-2.171.336-4.366-.126-6.533-0.364-1.5.329-2.987,0.1-4.492-0.289-1.991.2-3.982-.024-5.973a22.024,22.024,0,0,1,.265-5.116q-0.276-.836-0.537-1.662c0.5-2.364-.02-4.777.235-7.158a25.367,25.367,0,0,0-.058-4.06c-0.095-1.346.51-2.671,0.16-4.006a13.863,13.863,0,0,1-.123-3.805c0.1-1.6-.414-3.191-0.1-4.781a10.313,10.313,0,0,0-.146-4.066c-0.041-1.461.061-2.926-.1-4.383-0.214-1.808.391-3.6,0.092-5.4-0.221-1.59.146-3.2-.112-4.781a9.042,9.042,0,0,1-.112-3.085c0.3-1.478-.224-2.935-0.245-4.413-0.051-1.6.35-3.211,0.024-4.8-0.306-1.457.047-2.942-.2-4.4-0.286-1.811.112-3.632-.075-5.443a13.264,13.264,0,0,1-.17-4.056,9.506,9.506,0,0,0-.231-3.031c-0.255-1.58.265-3.177-.085-4.75-0.489-2.252.238-4.566-.3-6.812-0.353-1.464.279-2.952-.071-4.42a9.227,9.227,0,0,1,.044-4.077c0.279-1.213-.51-2.28-0.764-3.415,0.034-.683.2-1.345,0.237-2.024-0.057-1.037-.452-2.025-0.455-3.068a17.836,17.836,0,0,0-.353-4.516c-0.578-1.767-.017-3.69-0.656-5.443a3.359,3.359,0,0,1-.211-2.106,10.658,10.658,0,0,0-.479-4.628,26.119,26.119,0,0,0-.662-3.445,13.238,13.238,0,0,1-.632-4.016c-0.252-.8-0.656-1.542-0.887-2.344-0.082-.747.02-1.5-0.085-2.242-0.214-.982-0.751-1.862-0.931-2.851-0.105-1.114.119-2.28-.36-3.329a9.762,9.762,0,0,1-.788-3.479c-0.075-1.244-1.2-2.141-1.241-3.391a15.161,15.161,0,0,0-.485-3.119c-0.221-.785.468-1.4,0.927-1.94A8.71,8.71,0,0,1,536.765,186.606Z" transform="translate(-0.563 -0.906)"/>
  <path id="Pocket" class="cls-10" d="M759.326,919.342c6.809-.105,13.546,1.441,20.365,1,3.965-.262,7.951-1.074,11.929-0.466a9.223,9.223,0,0,1,6.205,3.616c2.2,3.207,3.367,6.968,4.814,10.549,2.643,7.029,5.888,13.808,8.766,20.742,2.6,6.459,4.849,13.053,7.234,19.593,2.259,6.5,4.328,13.057,6.608,19.546,6.588,16.309,13.068,32.779,22.133,47.919,2.959,5.11,6.279,9.99,9.5,14.94,4.067,6.18,7.434,12.77,10.913,19.29a219.28,219.28,0,0,1,15.816,38.88c0.961,3.32,1.906,6.65,2.987,9.94,2,7.06,3.8,14.18,5.609,21.31,1.859,7.04,2.813,14.27,4.3,21.39a71.855,71.855,0,0,0,2.457,10.22c1.335,4.49,2.256,9.1,3.747,13.55,0.873,2.56,1.376,5.24,2.334,7.78a56.158,56.158,0,0,1,3.218,12.65c0.316,3.71.262,7.44,0.768,11.13,0.51,3.96.785,7.96,1.651,11.87,1.047,5.58,2.525,11.09,3.279,16.72,0.343,3.4.71,6.79,1.264,10.16,1,7.51,1.909,15.03,3.037,22.52,1.142,8.37,2.549,16.71,3.622,25.09,1.787,11.42,3.463,22.85,5.236,34.26,0.928,5.76,1.237,11.6,2.158,17.36,0.635,3.55.7,7.17,1.2,10.74,0.564,4.11,3.429,7.72,2.973,11.99a5.579,5.579,0,0,1-4.648,4.24c-2.12.23-4.26,0.05-6.38,0.26-4.343.11-8.634,0.82-12.952,1.16-3.065.15-6.089,0.67-9.13,0.99-5.005.42-9.975,1.12-14.973,1.54-3.646.31-7.295,0.59-10.931,0.98-4.631.54-9.228,1.34-13.869,1.77-8.093.78-16.136,1.98-24.185,3.12-7.689.86-15.361,1.85-23.043,2.77-9.629,1.05-19.275,1.88-28.917,2.77-12.191,1.26-24.426,1.91-36.637,2.9-8.511.5-17.033,0.78-25.53,1.43-12.911.69-25.789,2.13-38.727,2.19-4.627.3-9.269,0.18-13.893,0.49-7.947.11-15.864,0.83-23.8,1.03-4.757.01-9.51,0.01-14.264-.07-2.782-.21-5.558.1-8.337,0.13-16.812-.17-33.631.47-50.442,0-1.964.01-3.935-.13-5.892,0.07a4.021,4.021,0,0,1-2.011-.17c0.275-.05.826-0.16,1.1-0.22-4.767-.01-9.524-0.3-14.29-0.19-3.836-.2-7.679-0.15-11.515-0.32a18.485,18.485,0,0,0-5.307.26,3.449,3.449,0,0,1-1.93-.22c0.278-.06.832-0.17,1.111-0.23-1.815.01-3.629-.02-5.436-0.1-2.831-.17-5.664.04-8.488-0.23-2.878.01-5.8-.57-8.64,0.1a6.529,6.529,0,0,1-2.443-.28,29.3,29.3,0,0,0-5.919-.36c-4.141.27-8.307-.73-12.428-0.11a4.349,4.349,0,0,1-.748-0.18,7.108,7.108,0,0,0-4.009-.18c-0.123-.03-0.367-0.11-0.489-0.15a4.532,4.532,0,0,0-3.2-.19l-0.058.01c-0.1-.04-0.295-0.13-0.394-0.18a4.786,4.786,0,0,0-3.336-.14,3.228,3.228,0,0,1-.7-0.2,4.761,4.761,0,0,0-3.425-.13,3.938,3.938,0,0,1-.975-0.21,5.626,5.626,0,0,0-3.775-.11,2.388,2.388,0,0,1-1.022-.22,5.308,5.308,0,0,0-3.7-.12l-0.142.03c-0.143-.06-0.429-0.19-0.571-0.26a4.87,4.87,0,0,0-3.425-.12,3.674,3.674,0,0,1-.69-0.21,5.007,5.007,0,0,0-3.329-.17,2.779,2.779,0,0,1-.711-0.18,3.91,3.91,0,0,0-3.057-.1,3.182,3.182,0,0,1-.816-0.19c-4.036-.61-8.147-0.7-12.208-1.12-7.719-.59-15.4-1.56-23.077-2.56-5.646-.73-11.321-1.19-16.981-1.75-6.966-.79-13.924-1.62-20.91-2.19-9.564-.89-18.979-2.87-28.5-4.08-15.748-1.88-31.374-4.6-47.092-6.68-4.991-.68-10.009-1.14-14.99-1.9-3-.43-5.95-1.16-8.946-1.62-5.24-.83-10.513-1.46-15.8-1.84-3.489-.4-7.077-0.43-10.427-1.57a6.693,6.693,0,0,1-4.533-5.64c-0.652-4.31,1.672-8.19,2.752-12.21,1.04-3.26,1.24-6.69,1.737-10.05,1.066-7.41,1.851-14.86,2.952-22.27,1.162-8.46,2.993-16.8,4.56-25.18,1.624-8.63,2.779-17.34,3.839-26.05,0.924-7.79,2.1-15.54,3.306-23.29,0.581-3.67.69-7.38,1.036-11.07a156.113,156.113,0,0,0,.636-16.34,23.921,23.921,0,0,1,.411-5.9c0.462-1.87,1.026-3.71,1.535-5.56,1.135-3.88,2.291-7.76,3.422-11.64,2.049-7,4.291-13.96,6.051-21.04,1.587-6.65,4.112-13.02,5.966-19.59,4.281-14.76,9.4-29.26,14.325-43.82,2.273-6.92,4.886-13.73,7.648-20.47,2.467-6.15,5.059-12.26,7.883-18.26,3.17-6.61,6.353-13.21,9.384-19.88,5.372-11.88,11.3-23.49,16.571-35.41,3.034-7.19,6.438-14.22,9.533-21.39,2.375-5.54,5.223-10.86,7.832-16.3,3.425-6.788,6.232-13.869,9.561-20.7,3.085-6.7,6.357-13.315,9.459-20.012,2.81-5.986,5.076-12.221,8.093-18.112,1.353-2.456,3.092-5.015,5.81-6.061,3.218-.972,6.623-0.833,9.949-0.86,4.07,0.017,8.151.027,12.215,0.347,9.856,0.391,19.706.89,29.566,1.172,9.181,0.584,18.351-.493,27.535-0.455,3.73-.007,7.464.132,11.2,0.119,8.263,0.017,16.523-.9,24.786-0.275,4.427,0.363,8.814,1.158,13.261,1.338,3.969,0.394,7.944-.078,11.916-0.149,4.872-.316,9.734-0.731,14.614-0.945,13.026-.292,26.039,1.25,39.062.431,3.276-.166,6.565-0.1,9.84-0.366,14.393-.412,28.761-1.523,43.168-1.557,8.378-.23,16.76-0.455,25.112-1.178,4.3-.293,8.6-0.738,12.917-0.833,8.155-.486,16.336-0.146,24.494-0.53,4.3-.024,8.593-0.1,12.891-0.17,10.078-.5,20.165-0.853,30.26-0.917C750.274,919.753,754.79,919.305,759.326,919.342Z" transform="translate(-0.563 -0.906)"/>
</svg>
