{"asset":{"version":"2.0","generator":"babylon.js glTF exporter for 3dsmax 2020 v20201020.3"},"scene":0,"scenes":[{"nodes":[0,1]}],"nodes":[{"mesh":0,"translation":[-0.0218652356,0.0,0.029341165],"scale":[0.0279443581,0.0279443581,0.0279443581],"name":"S_C2_S"},{"name":"Default light"}],"meshes":[{"primitives":[{"attributes":{"POSITION":1,"NORMAL":2,"TEXCOORD_0":3},"indices":0,"material":0}],"name":"S_C2_S"}],"accessors":[{"bufferView":0,"componentType":5123,"count":53970,"type":"SCALAR","name":"accessorIndices"},{"bufferView":1,"componentType":5126,"count":53970,"max":[0.292140633,0.3219069,0.132285729],"min":[-0.292140633,-0.3219069,-0.132285729],"type":"VEC3","name":"accessorPositions"},{"bufferView":1,"byteOffset":647640,"componentType":5126,"count":53970,"type":"VEC3","name":"accessorNormals"},{"bufferView":2,"componentType":5126,"count":53970,"type":"VEC2","name":"accessorUVs"}],"bufferViews":[{"buffer":0,"byteLength":107940,"name":"bufferViewScalar"},{"buffer":0,"byteOffset":107940,"byteLength":1295280,"byteStride":12,"name":"bufferViewFloatVec3"},{"buffer":0,"byteOffset":1403220,"byteLength":431760,"byteStride":8,"name":"bufferViewFloatVec2"}],"buffers":[{"uri":"soccer_jersey_2k.bin","byteLength":1834980}],"materials":[{"pbrMetallicRoughness":{"baseColorFactor":[0.588,0.588,0.588,1.0],"metallicFactor":0.0,"roughnessFactor":0.9},"name":"threeQuarterLength_Material1172562"}]}