{"asset":{"version":"2.0","generator":"babylon.js glTF exporter for 3dsmax 2020 v20201020.3"},"scene":0,"scenes":[{"nodes":[0,3]}],"nodes":[{"children":[1],"name":"group1"},{"children":[2],"name":"group"},{"mesh":0,"rotation":[0.708432138,0.0,0.0,0.7057789],"name":"ShirtNormalCollar"},{"name":"Default light"}],"meshes":[{"primitives":[{"attributes":{"POSITION":1,"TANGENT":2,"NORMAL":3,"TEXCOORD_0":4},"indices":0}],"name":"ShirtNormalCollar"}],"accessors":[{"bufferView":0,"componentType":5125,"count":94383,"type":"SCALAR","name":"accessorIndices"},{"bufferView":1,"componentType":5126,"count":94383,"max":[0.798719943,0.387405664,0.9691786],"min":[-0.798719943,-0.386251181,-0.970790744],"type":"VEC3","name":"accessorPositions"},{"bufferView":2,"componentType":5126,"count":94383,"type":"VEC4","name":"accessorTangents"},{"bufferView":1,"byteOffset":1132596,"componentType":5126,"count":94383,"type":"VEC3","name":"accessorNormals"},{"bufferView":3,"componentType":5126,"count":94383,"type":"VEC2","name":"accessorUVs"}],"bufferViews":[{"buffer":0,"byteLength":377532,"name":"bufferViewScalar"},{"buffer":0,"byteOffset":377532,"byteLength":2265192,"byteStride":12,"name":"bufferViewFloatVec3"},{"buffer":0,"byteOffset":2642724,"byteLength":1510128,"byteStride":16,"name":"bufferViewFloatVec4"},{"buffer":0,"byteOffset":4152852,"byteLength":755064,"byteStride":8,"name":"bufferViewFloatVec2"}],"buffers":[{"uri":"testJersey.bin","byteLength":4907916}]}