{"asset":{"version":"2.0","generator":"babylon.js glTF exporter for 3dsmax 2020 v20201020.3"},"scene":0,"scenes":[{"nodes":[0,1]}],"nodes":[{"mesh":0,"translation":[9.689331E-08,0.0,-1.93786619E-07],"rotation":[0.7071068,0.0,0.0,0.7071067],"scale":[0.393700778,0.393700778,0.393700778],"name":"ShirtNormalCollar","extras":{"currentUVSet":"DiffuseUV"}},{"name":"Default light"}],"meshes":[{"primitives":[{"attributes":{"POSITION":1,"NORMAL":2},"indices":0}],"name":"ShirtNormalCollar"}],"accessors":[{"bufferView":0,"componentType":5123,"count":38637,"type":"SCALAR","name":"accessorIndices"},{"bufferView":1,"componentType":5126,"count":38637,"max":[0.798719943,0.387405723,0.9691788],"min":[-0.7957273,-0.386251122,-0.970790565],"type":"VEC3","name":"accessorPositions"},{"bufferView":1,"byteOffset":463644,"componentType":5126,"count":38637,"type":"VEC3","name":"accessorNormals"}],"bufferViews":[{"buffer":0,"byteLength":77276,"name":"bufferViewScalar"},{"buffer":0,"byteOffset":77276,"byteLength":927288,"byteStride":12,"name":"bufferViewFloatVec3"}],"buffers":[{"uri":"testJersey.bin","byteLength":1004564}]}