<?xml version="1.0" encoding="UTF-8"?>
<svg width="48px" height="36px" viewBox="0 0 48 36" version="1.1" xmlns="http://www.w3.org/2000/svg" xmlns:xlink="http://www.w3.org/1999/xlink">
    <!-- Generator: Sketch 59.1 (86144) - https://sketch.com -->
    <title>assets / logo / fifth element</title>
    <desc>Created with Sketch.</desc>
    <g id="assets-/-logo-/-fifth-element" stroke="none" stroke-width="1" fill="none" fill-rule="evenodd">
        <path d="M23.5811966,6.94017094 C25.4957265,6.94017094 27.0512821,5.38461538 27.0512821,3.46581197 C27.0512821,1.55128205 25.4957265,0 23.5811966,0 C21.6623932,0 20.1068376,1.55128205 20.1068376,3.46581197 C20.1068376,5.38461538 21.6623932,6.94017094 23.5811966,6.94017094 Z" id="Path" fill="#000000"></path>
        <path d="M17.465812,20.7179487 C17.2350427,21.0726496 16.7179487,21.8589744 16.3760684,22.4444444 L23.5769231,29.6495726 L30.7820513,22.4444444 C30.4444444,21.8589744 29.9230769,21.0726496 29.6965812,20.7179487 L23.5811966,26.8290598 L17.465812,20.7179487 Z" id="Path" fill="#000000"></path>
        <polygon id="Path" fill="#000000" points="18.6196581 19.0470085 23.5811966 24.0128205 28.5384615 19.0598291 23.5811966 12.042735"></polygon>
        <path d="M23.5769231,32.465812 L15.4059829,24.2905983 C15.0940171,25.1837607 14.9230769,26.1410256 14.9230769,27.1452991 C14.9230769,31.9273504 18.7649573,35.7991453 23.5470085,35.7991453 C28.3247863,35.7991453 32.2350427,31.9230769 32.2350427,27.1452991 C32.2350427,26.1452991 32.0641026,25.1837607 31.7521368,24.2905983 L23.5769231,32.465812 Z" id="Path" fill="#000000"></path>
        <path d="M43.0811966,2.47435897 C35.7905983,-2.22222222 30.3076923,6.04700855 24.8760684,10.0598291 C24.8760684,10.0598291 26.8547009,13.4871795 28.9700855,15.8162393 C31.0854701,18.1495726 32.8589744,19.0940171 35.8076923,19.042735 C38.7564103,18.991453 41.3931624,17.1452991 42.542735,15.5299145 C43.6923077,13.9102564 44.2051282,12.2948718 44.2051282,10.0555556 L29.1196581,10.0555556 C31.4188034,8.24786325 33.9145299,5.52136752 36.534188,4.2991453 C38.6837607,3.31196581 41.3205128,4.23504274 42.9358974,6.28632479 C43.7222222,7.36324786 44.2051282,8.73931624 44.2051282,10.0555556 C45.3717949,10.0555556 46.4957265,10.0512821 47.1495726,10.0512821 C47.2948718,6.92307692 45.5769231,4.28205128 43.0811966,2.47435897 Z" id="Path" fill="#000000"></path>
        <path d="M18.1880342,15.8162393 C20.3034188,13.482906 22.2820513,10.0598291 22.2820513,10.0598291 C16.8504274,6.04273504 11.3675214,-2.22649573 4.07692308,2.47435897 C1.58119658,4.28205128 -0.136752137,6.92307692 0.00854700855,10.0555556 C0.666666667,10.0555556 1.79059829,10.0598291 2.95299145,10.0598291 C2.95299145,8.74358974 3.43589744,7.36752137 4.22222222,6.29059829 C5.83760684,4.23504274 8.47435897,3.31196581 10.6239316,4.3034188 C13.2393162,5.52991453 15.7393162,8.25213675 18.0384615,10.0598291 L2.95299145,10.0598291 C2.95299145,12.2948718 3.46581197,13.9145299 4.61538462,15.534188 C5.76495726,17.1538462 8.4017094,19 11.3504274,19.0470085 C14.2991453,19.0940171 16.0726496,18.1452991 18.1880342,15.8162393 Z" id="Path" fill="#000000"></path>
    </g>
</svg>